G04 MADE WITH FRITZING*
G04 WWW.FRITZING.ORG*
G04 DOUBLE SIDED*
G04 HOLES PLATED*
G04 CONTOUR ON CENTER OF CONTOUR VECTOR*
%ASAXBY*%
%FSLAX23Y23*%
%MOIN*%
%OFA0B0*%
%SFA1.0B1.0*%
%ADD10C,0.070000*%
%ADD11C,0.086614*%
%ADD12C,0.078740*%
%ADD13C,0.075000*%
%ADD14C,0.145669*%
%ADD15C,0.062992*%
%ADD16C,0.078000*%
%ADD17R,0.047244X0.043307*%
%ADD18R,0.062992X0.062992*%
%ADD19C,0.024000*%
%ADD20C,0.048000*%
%ADD21C,0.020000*%
%ADD22R,0.001000X0.001000*%
%LNCOPPER1*%
G90*
G70*
G54D10*
X1739Y1057D03*
X1639Y1057D03*
X1539Y1057D03*
X1739Y457D03*
X1539Y457D03*
G54D11*
X1739Y457D03*
X1539Y457D03*
G54D12*
X1539Y1057D03*
X1639Y1057D03*
X1739Y1057D03*
G54D13*
X919Y1157D03*
X1319Y1157D03*
X1750Y277D03*
X1350Y277D03*
X829Y757D03*
X429Y757D03*
G54D14*
X1399Y767D03*
X1889Y757D03*
G54D13*
X1050Y307D03*
X1050Y407D03*
G54D15*
X650Y458D03*
X650Y557D03*
X650Y458D03*
X650Y557D03*
X150Y458D03*
X150Y557D03*
X150Y458D03*
X150Y557D03*
X651Y1056D03*
X651Y958D03*
X651Y1056D03*
X651Y958D03*
X150Y1055D03*
X150Y957D03*
X150Y1055D03*
X150Y957D03*
G54D13*
X1239Y557D03*
X939Y557D03*
X1239Y657D03*
X939Y657D03*
X1239Y757D03*
X939Y757D03*
X1239Y857D03*
X939Y857D03*
G54D16*
X1550Y1257D03*
X1550Y1357D03*
G54D17*
X1589Y197D03*
X1522Y197D03*
G54D18*
X650Y458D03*
X650Y458D03*
X150Y458D03*
X150Y458D03*
X651Y1056D03*
X651Y1056D03*
X150Y1055D03*
X150Y1055D03*
G54D19*
X924Y533D02*
X895Y488D01*
D02*
X895Y306D02*
X1021Y307D01*
D02*
X1349Y218D02*
X1349Y248D01*
D02*
X1719Y197D02*
X1750Y227D01*
D02*
X1607Y197D02*
X1719Y197D01*
D02*
X1750Y227D02*
X1750Y248D01*
D02*
X813Y590D02*
X688Y587D01*
D02*
X688Y587D02*
X671Y574D01*
G54D20*
D02*
X829Y718D02*
X829Y675D01*
G54D19*
D02*
X1879Y1017D02*
X1879Y1138D01*
D02*
X1830Y978D02*
X1879Y1017D01*
D02*
X1824Y978D02*
X1830Y978D01*
D02*
X1648Y1357D02*
X1580Y1357D01*
D02*
X1879Y1138D02*
X1648Y1357D01*
D02*
X1739Y993D02*
X1739Y1026D01*
D02*
X1377Y196D02*
X1349Y218D01*
D02*
X1504Y197D02*
X1377Y196D01*
D02*
X1048Y757D02*
X1168Y458D01*
D02*
X1168Y458D02*
X1513Y457D01*
D02*
X968Y757D02*
X1048Y757D01*
D02*
X1580Y1257D02*
X1639Y1257D01*
D02*
X1639Y1257D02*
X1639Y1083D01*
G36*
X1782Y956D02*
X1782Y999D01*
X1830Y999D01*
X1830Y956D01*
X1782Y956D01*
G37*
D02*
G36*
X1715Y956D02*
X1715Y999D01*
X1763Y999D01*
X1763Y956D01*
X1715Y956D01*
G37*
D02*
G36*
X851Y634D02*
X807Y634D01*
X807Y681D01*
X851Y681D01*
X851Y634D01*
G37*
D02*
G36*
X851Y567D02*
X807Y567D01*
X807Y614D01*
X851Y614D01*
X851Y567D01*
G37*
D02*
G54D21*
X1022Y334D02*
X1077Y334D01*
X1077Y279D01*
X1022Y279D01*
X1022Y334D01*
D02*
G36*
X837Y357D02*
X900Y357D01*
X900Y254D01*
X837Y254D01*
X837Y357D01*
G37*
D02*
G36*
X837Y498D02*
X900Y498D01*
X900Y396D01*
X837Y396D01*
X837Y498D01*
G37*
D02*
X1211Y530D02*
X1211Y585D01*
X1266Y585D01*
X1266Y530D01*
X1211Y530D01*
D02*
X1521Y1228D02*
X1521Y1286D01*
X1579Y1286D01*
X1579Y1228D01*
X1521Y1228D01*
D02*
G54D22*
X1533Y1092D02*
X1543Y1092D01*
X1633Y1092D02*
X1642Y1092D01*
X1733Y1092D02*
X1742Y1092D01*
X1529Y1091D02*
X1546Y1091D01*
X1629Y1091D02*
X1646Y1091D01*
X1729Y1091D02*
X1746Y1091D01*
X1526Y1090D02*
X1549Y1090D01*
X1626Y1090D02*
X1649Y1090D01*
X1726Y1090D02*
X1749Y1090D01*
X1524Y1089D02*
X1551Y1089D01*
X1624Y1089D02*
X1651Y1089D01*
X1724Y1089D02*
X1751Y1089D01*
X1522Y1088D02*
X1553Y1088D01*
X1622Y1088D02*
X1653Y1088D01*
X1722Y1088D02*
X1753Y1088D01*
X1521Y1087D02*
X1555Y1087D01*
X1620Y1087D02*
X1655Y1087D01*
X1720Y1087D02*
X1755Y1087D01*
X1519Y1086D02*
X1556Y1086D01*
X1619Y1086D02*
X1656Y1086D01*
X1719Y1086D02*
X1756Y1086D01*
X1518Y1085D02*
X1558Y1085D01*
X1618Y1085D02*
X1658Y1085D01*
X1718Y1085D02*
X1758Y1085D01*
X1516Y1084D02*
X1559Y1084D01*
X1616Y1084D02*
X1659Y1084D01*
X1716Y1084D02*
X1759Y1084D01*
X1515Y1083D02*
X1560Y1083D01*
X1615Y1083D02*
X1660Y1083D01*
X1715Y1083D02*
X1760Y1083D01*
X1514Y1082D02*
X1561Y1082D01*
X1614Y1082D02*
X1661Y1082D01*
X1714Y1082D02*
X1761Y1082D01*
X1513Y1081D02*
X1562Y1081D01*
X1613Y1081D02*
X1662Y1081D01*
X1713Y1081D02*
X1762Y1081D01*
X1512Y1080D02*
X1563Y1080D01*
X1612Y1080D02*
X1663Y1080D01*
X1712Y1080D02*
X1763Y1080D01*
X1512Y1079D02*
X1564Y1079D01*
X1611Y1079D02*
X1664Y1079D01*
X1711Y1079D02*
X1764Y1079D01*
X1511Y1078D02*
X1565Y1078D01*
X1611Y1078D02*
X1665Y1078D01*
X1711Y1078D02*
X1765Y1078D01*
X1510Y1077D02*
X1565Y1077D01*
X1610Y1077D02*
X1665Y1077D01*
X1710Y1077D02*
X1765Y1077D01*
X1509Y1076D02*
X1566Y1076D01*
X1609Y1076D02*
X1666Y1076D01*
X1709Y1076D02*
X1766Y1076D01*
X1509Y1075D02*
X1567Y1075D01*
X1609Y1075D02*
X1667Y1075D01*
X1708Y1075D02*
X1767Y1075D01*
X1508Y1074D02*
X1567Y1074D01*
X1608Y1074D02*
X1667Y1074D01*
X1708Y1074D02*
X1767Y1074D01*
X1507Y1073D02*
X1568Y1073D01*
X1607Y1073D02*
X1668Y1073D01*
X1707Y1073D02*
X1768Y1073D01*
X1507Y1072D02*
X1533Y1072D01*
X1543Y1072D02*
X1569Y1072D01*
X1607Y1072D02*
X1632Y1072D01*
X1643Y1072D02*
X1668Y1072D01*
X1707Y1072D02*
X1732Y1072D01*
X1743Y1072D02*
X1768Y1072D01*
X1506Y1071D02*
X1530Y1071D01*
X1546Y1071D02*
X1569Y1071D01*
X1606Y1071D02*
X1629Y1071D01*
X1646Y1071D02*
X1669Y1071D01*
X1706Y1071D02*
X1729Y1071D01*
X1746Y1071D02*
X1769Y1071D01*
X1506Y1070D02*
X1528Y1070D01*
X1548Y1070D02*
X1569Y1070D01*
X1606Y1070D02*
X1628Y1070D01*
X1648Y1070D02*
X1669Y1070D01*
X1706Y1070D02*
X1728Y1070D01*
X1748Y1070D02*
X1769Y1070D01*
X1506Y1069D02*
X1527Y1069D01*
X1549Y1069D02*
X1570Y1069D01*
X1605Y1069D02*
X1626Y1069D01*
X1649Y1069D02*
X1670Y1069D01*
X1705Y1069D02*
X1726Y1069D01*
X1749Y1069D02*
X1770Y1069D01*
X1505Y1068D02*
X1526Y1068D01*
X1550Y1068D02*
X1570Y1068D01*
X1605Y1068D02*
X1625Y1068D01*
X1650Y1068D02*
X1670Y1068D01*
X1705Y1068D02*
X1725Y1068D01*
X1750Y1068D02*
X1770Y1068D01*
X1505Y1067D02*
X1525Y1067D01*
X1551Y1067D02*
X1571Y1067D01*
X1605Y1067D02*
X1625Y1067D01*
X1651Y1067D02*
X1671Y1067D01*
X1705Y1067D02*
X1725Y1067D01*
X1751Y1067D02*
X1771Y1067D01*
X1504Y1066D02*
X1524Y1066D01*
X1551Y1066D02*
X1571Y1066D01*
X1604Y1066D02*
X1624Y1066D01*
X1651Y1066D02*
X1671Y1066D01*
X1704Y1066D02*
X1724Y1066D01*
X1751Y1066D02*
X1771Y1066D01*
X1504Y1065D02*
X1524Y1065D01*
X1552Y1065D02*
X1571Y1065D01*
X1604Y1065D02*
X1624Y1065D01*
X1652Y1065D02*
X1671Y1065D01*
X1704Y1065D02*
X1724Y1065D01*
X1752Y1065D02*
X1771Y1065D01*
X1504Y1064D02*
X1523Y1064D01*
X1552Y1064D02*
X1571Y1064D01*
X1604Y1064D02*
X1623Y1064D01*
X1652Y1064D02*
X1671Y1064D01*
X1704Y1064D02*
X1723Y1064D01*
X1752Y1064D02*
X1771Y1064D01*
X1504Y1063D02*
X1523Y1063D01*
X1552Y1063D02*
X1572Y1063D01*
X1604Y1063D02*
X1623Y1063D01*
X1652Y1063D02*
X1672Y1063D01*
X1704Y1063D02*
X1723Y1063D01*
X1752Y1063D02*
X1772Y1063D01*
X1504Y1062D02*
X1523Y1062D01*
X1553Y1062D02*
X1572Y1062D01*
X1604Y1062D02*
X1623Y1062D01*
X1653Y1062D02*
X1672Y1062D01*
X1703Y1062D02*
X1723Y1062D01*
X1753Y1062D02*
X1772Y1062D01*
X1503Y1061D02*
X1522Y1061D01*
X1553Y1061D02*
X1572Y1061D01*
X1603Y1061D02*
X1622Y1061D01*
X1653Y1061D02*
X1672Y1061D01*
X1703Y1061D02*
X1722Y1061D01*
X1753Y1061D02*
X1772Y1061D01*
X1503Y1060D02*
X1522Y1060D01*
X1553Y1060D02*
X1572Y1060D01*
X1603Y1060D02*
X1622Y1060D01*
X1653Y1060D02*
X1672Y1060D01*
X1703Y1060D02*
X1722Y1060D01*
X1753Y1060D02*
X1772Y1060D01*
X1503Y1059D02*
X1522Y1059D01*
X1553Y1059D02*
X1572Y1059D01*
X1603Y1059D02*
X1622Y1059D01*
X1653Y1059D02*
X1672Y1059D01*
X1703Y1059D02*
X1722Y1059D01*
X1753Y1059D02*
X1772Y1059D01*
X1503Y1058D02*
X1522Y1058D01*
X1553Y1058D02*
X1572Y1058D01*
X1603Y1058D02*
X1622Y1058D01*
X1653Y1058D02*
X1672Y1058D01*
X1703Y1058D02*
X1722Y1058D01*
X1753Y1058D02*
X1772Y1058D01*
X1503Y1057D02*
X1522Y1057D01*
X1553Y1057D02*
X1572Y1057D01*
X1603Y1057D02*
X1622Y1057D01*
X1653Y1057D02*
X1672Y1057D01*
X1703Y1057D02*
X1722Y1057D01*
X1753Y1057D02*
X1772Y1057D01*
X1503Y1056D02*
X1522Y1056D01*
X1553Y1056D02*
X1572Y1056D01*
X1603Y1056D02*
X1622Y1056D01*
X1653Y1056D02*
X1672Y1056D01*
X1703Y1056D02*
X1722Y1056D01*
X1753Y1056D02*
X1772Y1056D01*
X1503Y1055D02*
X1522Y1055D01*
X1553Y1055D02*
X1572Y1055D01*
X1603Y1055D02*
X1622Y1055D01*
X1653Y1055D02*
X1672Y1055D01*
X1703Y1055D02*
X1722Y1055D01*
X1753Y1055D02*
X1772Y1055D01*
X1503Y1054D02*
X1522Y1054D01*
X1553Y1054D02*
X1572Y1054D01*
X1603Y1054D02*
X1622Y1054D01*
X1653Y1054D02*
X1672Y1054D01*
X1703Y1054D02*
X1722Y1054D01*
X1753Y1054D02*
X1772Y1054D01*
X1504Y1053D02*
X1523Y1053D01*
X1553Y1053D02*
X1572Y1053D01*
X1604Y1053D02*
X1623Y1053D01*
X1653Y1053D02*
X1672Y1053D01*
X1703Y1053D02*
X1723Y1053D01*
X1753Y1053D02*
X1772Y1053D01*
X1504Y1052D02*
X1523Y1052D01*
X1552Y1052D02*
X1572Y1052D01*
X1604Y1052D02*
X1623Y1052D01*
X1652Y1052D02*
X1672Y1052D01*
X1704Y1052D02*
X1723Y1052D01*
X1752Y1052D02*
X1772Y1052D01*
X1504Y1051D02*
X1523Y1051D01*
X1552Y1051D02*
X1571Y1051D01*
X1604Y1051D02*
X1623Y1051D01*
X1652Y1051D02*
X1671Y1051D01*
X1704Y1051D02*
X1723Y1051D01*
X1752Y1051D02*
X1771Y1051D01*
X1504Y1050D02*
X1524Y1050D01*
X1552Y1050D02*
X1571Y1050D01*
X1604Y1050D02*
X1624Y1050D01*
X1652Y1050D02*
X1671Y1050D01*
X1704Y1050D02*
X1724Y1050D01*
X1752Y1050D02*
X1771Y1050D01*
X1504Y1049D02*
X1524Y1049D01*
X1551Y1049D02*
X1571Y1049D01*
X1604Y1049D02*
X1624Y1049D01*
X1651Y1049D02*
X1671Y1049D01*
X1704Y1049D02*
X1724Y1049D01*
X1751Y1049D02*
X1771Y1049D01*
X1505Y1048D02*
X1525Y1048D01*
X1551Y1048D02*
X1571Y1048D01*
X1605Y1048D02*
X1625Y1048D01*
X1651Y1048D02*
X1671Y1048D01*
X1705Y1048D02*
X1725Y1048D01*
X1751Y1048D02*
X1771Y1048D01*
X1505Y1047D02*
X1526Y1047D01*
X1550Y1047D02*
X1570Y1047D01*
X1605Y1047D02*
X1625Y1047D01*
X1650Y1047D02*
X1670Y1047D01*
X1705Y1047D02*
X1725Y1047D01*
X1750Y1047D02*
X1770Y1047D01*
X1506Y1046D02*
X1527Y1046D01*
X1549Y1046D02*
X1570Y1046D01*
X1605Y1046D02*
X1626Y1046D01*
X1649Y1046D02*
X1670Y1046D01*
X1705Y1046D02*
X1726Y1046D01*
X1749Y1046D02*
X1770Y1046D01*
X1506Y1045D02*
X1528Y1045D01*
X1548Y1045D02*
X1569Y1045D01*
X1606Y1045D02*
X1628Y1045D01*
X1648Y1045D02*
X1669Y1045D01*
X1706Y1045D02*
X1728Y1045D01*
X1748Y1045D02*
X1769Y1045D01*
X1506Y1044D02*
X1530Y1044D01*
X1546Y1044D02*
X1569Y1044D01*
X1606Y1044D02*
X1630Y1044D01*
X1646Y1044D02*
X1669Y1044D01*
X1706Y1044D02*
X1729Y1044D01*
X1746Y1044D02*
X1769Y1044D01*
X1507Y1043D02*
X1533Y1043D01*
X1543Y1043D02*
X1569Y1043D01*
X1607Y1043D02*
X1633Y1043D01*
X1643Y1043D02*
X1668Y1043D01*
X1707Y1043D02*
X1732Y1043D01*
X1743Y1043D02*
X1768Y1043D01*
X1507Y1042D02*
X1568Y1042D01*
X1607Y1042D02*
X1668Y1042D01*
X1707Y1042D02*
X1768Y1042D01*
X1508Y1041D02*
X1567Y1041D01*
X1608Y1041D02*
X1667Y1041D01*
X1708Y1041D02*
X1767Y1041D01*
X1509Y1040D02*
X1567Y1040D01*
X1609Y1040D02*
X1667Y1040D01*
X1708Y1040D02*
X1767Y1040D01*
X1509Y1039D02*
X1566Y1039D01*
X1609Y1039D02*
X1666Y1039D01*
X1709Y1039D02*
X1766Y1039D01*
X1510Y1038D02*
X1565Y1038D01*
X1610Y1038D02*
X1665Y1038D01*
X1710Y1038D02*
X1765Y1038D01*
X1511Y1037D02*
X1565Y1037D01*
X1611Y1037D02*
X1665Y1037D01*
X1711Y1037D02*
X1765Y1037D01*
X1512Y1036D02*
X1564Y1036D01*
X1611Y1036D02*
X1664Y1036D01*
X1711Y1036D02*
X1764Y1036D01*
X1512Y1035D02*
X1563Y1035D01*
X1612Y1035D02*
X1663Y1035D01*
X1712Y1035D02*
X1763Y1035D01*
X1513Y1034D02*
X1562Y1034D01*
X1613Y1034D02*
X1662Y1034D01*
X1713Y1034D02*
X1762Y1034D01*
X1514Y1033D02*
X1561Y1033D01*
X1614Y1033D02*
X1661Y1033D01*
X1714Y1033D02*
X1761Y1033D01*
X1515Y1032D02*
X1560Y1032D01*
X1615Y1032D02*
X1660Y1032D01*
X1715Y1032D02*
X1760Y1032D01*
X1516Y1031D02*
X1559Y1031D01*
X1616Y1031D02*
X1659Y1031D01*
X1716Y1031D02*
X1759Y1031D01*
X1518Y1030D02*
X1558Y1030D01*
X1618Y1030D02*
X1658Y1030D01*
X1718Y1030D02*
X1758Y1030D01*
X1519Y1029D02*
X1556Y1029D01*
X1619Y1029D02*
X1656Y1029D01*
X1719Y1029D02*
X1756Y1029D01*
X1521Y1028D02*
X1555Y1028D01*
X1620Y1028D02*
X1655Y1028D01*
X1720Y1028D02*
X1755Y1028D01*
X1522Y1027D02*
X1553Y1027D01*
X1622Y1027D02*
X1653Y1027D01*
X1722Y1027D02*
X1753Y1027D01*
X1524Y1026D02*
X1551Y1026D01*
X1624Y1026D02*
X1651Y1026D01*
X1724Y1026D02*
X1751Y1026D01*
X1526Y1025D02*
X1549Y1025D01*
X1626Y1025D02*
X1649Y1025D01*
X1726Y1025D02*
X1749Y1025D01*
X1529Y1024D02*
X1546Y1024D01*
X1629Y1024D02*
X1646Y1024D01*
X1729Y1024D02*
X1746Y1024D01*
X1533Y1023D02*
X1543Y1023D01*
X1633Y1023D02*
X1642Y1023D01*
X1733Y1023D02*
X1742Y1023D01*
X1532Y492D02*
X1544Y492D01*
X1732Y492D02*
X1743Y492D01*
X1528Y491D02*
X1547Y491D01*
X1728Y491D02*
X1747Y491D01*
X1526Y490D02*
X1550Y490D01*
X1726Y490D02*
X1750Y490D01*
X1524Y489D02*
X1552Y489D01*
X1723Y489D02*
X1752Y489D01*
X1522Y488D02*
X1554Y488D01*
X1722Y488D02*
X1754Y488D01*
X1520Y487D02*
X1555Y487D01*
X1720Y487D02*
X1755Y487D01*
X1519Y486D02*
X1557Y486D01*
X1719Y486D02*
X1757Y486D01*
X1517Y485D02*
X1558Y485D01*
X1717Y485D02*
X1758Y485D01*
X1516Y484D02*
X1559Y484D01*
X1716Y484D02*
X1759Y484D01*
X1515Y483D02*
X1560Y483D01*
X1715Y483D02*
X1760Y483D01*
X1514Y482D02*
X1561Y482D01*
X1714Y482D02*
X1761Y482D01*
X1513Y481D02*
X1562Y481D01*
X1713Y481D02*
X1762Y481D01*
X1512Y480D02*
X1563Y480D01*
X1712Y480D02*
X1763Y480D01*
X1511Y479D02*
X1564Y479D01*
X1711Y479D02*
X1764Y479D01*
X1511Y478D02*
X1565Y478D01*
X1710Y478D02*
X1765Y478D01*
X1510Y477D02*
X1566Y477D01*
X1710Y477D02*
X1766Y477D01*
X1509Y476D02*
X1566Y476D01*
X1709Y476D02*
X1766Y476D01*
X1508Y475D02*
X1567Y475D01*
X1708Y475D02*
X1767Y475D01*
X1508Y474D02*
X1568Y474D01*
X1708Y474D02*
X1767Y474D01*
X1507Y473D02*
X1568Y473D01*
X1707Y473D02*
X1768Y473D01*
X1507Y472D02*
X1532Y472D01*
X1544Y472D02*
X1569Y472D01*
X1707Y472D02*
X1732Y472D01*
X1744Y472D02*
X1769Y472D01*
X1506Y471D02*
X1529Y471D01*
X1546Y471D02*
X1569Y471D01*
X1706Y471D02*
X1729Y471D01*
X1746Y471D02*
X1769Y471D01*
X1506Y470D02*
X1527Y470D01*
X1548Y470D02*
X1570Y470D01*
X1706Y470D02*
X1727Y470D01*
X1748Y470D02*
X1769Y470D01*
X1505Y469D02*
X1526Y469D01*
X1549Y469D02*
X1570Y469D01*
X1705Y469D02*
X1726Y469D01*
X1749Y469D02*
X1770Y469D01*
X1505Y468D02*
X1525Y468D01*
X1550Y468D02*
X1570Y468D01*
X1705Y468D02*
X1725Y468D01*
X1750Y468D02*
X1770Y468D01*
X1505Y467D02*
X1525Y467D01*
X1551Y467D02*
X1571Y467D01*
X1705Y467D02*
X1725Y467D01*
X1751Y467D02*
X1771Y467D01*
X1504Y466D02*
X1524Y466D01*
X1551Y466D02*
X1571Y466D01*
X1704Y466D02*
X1724Y466D01*
X1751Y466D02*
X1771Y466D01*
X1504Y465D02*
X1524Y465D01*
X1552Y465D02*
X1571Y465D01*
X1704Y465D02*
X1723Y465D01*
X1752Y465D02*
X1771Y465D01*
X1504Y464D02*
X1523Y464D01*
X1552Y464D02*
X1572Y464D01*
X1704Y464D02*
X1723Y464D01*
X1752Y464D02*
X1771Y464D01*
X1504Y463D02*
X1523Y463D01*
X1553Y463D02*
X1572Y463D01*
X1704Y463D02*
X1723Y463D01*
X1752Y463D02*
X1772Y463D01*
X1504Y462D02*
X1523Y462D01*
X1553Y462D02*
X1572Y462D01*
X1703Y462D02*
X1723Y462D01*
X1753Y462D02*
X1772Y462D01*
X1503Y461D02*
X1522Y461D01*
X1553Y461D02*
X1572Y461D01*
X1703Y461D02*
X1722Y461D01*
X1753Y461D02*
X1772Y461D01*
X1503Y460D02*
X1522Y460D01*
X1553Y460D02*
X1572Y460D01*
X1703Y460D02*
X1722Y460D01*
X1753Y460D02*
X1772Y460D01*
X1503Y459D02*
X1522Y459D01*
X1553Y459D02*
X1572Y459D01*
X1703Y459D02*
X1722Y459D01*
X1753Y459D02*
X1772Y459D01*
X1503Y458D02*
X1522Y458D01*
X1553Y458D02*
X1572Y458D01*
X1703Y458D02*
X1722Y458D01*
X1753Y458D02*
X1772Y458D01*
X1503Y457D02*
X1522Y457D01*
X1553Y457D02*
X1572Y457D01*
X1703Y457D02*
X1722Y457D01*
X1753Y457D02*
X1772Y457D01*
X1503Y456D02*
X1522Y456D01*
X1553Y456D02*
X1572Y456D01*
X1703Y456D02*
X1722Y456D01*
X1753Y456D02*
X1772Y456D01*
X1503Y455D02*
X1522Y455D01*
X1553Y455D02*
X1572Y455D01*
X1703Y455D02*
X1722Y455D01*
X1753Y455D02*
X1772Y455D01*
X1503Y454D02*
X1523Y454D01*
X1553Y454D02*
X1572Y454D01*
X1703Y454D02*
X1722Y454D01*
X1753Y454D02*
X1772Y454D01*
X1504Y453D02*
X1523Y453D01*
X1553Y453D02*
X1572Y453D01*
X1704Y453D02*
X1723Y453D01*
X1753Y453D02*
X1772Y453D01*
X1504Y452D02*
X1523Y452D01*
X1552Y452D02*
X1572Y452D01*
X1704Y452D02*
X1723Y452D01*
X1752Y452D02*
X1772Y452D01*
X1504Y451D02*
X1523Y451D01*
X1552Y451D02*
X1571Y451D01*
X1704Y451D02*
X1723Y451D01*
X1752Y451D02*
X1771Y451D01*
X1504Y450D02*
X1524Y450D01*
X1552Y450D02*
X1571Y450D01*
X1704Y450D02*
X1724Y450D01*
X1752Y450D02*
X1771Y450D01*
X1505Y449D02*
X1524Y449D01*
X1551Y449D02*
X1571Y449D01*
X1704Y449D02*
X1724Y449D01*
X1751Y449D02*
X1771Y449D01*
X1505Y448D02*
X1525Y448D01*
X1551Y448D02*
X1571Y448D01*
X1705Y448D02*
X1725Y448D01*
X1750Y448D02*
X1770Y448D01*
X1505Y447D02*
X1526Y447D01*
X1550Y447D02*
X1570Y447D01*
X1705Y447D02*
X1726Y447D01*
X1750Y447D02*
X1770Y447D01*
X1506Y446D02*
X1527Y446D01*
X1549Y446D02*
X1570Y446D01*
X1706Y446D02*
X1727Y446D01*
X1749Y446D02*
X1770Y446D01*
X1506Y445D02*
X1528Y445D01*
X1547Y445D02*
X1569Y445D01*
X1706Y445D02*
X1728Y445D01*
X1747Y445D02*
X1769Y445D01*
X1506Y444D02*
X1530Y444D01*
X1545Y444D02*
X1569Y444D01*
X1706Y444D02*
X1730Y444D01*
X1745Y444D02*
X1769Y444D01*
X1507Y443D02*
X1534Y443D01*
X1542Y443D02*
X1568Y443D01*
X1707Y443D02*
X1734Y443D01*
X1742Y443D02*
X1768Y443D01*
X1508Y442D02*
X1568Y442D01*
X1707Y442D02*
X1768Y442D01*
X1508Y441D02*
X1567Y441D01*
X1708Y441D02*
X1767Y441D01*
X1509Y440D02*
X1567Y440D01*
X1709Y440D02*
X1767Y440D01*
X1509Y439D02*
X1566Y439D01*
X1709Y439D02*
X1766Y439D01*
X1510Y438D02*
X1565Y438D01*
X1710Y438D02*
X1765Y438D01*
X1511Y437D02*
X1565Y437D01*
X1711Y437D02*
X1764Y437D01*
X1512Y436D02*
X1564Y436D01*
X1712Y436D02*
X1764Y436D01*
X1513Y435D02*
X1563Y435D01*
X1712Y435D02*
X1763Y435D01*
X1513Y434D02*
X1562Y434D01*
X1713Y434D02*
X1762Y434D01*
X1514Y433D02*
X1561Y433D01*
X1714Y433D02*
X1761Y433D01*
X1516Y432D02*
X1560Y432D01*
X1715Y432D02*
X1760Y432D01*
X1517Y431D02*
X1559Y431D01*
X1717Y431D02*
X1759Y431D01*
X1518Y430D02*
X1557Y430D01*
X1718Y430D02*
X1757Y430D01*
X1519Y429D02*
X1556Y429D01*
X1719Y429D02*
X1756Y429D01*
X1521Y428D02*
X1555Y428D01*
X1721Y428D02*
X1754Y428D01*
X1523Y427D02*
X1553Y427D01*
X1722Y427D02*
X1753Y427D01*
X1524Y426D02*
X1551Y426D01*
X1724Y426D02*
X1751Y426D01*
X1527Y425D02*
X1549Y425D01*
X1727Y425D02*
X1749Y425D01*
X1530Y424D02*
X1546Y424D01*
X1730Y424D02*
X1746Y424D01*
X1534Y423D02*
X1541Y423D01*
X1734Y423D02*
X1741Y423D01*
D02*
G04 End of Copper1*
M02*