<?xml version='1.0' encoding='UTF-8' standalone='no'?>
<!-- Created with Fritzing (http://www.fritzing.org/) -->
<svg xmlns:svg='http://www.w3.org/2000/svg' xmlns='http://www.w3.org/2000/svg' version='1.2' baseProfile='tiny' x='0in' y='0in' width='0.8in' height='0.8in' viewBox='0 0 57.6 57.6' >
<g partID='1479340'><g transform="matrix(1, 0, 0, 1, 0, -537.676)">
 <g  id="copper0">
  <path  stroke-opacity="1" fill="none" stroke="#f6ca34" style="stroke-linecap:round;stroke-linejoin:round;stroke-miterlimit:4;stroke-dasharray:none;stroke-dashoffset:0;display:inline" id="connector1pin" stroke-width="1.44" d="m23.364,588.073a1.8,1.8,0,0,1,-3.6,0,1.8,1.8,0,1,1,3.6,0z"/>
  <path  stroke-opacity="1" fill="none" stroke="#f6ca34" style="stroke-linecap:round;stroke-linejoin:round;stroke-miterlimit:4;stroke-dasharray:none;stroke-dashoffset:0;display:inline" id="connector2pin" stroke-width="1.44" d="m30.564,588.073a1.8,1.8,0,0,1,-3.6,0,1.8,1.8,0,1,1,3.6,0z"/>
  <path  stroke-opacity="1" fill="none" stroke="#f6ca34" style="stroke-linecap:round;stroke-linejoin:round;stroke-miterlimit:4;stroke-dasharray:none;stroke-dashoffset:0;display:inline" id="connector3pin" stroke-width="1.44" d="m37.764,588.073a1.8,1.8,0,0,1,-3.6,0,1.8,1.8,0,1,1,3.6,0z"/>
  <path  stroke-opacity="1" fill="none" stroke="#f6ca34" style="stroke-linecap:round;stroke-linejoin:round;stroke-miterlimit:4;stroke-dasharray:none;stroke-dashoffset:0;display:inline" id="connector4pin" stroke-width="1.44" d="m23.364,544.876a1.8,1.8,0,0,1,-3.6,0,1.8,1.8,0,1,1,3.6,0z"/>
  <path  stroke-opacity="1" fill="none" stroke="#f6ca34" style="stroke-linecap:round;stroke-linejoin:round;stroke-miterlimit:4;stroke-dasharray:none;stroke-dashoffset:0;display:inline" id="connector5pin" stroke-width="1.44" d="m37.764,544.876a1.8,1.8,0,0,1,-3.6,0,1.8,1.8,0,1,1,3.6,0z"/>
 </g>
</g>
</g><g partID='1479341'><g transform="matrix(1, 0, 0, 1, 0, -537.676)">
 <g  id="copper1">
  <path  stroke-opacity="1" fill="none" stroke="#f6ca34" style="stroke-linecap:round;stroke-linejoin:round;stroke-miterlimit:4;stroke-dasharray:none;stroke-dashoffset:0;display:inline" id="connector1pin" stroke-width="1.44" d="m23.364,588.073a1.8,1.8,0,0,1,-3.6,0,1.8,1.8,0,1,1,3.6,0z"/>
  <path  stroke-opacity="1" fill="none" stroke="#f6ca34" style="stroke-linecap:round;stroke-linejoin:round;stroke-miterlimit:4;stroke-dasharray:none;stroke-dashoffset:0;display:inline" id="connector2pin" stroke-width="1.44" d="m30.564,588.073a1.8,1.8,0,0,1,-3.6,0,1.8,1.8,0,1,1,3.6,0z"/>
  <path  stroke-opacity="1" fill="none" stroke="#f6ca34" style="stroke-linecap:round;stroke-linejoin:round;stroke-miterlimit:4;stroke-dasharray:none;stroke-dashoffset:0;display:inline" id="connector3pin" stroke-width="1.44" d="m37.764,588.073a1.8,1.8,0,0,1,-3.6,0,1.8,1.8,0,1,1,3.6,0z"/>
  <path  stroke-opacity="1" fill="none" stroke="#f6ca34" style="stroke-linecap:round;stroke-linejoin:round;stroke-miterlimit:4;stroke-dasharray:none;stroke-dashoffset:0;display:inline" id="connector4pin" stroke-width="1.44" d="m23.364,544.876a1.8,1.8,0,0,1,-3.6,0,1.8,1.8,0,1,1,3.6,0z"/>
  <path  stroke-opacity="1" fill="none" stroke="#f6ca34" style="stroke-linecap:round;stroke-linejoin:round;stroke-miterlimit:4;stroke-dasharray:none;stroke-dashoffset:0;display:inline" id="connector5pin" stroke-width="1.44" d="m37.764,544.876a1.8,1.8,0,0,1,-3.6,0,1.8,1.8,0,1,1,3.6,0z"/>
 </g>
</g>
</g><g partID='1479342'><g transform="matrix(1, 0, 0, 1, 0, -537.676)">
 <g  id="silkscreen">
  <g transform="matrix(1, 0, 0, 1, 14.364, 575.032)">
   <g  xml:space="preserve" xmlns:xml="http://www.w3.org/XML/1998/namespace" fill="#000000" stroke="none" style="font-style:normal;font-variant:normal;font-weight:normal;font-stretch:normal;text-align:center;line-height:125%;letter-spacing:0px;word-spacing:0px;text-anchor:middle;font-family:OCRA;-inkscape-font-specification:OCRA" fill-opacity="1" id="text8757" font-size="0">
    <g  fill="#ffffff" fill-opacity="1" id="tspan8759" font-size="0">
     <text  x="7.2" y="18.36" id="tspan12480" font-size="0">A</text>
    </g>
   </g>
  </g>
  <g transform="matrix(1, 0, 0, 1, 14.364, 566.072)">
   <g  xml:space="preserve" xmlns:xml="http://www.w3.org/XML/1998/namespace" fill="#000000" stroke="none" style="font-style:normal;font-variant:normal;font-weight:normal;font-stretch:normal;text-align:center;line-height:125%;letter-spacing:0px;word-spacing:0px;text-anchor:middle;font-family:OCRA;-inkscape-font-specification:OCRA" fill-opacity="1" id="text8761" font-size="0">
    <g  fill="#ffffff" fill-opacity="1" id="tspan8763" font-size="0">
     <text  x="14.4" y="27.36" id="tspan12478" font-size="0">COM</text>
    </g>
   </g>
  </g>
  <g transform="matrix(1, 0, 0, 1, 14.364, 575.032)">
   <g  xml:space="preserve" xmlns:xml="http://www.w3.org/XML/1998/namespace" fill="#000000" stroke="none" style="font-style:normal;font-variant:normal;font-weight:normal;font-stretch:normal;text-align:center;line-height:125%;letter-spacing:0px;word-spacing:0px;text-anchor:middle;font-family:OCRA;-inkscape-font-specification:OCRA" fill-opacity="1" id="text8765" font-size="0">
    <g  fill="#ffffff" fill-opacity="1" id="tspan8767" font-size="0">
     <text  x="21.6" y="18.36" id="tspan12476" font-size="0">B</text>
    </g>
   </g>
  </g>
  <rect  width="56.88" x="0.36" y="538.036" stroke-opacity="1" fill="none" height="56.8769" stroke="#ffffff" style="stroke-miterlimit:4;stroke-dasharray:none" id="rect8769" stroke-width="0.504"/>
  <g  xml:space="preserve" xmlns:xml="http://www.w3.org/XML/1998/namespace" fill="#ffffff" stroke="none" style="font-style:normal;font-weight:normal;line-height:125%;letter-spacing:0px;word-spacing:0px;font-family:Sans" fill-opacity="1" id="text5022" font-size="0">
   <text  x="26.28" y="545.956" id="tspan5024">SW</text>
  </g>
  <path  stroke-opacity="1" fill="#ffffff" stroke="#ffffff" style="stroke-linecap:round;stroke-linejoin:miter;stroke-miterlimit:4;stroke-dasharray:none" fill-opacity="1" id="path5028" stroke-width="0.36" d="m25.92,544.876,-1.08,0"/>
  <path  stroke-opacity="1" fill="#ffffff" stroke="#ffffff" style="stroke-linecap:round;stroke-linejoin:miter;stroke-miterlimit:4;stroke-dasharray:none" fill-opacity="1" id="path5030" stroke-width="0.36" d="m32.76,544.876,-1.08,0"/>
 </g>
</g>
</g></svg>