  0
SECTION
  2
HEADER
  9
$ACADVER
  1
AC1014
  9
$HANDSEED
  5
FFFF
  9
$MEASUREMENT
 70
     1
  0
ENDSEC
  0
SECTION
  2
TABLES
  0
TABLE
  2
VPORT
  5
8
330
0
100
AcDbSymbolTable
 70
     4
  0
VPORT
  5
2E
330
8
100
AcDbSymbolTableRecord
100
AcDbViewportTableRecord
  2
*ACTIVE
 70
     0
 10
0.0
 20
0.0
 11
1.0
 21
1.0
 12
210.0
 22
148.5
 13
0.0
 23
0.0
 14
10.0
 24
10.0
 15
10.0
 25
10.0
 16
0.0
 26
0.0
 36
1.0
 17
0.0
 27
0.0
 37
0.0
 40
341.0
 41
1.24
 42
50.0
 43
0.0
 44
0.0
 50
0.0
 51
0.0
 71
     0
 72
   100
 73
     1
 74
     3
 75
     0
 76
     0
 77
     0
 78
     0
  0
ENDTAB
  0
TABLE
  2
LTYPE
  5
5
330
0
100
AcDbSymbolTable
 70
     1
  0
LTYPE
  5
14
330
5
100
AcDbSymbolTableRecord
100
AcDbLinetypeTableRecord
  2
BYBLOCK
 70
     0
  3

 72
    65
 73
     0
 40
0.0
  0
LTYPE
  5
15
330
5
100
AcDbSymbolTableRecord
100
AcDbLinetypeTableRecord
  2
BYLAYER
 70
     0
  3

 72
    65
 73
     0
 40
0.0
  0
LTYPE
  5
16
330
5
100
AcDbSymbolTableRecord
100
AcDbLinetypeTableRecord
  2
CONTINUOUS
 70
     0
  3
Solid line
 72
    65
 73
     0
 40
0.0
  0
ENDTAB
  0
TABLE
  2
LAYER
  5
2
100
AcDbSymbolTable
 70
2
  0
LAYER
  5
50
100
AcDbSymbolTableRecord
100
AcDbLayerTableRecord
  2
0
 70
0
  6
CONTINUOUS
  0
LAYER
  5
51
100
AcDbSymbolTableRecord
100
AcDbLayerTableRecord
  2
Your_Design
 70
0
  6
CONTINUOUS
  0
ENDTAB
  0
TABLE
  2
STYLE
  5
3
330
0
100
AcDbSymbolTable
 70
     1
  0
STYLE
  5
11
330
3
100
AcDbSymbolTableRecord
100
AcDbTextStyleTableRecord
  2
STANDARD
 70
     0
 40
0.0
 41
1.0
 50
0.0
 71
     0
 42
2.5
  3
txt
  4

  0
ENDTAB
  0
TABLE
  2
VIEW
  5
6
330
0
100
AcDbSymbolTable
 70
     0
  0
ENDTAB
  0
TABLE
  2
UCS
  5
7
330
0
100
AcDbSymbolTable
 70
     0
  0
ENDTAB
  0
TABLE
  2
APPID
  5
9
330
0
100
AcDbSymbolTable
 70
     2
  0
APPID
  5
12
330
9
100
AcDbSymbolTableRecord
100
AcDbRegAppTableRecord
  2
ACAD
 70
     0
  0
ENDTAB
  0
TABLE
  2
DIMSTYLE
  5
A
330
0
100
AcDbSymbolTable
 70
     1
  0
DIMSTYLE
105
27
330
A
100
AcDbSymbolTableRecord
100
AcDbDimStyleTableRecord
  2
ISO-25
 70
     0
  3

  4

  5

  6

  7

 40
1.0
 41
2.5
 42
0.625
 43
3.75
 44
1.25
 45
0.0
 46
0.0
 47
0.0
 48
0.0
140
2.5
141
2.5
142
0.0
143
0.03937007874016
144
1.0
145
0.0
146
1.0
147
0.625
 71
     0
 72
     0
 73
     0
 74
     0
 75
     0
 76
     0
 77
     1
 78
     8
170
     0
171
     3
172
     1
173
     0
174
     0
175
     0
176
     0
177
     0
178
     0
270
     2
271
     2
272
     2
273
     2
274
     3
340
11
275
     0
280
     0
281
     0
282
     0
283
     0
284
     8
285
     0
286
     0
287
     3
288
     0
  0
ENDTAB
  0
TABLE
  2
BLOCK_RECORD
  5
1
330
0
100
AcDbSymbolTable
 70
     1
  0
BLOCK_RECORD
  5
1F
330
1
100
AcDbSymbolTableRecord
100
AcDbBlockTableRecord
  2
*MODEL_SPACE
  0
BLOCK_RECORD
  5
1B
330
1
100
AcDbSymbolTableRecord
100
AcDbBlockTableRecord
  2
*PAPER_SPACE
  0
ENDTAB
  0
ENDSEC
  0
SECTION
  2
BLOCKS
  0
BLOCK
  5
20
330
1F
100
AcDbEntity
  8
0
100
AcDbBlockBegin
  2
*MODEL_SPACE
 70
     0
 10
0.0
 20
0.0
 30
0.0
  3
*MODEL_SPACE
  1

  0
ENDBLK
  5
21
330
1F
100
AcDbEntity
  8
0
100
AcDbBlockEnd
  0
BLOCK
  5
1C
330
1B
100
AcDbEntity
 67
     1
  8
0
100
AcDbBlockBegin
  2
*PAPER_SPACE
  1

  0
ENDBLK
  5
1D
330
1B
100
AcDbEntity
 67
     1
  8
0
100
AcDbBlockEnd
  0
ENDSEC
  0
SECTION
  2
ENTITIES
  0
SPLINE
  5
100
100
AcDbEntity
  8
Your_Design
 62
1
100
AcDbSpline
 70
8
 71
3
 72
8
 73
4
 74
0
 40
0
 40
0
 40
0
 40
0
 40
1
 40
1
 40
1
 40
1
 10
0.969026
 20
3.564265
 30
0.0
 10
0.961858
 20
3.572066
 30
0.0
 10
0.949129
 20
3.595081
 30
0.0
 10
0.940826
 20
3.615254
 30
0.0
  0
SPLINE
  5
101
100
AcDbEntity
  8
Your_Design
 62
1
100
AcDbSpline
 70
8
 71
3
 72
8
 73
4
 74
0
 40
0
 40
0
 40
0
 40
0
 40
1
 40
1
 40
1
 40
1
 10
0.940826
 20
3.615254
 30
0.0
 10
0.927096
 20
3.648610
 30
0.0
 10
0.911713
 20
3.708219
 30
0.0
 10
0.905542
 20
3.751978
 30
0.0
  0
SPLINE
  5
102
100
AcDbEntity
  8
Your_Design
 62
1
100
AcDbSpline
 70
8
 71
3
 72
8
 73
4
 74
0
 40
0
 40
0
 40
0
 40
0
 40
1
 40
1
 40
1
 40
1
 10
0.905542
 20
3.751978
 30
0.0
 10
0.905079
 20
3.755260
 30
0.0
 10
0.904273
 20
3.757682
 30
0.0
 10
0.903752
 20
3.757359
 30
0.0
  0
SPLINE
  5
103
100
AcDbEntity
  8
Your_Design
 62
1
100
AcDbSpline
 70
8
 71
3
 72
8
 73
4
 74
0
 40
0
 40
0
 40
0
 40
0
 40
1
 40
1
 40
1
 40
1
 10
0.903752
 20
3.757359
 30
0.0
 10
0.903230
 20
3.757037
 30
0.0
 10
0.901779
 20
3.749847
 30
0.0
 10
0.900526
 20
3.741382
 30
0.0
  0
SPLINE
  5
104
100
AcDbEntity
  8
Your_Design
 62
1
100
AcDbSpline
 70
8
 71
3
 72
8
 73
4
 74
0
 40
0
 40
0
 40
0
 40
0
 40
1
 40
1
 40
1
 40
1
 10
0.900526
 20
3.741382
 30
0.0
 10
0.897393
 20
3.720203
 30
0.0
 10
0.894252
 20
3.716075
 30
0.0
 10
0.887151
 20
3.723800
 30
0.0
  0
SPLINE
  5
105
100
AcDbEntity
  8
Your_Design
 62
1
100
AcDbSpline
 70
8
 71
3
 72
8
 73
4
 74
0
 40
0
 40
0
 40
0
 40
0
 40
1
 40
1
 40
1
 40
1
 10
0.887151
 20
3.723800
 30
0.0
 10
0.871157
 20
3.741199
 30
0.0
 10
0.858280
 20
3.794467
 30
0.0
 10
0.852299
 20
3.867968
 30
0.0
  0
SPLINE
  5
106
100
AcDbEntity
  8
Your_Design
 62
1
100
AcDbSpline
 70
8
 71
3
 72
8
 73
4
 74
0
 40
0
 40
0
 40
0
 40
0
 40
1
 40
1
 40
1
 40
1
 10
0.852299
 20
3.867968
 30
0.0
 10
0.851545
 20
3.877236
 30
0.0
 10
0.850712
 20
3.885035
 30
0.0
 10
0.850449
 20
3.885299
 30
0.0
  0
SPLINE
  5
107
100
AcDbEntity
  8
Your_Design
 62
1
100
AcDbSpline
 70
8
 71
3
 72
8
 73
4
 74
0
 40
0
 40
0
 40
0
 40
0
 40
1
 40
1
 40
1
 40
1
 10
0.850449
 20
3.885299
 30
0.0
 10
0.849821
 20
3.885926
 30
0.0
 10
0.848577
 20
3.881087
 30
0.0
 10
0.841664
 20
3.851115
 30
0.0
  0
SPLINE
  5
108
100
AcDbEntity
  8
Your_Design
 62
1
100
AcDbSpline
 70
8
 71
3
 72
8
 73
4
 74
0
 40
0
 40
0
 40
0
 40
0
 40
1
 40
1
 40
1
 40
1
 10
0.841664
 20
3.851115
 30
0.0
 10
0.833611
 20
3.816201
 30
0.0
 10
0.833848
 20
3.816973
 30
0.0
 10
0.830869
 20
3.816027
 30
0.0
  0
SPLINE
  5
109
100
AcDbEntity
  8
Your_Design
 62
1
100
AcDbSpline
 70
8
 71
3
 72
8
 73
4
 74
0
 40
0
 40
0
 40
0
 40
0
 40
1
 40
1
 40
1
 40
1
 10
0.830869
 20
3.816027
 30
0.0
 10
0.825487
 20
3.814319
 30
0.0
 10
0.824763
 20
3.816372
 30
0.0
 10
0.815396
 20
3.859874
 30
0.0
  0
SPLINE
  5
10a
100
AcDbEntity
  8
Your_Design
 62
1
100
AcDbSpline
 70
8
 71
3
 72
8
 73
4
 74
0
 40
0
 40
0
 40
0
 40
0
 40
1
 40
1
 40
1
 40
1
 10
0.815396
 20
3.859874
 30
0.0
 10
0.780655
 20
4.021213
 30
0.0
 10
0.758609
 20
4.173015
 30
0.0
 10
0.752248
 20
4.294686
 30
0.0
  0
SPLINE
  5
10b
100
AcDbEntity
  8
Your_Design
 62
1
100
AcDbSpline
 70
8
 71
3
 72
8
 73
4
 74
0
 40
0
 40
0
 40
0
 40
0
 40
1
 40
1
 40
1
 40
1
 10
0.752248
 20
4.294686
 30
0.0
 10
0.750627
 20
4.325697
 30
0.0
 10
0.750621
 20
4.389768
 30
0.0
 10
0.752239
 20
4.414180
 30
0.0
  0
SPLINE
  5
10c
100
AcDbEntity
  8
Your_Design
 62
1
100
AcDbSpline
 70
8
 71
3
 72
8
 73
4
 74
0
 40
0
 40
0
 40
0
 40
0
 40
1
 40
1
 40
1
 40
1
 10
0.752239
 20
4.414180
 30
0.0
 10
0.753605
 20
4.434817
 30
0.0
 10
0.757913
 20
4.471598
 30
0.0
 10
0.759814
 20
4.478857
 30
0.0
  0
SPLINE
  5
10d
100
AcDbEntity
  8
Your_Design
 62
1
100
AcDbSpline
 70
8
 71
3
 72
8
 73
4
 74
0
 40
0
 40
0
 40
0
 40
0
 40
1
 40
1
 40
1
 40
1
 10
0.759814
 20
4.478857
 30
0.0
 10
0.760523
 20
4.481565
 30
0.0
 10
0.761997
 20
4.483783
 30
0.0
 10
0.763379
 20
4.484222
 30
0.0
  0
SPLINE
  5
10e
100
AcDbEntity
  8
Your_Design
 62
1
100
AcDbSpline
 70
8
 71
3
 72
8
 73
4
 74
0
 40
0
 40
0
 40
0
 40
0
 40
1
 40
1
 40
1
 40
1
 10
0.763379
 20
4.484222
 30
0.0
 10
0.764904
 20
4.484705
 30
0.0
 10
0.773399
 20
4.481226
 30
0.0
 10
0.787438
 20
4.474367
 30
0.0
  0
SPLINE
  5
10f
100
AcDbEntity
  8
Your_Design
 62
1
100
AcDbSpline
 70
8
 71
3
 72
8
 73
4
 74
0
 40
0
 40
0
 40
0
 40
0
 40
1
 40
1
 40
1
 40
1
 10
0.787438
 20
4.474367
 30
0.0
 10
0.828653
 20
4.454230
 30
0.0
 10
0.870726
 20
4.441791
 30
0.0
 10
0.919877
 20
4.435211
 30
0.0
  0
SPLINE
  5
110
100
AcDbEntity
  8
Your_Design
 62
1
100
AcDbSpline
 70
8
 71
3
 72
8
 73
4
 74
0
 40
0
 40
0
 40
0
 40
0
 40
1
 40
1
 40
1
 40
1
 10
0.919877
 20
4.435211
 30
0.0
 10
0.944030
 20
4.431977
 30
0.0
 10
1.004794
 20
4.431998
 30
0.0
 10
1.028736
 20
4.435244
 30
0.0
  0
SPLINE
  5
111
100
AcDbEntity
  8
Your_Design
 62
1
100
AcDbSpline
 70
8
 71
3
 72
8
 73
4
 74
0
 40
0
 40
0
 40
0
 40
0
 40
1
 40
1
 40
1
 40
1
 10
1.028736
 20
4.435244
 30
0.0
 10
1.080249
 20
4.442237
 30
0.0
 10
1.128276
 20
4.456922
 30
0.0
 10
1.168777
 20
4.478066
 30
0.0
  0
SPLINE
  5
112
100
AcDbEntity
  8
Your_Design
 62
1
100
AcDbSpline
 70
8
 71
3
 72
8
 73
4
 74
0
 40
0
 40
0
 40
0
 40
0
 40
1
 40
1
 40
1
 40
1
 10
1.168777
 20
4.478066
 30
0.0
 10
1.175948
 20
4.481810
 30
0.0
 10
1.182551
 20
4.484873
 30
0.0
 10
1.183450
 20
4.484873
 30
0.0
  0
SPLINE
  5
113
100
AcDbEntity
  8
Your_Design
 62
1
100
AcDbSpline
 70
8
 71
3
 72
8
 73
4
 74
0
 40
0
 40
0
 40
0
 40
0
 40
1
 40
1
 40
1
 40
1
 10
1.183450
 20
4.484873
 30
0.0
 10
1.184349
 20
4.484873
 30
0.0
 10
1.185891
 20
4.483606
 30
0.0
 10
1.186877
 20
4.482057
 30
0.0
  0
SPLINE
  5
114
100
AcDbEntity
  8
Your_Design
 62
1
100
AcDbSpline
 70
8
 71
3
 72
8
 73
4
 74
0
 40
0
 40
0
 40
0
 40
0
 40
1
 40
1
 40
1
 40
1
 10
1.186877
 20
4.482057
 30
0.0
 10
1.188936
 20
4.478822
 30
0.0
 10
1.193034
 20
4.451284
 30
0.0
 10
1.195396
 20
4.424812
 30
0.0
  0
SPLINE
  5
115
100
AcDbEntity
  8
Your_Design
 62
1
100
AcDbSpline
 70
8
 71
3
 72
8
 73
4
 74
0
 40
0
 40
0
 40
0
 40
0
 40
1
 40
1
 40
1
 40
1
 10
1.195396
 20
4.424812
 30
0.0
 10
1.197510
 20
4.401116
 30
0.0
 10
1.197480
 20
4.311909
 30
0.0
 10
1.195340
 20
4.279667
 30
0.0
  0
SPLINE
  5
116
100
AcDbEntity
  8
Your_Design
 62
1
100
AcDbSpline
 70
8
 71
3
 72
8
 73
4
 74
0
 40
0
 40
0
 40
0
 40
0
 40
1
 40
1
 40
1
 40
1
 10
1.195340
 20
4.279667
 30
0.0
 10
1.189124
 20
4.185699
 30
0.0
 10
1.176080
 20
4.085742
 30
0.0
 10
1.155035
 20
3.970801
 30
0.0
  0
SPLINE
  5
117
100
AcDbEntity
  8
Your_Design
 62
1
100
AcDbSpline
 70
8
 71
3
 72
8
 73
4
 74
0
 40
0
 40
0
 40
0
 40
0
 40
1
 40
1
 40
1
 40
1
 10
1.155035
 20
3.970801
 30
0.0
 10
1.143483
 20
3.907711
 30
0.0
 10
1.124859
 20
3.820082
 30
0.0
 10
1.122363
 20
3.817074
 30
0.0
  0
SPLINE
  5
118
100
AcDbEntity
  8
Your_Design
 62
1
100
AcDbSpline
 70
8
 71
3
 72
8
 73
4
 74
0
 40
0
 40
0
 40
0
 40
0
 40
1
 40
1
 40
1
 40
1
 10
1.122363
 20
3.817074
 30
0.0
 10
1.120652
 20
3.815013
 30
0.0
 10
1.117003
 20
3.814982
 30
0.0
 10
1.115358
 20
3.817018
 30
0.0
  0
SPLINE
  5
119
100
AcDbEntity
  8
Your_Design
 62
1
100
AcDbSpline
 70
8
 71
3
 72
8
 73
4
 74
0
 40
0
 40
0
 40
0
 40
0
 40
1
 40
1
 40
1
 40
1
 10
1.115358
 20
3.817018
 30
0.0
 10
1.114661
 20
3.817878
 30
0.0
 10
1.110642
 20
3.833466
 30
0.0
 10
1.106426
 20
3.851656
 30
0.0
  0
SPLINE
  5
11a
100
AcDbEntity
  8
Your_Design
 62
1
100
AcDbSpline
 70
8
 71
3
 72
8
 73
4
 74
0
 40
0
 40
0
 40
0
 40
0
 40
1
 40
1
 40
1
 40
1
 10
1.106426
 20
3.851656
 30
0.0
 10
1.102210
 20
3.869847
 30
0.0
 10
1.098524
 20
3.884966
 30
0.0
 10
1.098235
 20
3.885255
 30
0.0
  0
SPLINE
  5
11b
100
AcDbEntity
  8
Your_Design
 62
1
100
AcDbSpline
 70
8
 71
3
 72
8
 73
4
 74
0
 40
0
 40
0
 40
0
 40
0
 40
1
 40
1
 40
1
 40
1
 10
1.098235
 20
3.885255
 30
0.0
 10
1.097451
 20
3.886039
 30
0.0
 10
1.096701
 20
3.879790
 30
0.0
 10
1.094514
 20
3.854243
 30
0.0
  0
SPLINE
  5
11c
100
AcDbEntity
  8
Your_Design
 62
1
100
AcDbSpline
 70
8
 71
3
 72
8
 73
4
 74
0
 40
0
 40
0
 40
0
 40
0
 40
1
 40
1
 40
1
 40
1
 10
1.094514
 20
3.854243
 30
0.0
 10
1.093424
 20
3.841511
 30
0.0
 10
1.091453
 20
3.823757
 30
0.0
 10
1.090133
 20
3.814789
 30
0.0
  0
SPLINE
  5
11d
100
AcDbEntity
  8
Your_Design
 62
1
100
AcDbSpline
 70
8
 71
3
 72
8
 73
4
 74
0
 40
0
 40
0
 40
0
 40
0
 40
1
 40
1
 40
1
 40
1
 10
1.090133
 20
3.814789
 30
0.0
 10
1.081569
 20
3.756586
 30
0.0
 10
1.063016
 20
3.711276
 30
0.0
 10
1.052184
 20
3.722108
 30
0.0
  0
SPLINE
  5
11e
100
AcDbEntity
  8
Your_Design
 62
1
100
AcDbSpline
 70
8
 71
3
 72
8
 73
4
 74
0
 40
0
 40
0
 40
0
 40
0
 40
1
 40
1
 40
1
 40
1
 10
1.052184
 20
3.722108
 30
0.0
 10
1.051192
 20
3.723100
 30
0.0
 10
1.049461
 20
3.730543
 30
0.0
 10
1.048183
 20
3.739313
 30
0.0
  0
SPLINE
  5
11f
100
AcDbEntity
  8
Your_Design
 62
1
100
AcDbSpline
 70
8
 71
3
 72
8
 73
4
 74
0
 40
0
 40
0
 40
0
 40
0
 40
1
 40
1
 40
1
 40
1
 10
1.048183
 20
3.739313
 30
0.0
 10
1.045621
 20
3.756900
 30
0.0
 10
1.044349
 20
3.760682
 30
0.0
 10
1.043209
 20
3.754106
 30
0.0
  0
SPLINE
  5
120
100
AcDbEntity
  8
Your_Design
 62
1
100
AcDbSpline
 70
8
 71
3
 72
8
 73
4
 74
0
 40
0
 40
0
 40
0
 40
0
 40
1
 40
1
 40
1
 40
1
 10
1.043209
 20
3.754106
 30
0.0
 10
1.029452
 20
3.674791
 30
0.0
 10
1.014361
 20
3.623407
 30
0.0
 10
0.994158
 20
3.587100
 30
0.0
  0
SPLINE
  5
121
100
AcDbEntity
  8
Your_Design
 62
1
100
AcDbSpline
 70
8
 71
3
 72
8
 73
4
 74
0
 40
0
 40
0
 40
0
 40
0
 40
1
 40
1
 40
1
 40
1
 10
0.994158
 20
3.587100
 30
0.0
 10
0.980597
 20
3.562730
 30
0.0
 10
0.975057
 20
3.557696
 30
0.0
 10
0.969021
 20
3.564265
 30
0.0
  0
SPLINE
  5
122
100
AcDbEntity
  8
Your_Design
 62
1
100
AcDbSpline
 70
8
 71
3
 72
8
 73
4
 74
0
 40
0
 40
0
 40
0
 40
0
 40
1
 40
1
 40
1
 40
1
 10
0.980188
 20
3.583677
 30
0.0
 10
1.004684
 20
3.621705
 30
0.0
 10
1.026265
 20
3.697203
 30
0.0
 10
1.036963
 20
3.782296
 30
0.0
  0
SPLINE
  5
123
100
AcDbEntity
  8
Your_Design
 62
1
100
AcDbSpline
 70
8
 71
3
 72
8
 73
4
 74
0
 40
0
 40
0
 40
0
 40
0
 40
1
 40
1
 40
1
 40
1
 10
1.036963
 20
3.782296
 30
0.0
 10
1.038088
 20
3.791243
 30
0.0
 10
1.039581
 20
3.799267
 30
0.0
 10
1.040281
 20
3.800127
 30
0.0
  0
SPLINE
  5
124
100
AcDbEntity
  8
Your_Design
 62
1
100
AcDbSpline
 70
8
 71
3
 72
8
 73
4
 74
0
 40
0
 40
0
 40
0
 40
0
 40
1
 40
1
 40
1
 40
1
 10
1.040281
 20
3.800127
 30
0.0
 10
1.041959
 20
3.802189
 30
0.0
 10
1.045591
 20
3.802119
 30
0.0
 10
1.047357
 20
3.799991
 30
0.0
  0
SPLINE
  5
125
100
AcDbEntity
  8
Your_Design
 62
1
100
AcDbSpline
 70
8
 71
3
 72
8
 73
4
 74
0
 40
0
 40
0
 40
0
 40
0
 40
1
 40
1
 40
1
 40
1
 10
1.047357
 20
3.799991
 30
0.0
 10
1.048132
 20
3.799057
 30
0.0
 10
1.050853
 20
3.785261
 30
0.0
 10
1.053402
 20
3.769335
 30
0.0
  0
SPLINE
  5
126
100
AcDbEntity
  8
Your_Design
 62
1
100
AcDbSpline
 70
8
 71
3
 72
8
 73
4
 74
0
 40
0
 40
0
 40
0
 40
0
 40
1
 40
1
 40
1
 40
1
 10
1.053402
 20
3.769335
 30
0.0
 10
1.055951
 20
3.753410
 30
0.0
 10
1.058467
 20
3.740379
 30
0.0
 10
1.058994
 20
3.740379
 30
0.0
  0
SPLINE
  5
127
100
AcDbEntity
  8
Your_Design
 62
1
100
AcDbSpline
 70
8
 71
3
 72
8
 73
4
 74
0
 40
0
 40
0
 40
0
 40
0
 40
1
 40
1
 40
1
 40
1
 10
1.058994
 20
3.740379
 30
0.0
 10
1.060457
 20
3.740379
 30
0.0
 10
1.063080
 20
3.746106
 30
0.0
 10
1.067392
 20
3.758717
 30
0.0
  0
SPLINE
  5
128
100
AcDbEntity
  8
Your_Design
 62
1
100
AcDbSpline
 70
8
 71
3
 72
8
 73
4
 74
0
 40
0
 40
0
 40
0
 40
0
 40
1
 40
1
 40
1
 40
1
 10
1.067392
 20
3.758717
 30
0.0
 10
1.077739
 20
3.788976
 30
0.0
 10
1.084386
 20
3.834896
 30
0.0
 10
1.087559
 20
3.898038
 30
0.0
  0
SPLINE
  5
129
100
AcDbEntity
  8
Your_Design
 62
1
100
AcDbSpline
 70
8
 71
3
 72
8
 73
4
 74
0
 40
0
 40
0
 40
0
 40
0
 40
1
 40
1
 40
1
 40
1
 10
1.087559
 20
3.898038
 30
0.0
 10
1.088337
 20
3.913522
 30
0.0
 10
1.089484
 20
3.927458
 30
0.0
 10
1.090109
 20
3.929006
 30
0.0
  0
SPLINE
  5
12a
100
AcDbEntity
  8
Your_Design
 62
1
100
AcDbSpline
 70
8
 71
3
 72
8
 73
4
 74
0
 40
0
 40
0
 40
0
 40
0
 40
1
 40
1
 40
1
 40
1
 10
1.090109
 20
3.929006
 30
0.0
 10
1.091359
 20
3.932106
 30
0.0
 10
1.095233
 20
3.932741
 30
0.0
 10
1.097348
 20
3.930193
 30
0.0
  0
SPLINE
  5
12b
100
AcDbEntity
  8
Your_Design
 62
1
100
AcDbSpline
 70
8
 71
3
 72
8
 73
4
 74
0
 40
0
 40
0
 40
0
 40
0
 40
1
 40
1
 40
1
 40
1
 10
1.097348
 20
3.930193
 30
0.0
 10
1.098092
 20
3.929297
 30
0.0
 10
1.103063
 20
3.909871
 30
0.0
 10
1.108395
 20
3.887024
 30
0.0
  0
SPLINE
  5
12c
100
AcDbEntity
  8
Your_Design
 62
1
100
AcDbSpline
 70
8
 71
3
 72
8
 73
4
 74
0
 40
0
 40
0
 40
0
 40
0
 40
1
 40
1
 40
1
 40
1
 10
1.108395
 20
3.887024
 30
0.0
 10
1.113728
 20
3.864178
 30
0.0
 10
1.118460
 20
3.845485
 30
0.0
 10
1.118911
 20
3.845485
 30
0.0
  0
SPLINE
  5
12d
100
AcDbEntity
  8
Your_Design
 62
1
100
AcDbSpline
 70
8
 71
3
 72
8
 73
4
 74
0
 40
0
 40
0
 40
0
 40
0
 40
1
 40
1
 40
1
 40
1
 10
1.118911
 20
3.845485
 30
0.0
 10
1.119362
 20
3.845485
 30
0.0
 10
1.120351
 20
3.848441
 30
0.0
 10
1.121108
 20
3.852054
 30
0.0
  0
SPLINE
  5
12e
100
AcDbEntity
  8
Your_Design
 62
1
100
AcDbSpline
 70
8
 71
3
 72
8
 73
4
 74
0
 40
0
 40
0
 40
0
 40
0
 40
1
 40
1
 40
1
 40
1
 10
1.121108
 20
3.852054
 30
0.0
 10
1.121864
 20
3.855667
 30
0.0
 10
1.125886
 20
3.874794
 30
0.0
 10
1.130042
 20
3.894559
 30
0.0
  0
SPLINE
  5
12f
100
AcDbEntity
  8
Your_Design
 62
1
100
AcDbSpline
 70
8
 71
3
 72
8
 73
4
 74
0
 40
0
 40
0
 40
0
 40
0
 40
1
 40
1
 40
1
 40
1
 10
1.130042
 20
3.894559
 30
0.0
 10
1.157834
 20
4.026698
 30
0.0
 10
1.177604
 20
4.164346
 30
0.0
 10
1.185356
 20
4.279671
 30
0.0
  0
SPLINE
  5
130
100
AcDbEntity
  8
Your_Design
 62
1
100
AcDbSpline
 70
8
 71
3
 72
8
 73
4
 74
0
 40
0
 40
0
 40
0
 40
0
 40
1
 40
1
 40
1
 40
1
 10
1.185356
 20
4.279671
 30
0.0
 10
1.187464
 20
4.311037
 30
0.0
 10
1.187478
 20
4.401502
 30
0.0
 10
1.185378
 20
4.424816
 30
0.0
  0
SPLINE
  5
131
100
AcDbEntity
  8
Your_Design
 62
1
100
AcDbSpline
 70
8
 71
3
 72
8
 73
4
 74
0
 40
0
 40
0
 40
0
 40
0
 40
1
 40
1
 40
1
 40
1
 10
1.185378
 20
4.424816
 30
0.0
 10
1.183550
 20
4.445110
 30
0.0
 10
1.180466
 20
4.468697
 30
0.0
 10
1.179516
 20
4.469647
 30
0.0
  0
SPLINE
  5
132
100
AcDbEntity
  8
Your_Design
 62
1
100
AcDbSpline
 70
8
 71
3
 72
8
 73
4
 74
0
 40
0
 40
0
 40
0
 40
0
 40
1
 40
1
 40
1
 40
1
 10
1.179516
 20
4.469647
 30
0.0
 10
1.179174
 20
4.469989
 30
0.0
 10
1.172276
 20
4.467126
 30
0.0
 10
1.164187
 20
4.463284
 30
0.0
  0
SPLINE
  5
133
100
AcDbEntity
  8
Your_Design
 62
1
100
AcDbSpline
 70
8
 71
3
 72
8
 73
4
 74
0
 40
0
 40
0
 40
0
 40
0
 40
1
 40
1
 40
1
 40
1
 10
1.164187
 20
4.463284
 30
0.0
 10
1.088960
 20
4.427548
 30
0.0
 10
1.007855
 20
4.413917
 30
0.0
 10
0.924880
 20
4.423065
 30
0.0
  0
SPLINE
  5
134
100
AcDbEntity
  8
Your_Design
 62
1
100
AcDbSpline
 70
8
 71
3
 72
8
 73
4
 74
0
 40
0
 40
0
 40
0
 40
0
 40
1
 40
1
 40
1
 40
1
 10
0.924880
 20
4.423065
 30
0.0
 10
0.875069
 20
4.428557
 30
0.0
 10
0.820619
 20
4.444597
 30
0.0
 10
0.777496
 20
4.466483
 30
0.0
  0
SPLINE
  5
135
100
AcDbEntity
  8
Your_Design
 62
1
100
AcDbSpline
 70
8
 71
3
 72
8
 73
4
 74
0
 40
0
 40
0
 40
0
 40
0
 40
1
 40
1
 40
1
 40
1
 10
0.777496
 20
4.466483
 30
0.0
 10
0.771256
 20
4.469651
 30
0.0
 10
0.769413
 20
4.470130
 30
0.0
 10
0.768591
 20
4.468801
 30
0.0
  0
SPLINE
  5
136
100
AcDbEntity
  8
Your_Design
 62
1
100
AcDbSpline
 70
8
 71
3
 72
8
 73
4
 74
0
 40
0
 40
0
 40
0
 40
0
 40
1
 40
1
 40
1
 40
1
 10
0.768591
 20
4.468801
 30
0.0
 10
0.767233
 20
4.466603
 30
0.0
 10
0.763755
 20
4.436453
 30
0.0
 10
0.762220
 20
4.413555
 30
0.0
  0
SPLINE
  5
137
100
AcDbEntity
  8
Your_Design
 62
1
100
AcDbSpline
 70
8
 71
3
 72
8
 73
4
 74
0
 40
0
 40
0
 40
0
 40
0
 40
1
 40
1
 40
1
 40
1
 10
0.762220
 20
4.413555
 30
0.0
 10
0.760629
 20
4.389833
 30
0.0
 10
0.760645
 20
4.325556
 30
0.0
 10
0.762251
 20
4.294686
 30
0.0
  0
SPLINE
  5
138
100
AcDbEntity
  8
Your_Design
 62
1
100
AcDbSpline
 70
8
 71
3
 72
8
 73
4
 74
0
 40
0
 40
0
 40
0
 40
0
 40
1
 40
1
 40
1
 40
1
 10
0.762251
 20
4.294686
 30
0.0
 10
0.768386
 20
4.176710
 30
0.0
 10
0.791835
 20
4.013970
 30
0.0
 10
0.823626
 20
3.868734
 30
0.0
  0
SPLINE
  5
139
100
AcDbEntity
  8
Your_Design
 62
1
100
AcDbSpline
 70
8
 71
3
 72
8
 73
4
 74
0
 40
0
 40
0
 40
0
 40
0
 40
1
 40
1
 40
1
 40
1
 10
0.823626
 20
3.868734
 30
0.0
 10
0.826325
 20
3.856402
 30
0.0
 10
0.828533
 20
3.846014
 30
0.0
 10
0.828533
 20
3.845649
 30
0.0
  0
SPLINE
  5
13a
100
AcDbEntity
  8
Your_Design
 62
1
100
AcDbSpline
 70
8
 71
3
 72
8
 73
4
 74
0
 40
0
 40
0
 40
0
 40
0
 40
1
 40
1
 40
1
 40
1
 10
0.828533
 20
3.845649
 30
0.0
 10
0.828533
 20
3.845283
 30
0.0
 10
0.829028
 20
3.845520
 30
0.0
 10
0.829633
 20
3.846173
 30
0.0
  0
SPLINE
  5
13b
100
AcDbEntity
  8
Your_Design
 62
1
100
AcDbSpline
 70
8
 71
3
 72
8
 73
4
 74
0
 40
0
 40
0
 40
0
 40
0
 40
1
 40
1
 40
1
 40
1
 10
0.829633
 20
3.846173
 30
0.0
 10
0.830238
 20
3.846826
 30
0.0
 10
0.834806
 20
3.865098
 30
0.0
 10
0.839783
 20
3.886776
 30
0.0
  0
SPLINE
  5
13c
100
AcDbEntity
  8
Your_Design
 62
1
100
AcDbSpline
 70
8
 71
3
 72
8
 73
4
 74
0
 40
0
 40
0
 40
0
 40
0
 40
1
 40
1
 40
1
 40
1
 10
0.839783
 20
3.886776
 30
0.0
 10
0.844761
 20
3.908454
 30
0.0
 10
0.849628
 20
3.927458
 30
0.0
 10
0.850600
 20
3.929006
 30
0.0
  0
SPLINE
  5
13d
100
AcDbEntity
  8
Your_Design
 62
1
100
AcDbSpline
 70
8
 71
3
 72
8
 73
4
 74
0
 40
0
 40
0
 40
0
 40
0
 40
1
 40
1
 40
1
 40
1
 10
0.850600
 20
3.929006
 30
0.0
 10
0.852704
 20
3.932362
 30
0.0
 10
0.856774
 20
3.932690
 30
0.0
 10
0.858358
 20
3.929632
 30
0.0
  0
SPLINE
  5
13e
100
AcDbEntity
  8
Your_Design
 62
1
100
AcDbSpline
 70
8
 71
3
 72
8
 73
4
 74
0
 40
0
 40
0
 40
0
 40
0
 40
1
 40
1
 40
1
 40
1
 10
0.858358
 20
3.929632
 30
0.0
 10
0.858982
 20
3.928427
 30
0.0
 10
0.859872
 20
3.917307
 30
0.0
 10
0.860338
 20
3.904919
 30
0.0
  0
SPLINE
  5
13f
100
AcDbEntity
  8
Your_Design
 62
1
100
AcDbSpline
 70
8
 71
3
 72
8
 73
4
 74
0
 40
0
 40
0
 40
0
 40
0
 40
1
 40
1
 40
1
 40
1
 10
0.860338
 20
3.904919
 30
0.0
 10
0.862427
 20
3.849307
 30
0.0
 10
0.868891
 20
3.799362
 30
0.0
 10
0.878152
 20
3.767281
 30
0.0
  0
SPLINE
  5
140
100
AcDbEntity
  8
Your_Design
 62
1
100
AcDbSpline
 70
8
 71
3
 72
8
 73
4
 74
0
 40
0
 40
0
 40
0
 40
0
 40
1
 40
1
 40
1
 40
1
 10
0.878152
 20
3.767281
 30
0.0
 10
0.882168
 20
3.753370
 30
0.0
 10
0.888272
 20
3.739515
 30
0.0
 10
0.889690
 20
3.741091
 30
0.0
  0
SPLINE
  5
141
100
AcDbEntity
  8
Your_Design
 62
1
100
AcDbSpline
 70
8
 71
3
 72
8
 73
4
 74
0
 40
0
 40
0
 40
0
 40
0
 40
1
 40
1
 40
1
 40
1
 10
0.889690
 20
3.741091
 30
0.0
 10
0.890266
 20
3.741733
 30
0.0
 10
0.892596
 20
3.754362
 30
0.0
 10
0.894868
 20
3.769158
 30
0.0
  0
SPLINE
  5
142
100
AcDbEntity
  8
Your_Design
 62
1
100
AcDbSpline
 70
8
 71
3
 72
8
 73
4
 74
0
 40
0
 40
0
 40
0
 40
0
 40
1
 40
1
 40
1
 40
1
 10
0.894868
 20
3.769158
 30
0.0
 10
0.897139
 20
3.783954
 30
0.0
 10
0.899459
 20
3.797327
 30
0.0
 10
0.900021
 20
3.798875
 30
0.0
  0
SPLINE
  5
143
100
AcDbEntity
  8
Your_Design
 62
1
100
AcDbSpline
 70
8
 71
3
 72
8
 73
4
 74
0
 40
0
 40
0
 40
0
 40
0
 40
1
 40
1
 40
1
 40
1
 10
0.900021
 20
3.798875
 30
0.0
 10
0.901273
 20
3.802320
 30
0.0
 10
0.906739
 20
3.802728
 30
0.0
 10
0.908405
 20
3.799501
 30
0.0
  0
SPLINE
  5
144
100
AcDbEntity
  8
Your_Design
 62
1
100
AcDbSpline
 70
8
 71
3
 72
8
 73
4
 74
0
 40
0
 40
0
 40
0
 40
0
 40
1
 40
1
 40
1
 40
1
 10
0.908405
 20
3.799501
 30
0.0
 10
0.909027
 20
3.798297
 30
0.0
 10
0.909917
 20
3.793651
 30
0.0
 10
0.910384
 20
3.789178
 30
0.0
  0
SPLINE
  5
145
100
AcDbEntity
  8
Your_Design
 62
1
100
AcDbSpline
 70
8
 71
3
 72
8
 73
4
 74
0
 40
0
 40
0
 40
0
 40
0
 40
1
 40
1
 40
1
 40
1
 10
0.910384
 20
3.789178
 30
0.0
 10
0.911881
 20
3.774809
 30
0.0
 10
0.918437
 20
3.734063
 30
0.0
 10
0.922362
 20
3.714728
 30
0.0
  0
SPLINE
  5
146
100
AcDbEntity
  8
Your_Design
 62
1
100
AcDbSpline
 70
8
 71
3
 72
8
 73
4
 74
0
 40
0
 40
0
 40
0
 40
0
 40
1
 40
1
 40
1
 40
1
 10
0.922362
 20
3.714728
 30
0.0
 10
0.933516
 20
3.659781
 30
0.0
 10
0.950019
 20
3.612302
 30
0.0
 10
0.967689
 20
3.584324
 30
0.0
  0
SPLINE
  5
147
100
AcDbEntity
  8
Your_Design
 62
1
100
AcDbSpline
 70
8
 71
3
 72
8
 73
4
 74
0
 40
0
 40
0
 40
0
 40
0
 40
1
 40
1
 40
1
 40
1
 10
0.967689
 20
3.584324
 30
0.0
 10
0.970419
 20
3.580001
 30
0.0
 10
0.973306
 20
3.576470
 30
0.0
 10
0.974104
 20
3.576476
 30
0.0
  0
SPLINE
  5
148
100
AcDbEntity
  8
Your_Design
 62
1
100
AcDbSpline
 70
8
 71
3
 72
8
 73
4
 74
0
 40
0
 40
0
 40
0
 40
0
 40
1
 40
1
 40
1
 40
1
 10
0.974104
 20
3.576476
 30
0.0
 10
0.974903
 20
3.576476
 30
0.0
 10
0.977640
 20
3.579722
 30
0.0
 10
0.980188
 20
3.583677
 30
0.0
  0
LWPOLYLINE
  5
149
100
AcDbEntity
  8
Your_Design
 62
1
100
AcDbPolyline
 90
2
 70
1
 10
0.969021
 20
3.564265
 30
0.0
 10
0.969026
 20
3.564265
 30
0.0
  0
SPLINE
  5
14a
100
AcDbEntity
  8
Your_Design
 62
1
100
AcDbSpline
 70
8
 71
3
 72
8
 73
4
 74
0
 40
0
 40
0
 40
0
 40
0
 40
1
 40
1
 40
1
 40
1
 10
0.756102
 20
4.619411
 30
0.0
 10
0.745181
 20
4.622471
 30
0.0
 10
0.734629
 20
4.628772
 30
0.0
 10
0.725787
 20
4.637511
 30
0.0
  0
SPLINE
  5
14b
100
AcDbEntity
  8
Your_Design
 62
1
100
AcDbSpline
 70
8
 71
3
 72
8
 73
4
 74
0
 40
0
 40
0
 40
0
 40
0
 40
1
 40
1
 40
1
 40
1
 10
0.725787
 20
4.637511
 30
0.0
 10
0.698173
 20
4.664804
 30
0.0
 10
0.698768
 20
4.708624
 30
0.0
 10
0.727114
 20
4.735216
 30
0.0
  0
SPLINE
  5
14c
100
AcDbEntity
  8
Your_Design
 62
1
100
AcDbSpline
 70
8
 71
3
 72
8
 73
4
 74
0
 40
0
 40
0
 40
0
 40
0
 40
1
 40
1
 40
1
 40
1
 10
0.727114
 20
4.735216
 30
0.0
 10
0.753847
 20
4.760296
 30
0.0
 10
0.794337
 20
4.760061
 30
0.0
 10
0.820776
 20
4.734673
 30
0.0
  0
SPLINE
  5
14d
100
AcDbEntity
  8
Your_Design
 62
1
100
AcDbSpline
 70
8
 71
3
 72
8
 73
4
 74
0
 40
0
 40
0
 40
0
 40
0
 40
1
 40
1
 40
1
 40
1
 10
0.820776
 20
4.734673
 30
0.0
 10
0.844112
 20
4.712264
 30
0.0
 10
0.848572
 20
4.678158
 30
0.0
 10
0.831889
 20
4.649691
 30
0.0
  0
SPLINE
  5
14e
100
AcDbEntity
  8
Your_Design
 62
1
100
AcDbSpline
 70
8
 71
3
 72
8
 73
4
 74
0
 40
0
 40
0
 40
0
 40
0
 40
1
 40
1
 40
1
 40
1
 10
0.831889
 20
4.649691
 30
0.0
 10
0.824995
 20
4.637927
 30
0.0
 10
0.810189
 20
4.626027
 30
0.0
 10
0.796216
 20
4.621021
 30
0.0
  0
SPLINE
  5
14f
100
AcDbEntity
  8
Your_Design
 62
1
100
AcDbSpline
 70
8
 71
3
 72
8
 73
4
 74
0
 40
0
 40
0
 40
0
 40
0
 40
1
 40
1
 40
1
 40
1
 10
0.796216
 20
4.621021
 30
0.0
 10
0.786699
 20
4.617610
 30
0.0
 10
0.765555
 20
4.616762
 30
0.0
 10
0.756102
 20
4.619411
 30
0.0
  0
LWPOLYLINE
  5
150
100
AcDbEntity
  8
Your_Design
 62
1
100
AcDbPolyline
 90
2
 70
1
 10
0.980188
 20
3.583677
 30
0.0
 10
0.980188
 20
3.583677
 30
0.0
  0
SPLINE
  5
151
100
AcDbEntity
  8
Your_Design
 62
1
100
AcDbSpline
 70
8
 71
3
 72
8
 73
4
 74
0
 40
0
 40
0
 40
0
 40
0
 40
1
 40
1
 40
1
 40
1
 10
1.143002
 20
4.619419
 30
0.0
 10
1.124628
 20
4.624371
 30
0.0
 10
1.109500
 20
4.636119
 30
0.0
 10
1.100228
 20
4.652636
 30
0.0
  0
SPLINE
  5
152
100
AcDbEntity
  8
Your_Design
 62
1
100
AcDbSpline
 70
8
 71
3
 72
8
 73
4
 74
0
 40
0
 40
0
 40
0
 40
0
 40
1
 40
1
 40
1
 40
1
 10
1.100228
 20
4.652636
 30
0.0
 10
1.095552
 20
4.660966
 30
0.0
 10
1.091298
 20
4.676719
 30
0.0
 10
1.091298
 20
4.685703
 30
0.0
  0
SPLINE
  5
153
100
AcDbEntity
  8
Your_Design
 62
1
100
AcDbSpline
 70
8
 71
3
 72
8
 73
4
 74
0
 40
0
 40
0
 40
0
 40
0
 40
1
 40
1
 40
1
 40
1
 10
1.091298
 20
4.685703
 30
0.0
 10
1.091298
 20
4.694211
 30
0.0
 10
1.095374
 20
4.709898
 30
0.0
 10
1.099695
 20
4.718016
 30
0.0
  0
SPLINE
  5
154
100
AcDbEntity
  8
Your_Design
 62
1
100
AcDbSpline
 70
8
 71
3
 72
8
 73
4
 74
0
 40
0
 40
0
 40
0
 40
0
 40
1
 40
1
 40
1
 40
1
 10
1.099695
 20
4.718016
 30
0.0
 10
1.104421
 20
4.726894
 30
0.0
 10
1.119015
 20
4.741200
 30
0.0
 10
1.128326
 20
4.746082
 30
0.0
  0
SPLINE
  5
155
100
AcDbEntity
  8
Your_Design
 62
1
100
AcDbSpline
 70
8
 71
3
 72
8
 73
4
 74
0
 40
0
 40
0
 40
0
 40
0
 40
1
 40
1
 40
1
 40
1
 10
1.128326
 20
4.746082
 30
0.0
 10
1.154684
 20
4.759902
 30
0.0
 10
1.186387
 20
4.755101
 30
0.0
 10
1.207519
 20
4.734089
 30
0.0
  0
SPLINE
  5
156
100
AcDbEntity
  8
Your_Design
 62
1
100
AcDbSpline
 70
8
 71
3
 72
8
 73
4
 74
0
 40
0
 40
0
 40
0
 40
0
 40
1
 40
1
 40
1
 40
1
 10
1.207519
 20
4.734089
 30
0.0
 10
1.234988
 20
4.706776
 30
0.0
 10
1.235321
 20
4.665292
 30
0.0
 10
1.208290
 20
4.638106
 30
0.0
  0
SPLINE
  5
157
100
AcDbEntity
  8
Your_Design
 62
1
100
AcDbSpline
 70
8
 71
3
 72
8
 73
4
 74
0
 40
0
 40
0
 40
0
 40
0
 40
1
 40
1
 40
1
 40
1
 10
1.208290
 20
4.638106
 30
0.0
 10
1.194123
 20
4.623856
 30
0.0
 10
1.178859
 20
4.617433
 30
0.0
 10
1.159541
 20
4.617591
 30
0.0
  0
SPLINE
  5
158
100
AcDbEntity
  8
Your_Design
 62
1
100
AcDbSpline
 70
8
 71
3
 72
8
 73
4
 74
0
 40
0
 40
0
 40
0
 40
0
 40
1
 40
1
 40
1
 40
1
 10
1.159541
 20
4.617591
 30
0.0
 10
1.154008
 20
4.617636
 30
0.0
 10
1.146566
 20
4.618459
 30
0.0
 10
1.143002
 20
4.619420
 30
0.0
  0
LWPOLYLINE
  5
159
100
AcDbEntity
  8
Your_Design
 62
1
100
AcDbPolyline
 90
2
 70
1
 10
0.756102
 20
4.619411
 30
0.0
 10
0.756102
 20
4.619411
 30
0.0
  0
SPLINE
  5
15a
100
AcDbEntity
  8
Your_Design
 62
1
100
AcDbSpline
 70
8
 71
3
 72
8
 73
4
 74
0
 40
0
 40
0
 40
0
 40
0
 40
1
 40
1
 40
1
 40
1
 10
0.567737
 20
4.739596
 30
0.0
 10
0.565153
 20
4.742180
 30
0.0
 10
0.565149
 20
4.742155
 30
0.0
 10
0.569660
 20
4.752827
 30
0.0
  0
SPLINE
  5
15b
100
AcDbEntity
  8
Your_Design
 62
1
100
AcDbSpline
 70
8
 71
3
 72
8
 73
4
 74
0
 40
0
 40
0
 40
0
 40
0
 40
1
 40
1
 40
1
 40
1
 10
0.569660
 20
4.752827
 30
0.0
 10
0.575116
 20
4.765737
 30
0.0
 10
0.584157
 20
4.780254
 30
0.0
 10
0.594416
 20
4.792577
 30
0.0
  0
SPLINE
  5
15c
100
AcDbEntity
  8
Your_Design
 62
1
100
AcDbSpline
 70
8
 71
3
 72
8
 73
4
 74
0
 40
0
 40
0
 40
0
 40
0
 40
1
 40
1
 40
1
 40
1
 10
0.594416
 20
4.792577
 30
0.0
 10
0.602365
 20
4.802126
 30
0.0
 10
0.603252
 20
4.803754
 30
0.0
 10
0.603967
 20
4.810095
 30
0.0
  0
SPLINE
  5
15d
100
AcDbEntity
  8
Your_Design
 62
1
100
AcDbSpline
 70
8
 71
3
 72
8
 73
4
 74
0
 40
0
 40
0
 40
0
 40
0
 40
1
 40
1
 40
1
 40
1
 10
0.603967
 20
4.810095
 30
0.0
 10
0.605692
 20
4.825409
 30
0.0
 10
0.611829
 20
4.837366
 30
0.0
 10
0.621314
 20
4.843892
 30
0.0
  0
SPLINE
  5
15e
100
AcDbEntity
  8
Your_Design
 62
1
100
AcDbSpline
 70
8
 71
3
 72
8
 73
4
 74
0
 40
0
 40
0
 40
0
 40
0
 40
1
 40
1
 40
1
 40
1
 10
0.621314
 20
4.843892
 30
0.0
 10
0.628139
 20
4.848588
 30
0.0
 10
0.643281
 20
4.852746
 30
0.0
 10
0.653558
 20
4.852746
 30
0.0
  0
SPLINE
  5
15f
100
AcDbEntity
  8
Your_Design
 62
1
100
AcDbSpline
 70
8
 71
3
 72
8
 73
4
 74
0
 40
0
 40
0
 40
0
 40
0
 40
1
 40
1
 40
1
 40
1
 10
0.653558
 20
4.852746
 30
0.0
 10
0.657577
 20
4.852746
 30
0.0
 10
0.660844
 20
4.853168
 30
0.0
 10
0.660818
 20
4.853684
 30
0.0
  0
SPLINE
  5
160
100
AcDbEntity
  8
Your_Design
 62
1
100
AcDbSpline
 70
8
 71
3
 72
8
 73
4
 74
0
 40
0
 40
0
 40
0
 40
0
 40
1
 40
1
 40
1
 40
1
 10
0.660818
 20
4.853684
 30
0.0
 10
0.660793
 20
4.854200
 30
0.0
 10
0.658540
 20
4.856166
 30
0.0
 10
0.655813
 20
4.858052
 30
0.0
  0
SPLINE
  5
161
100
AcDbEntity
  8
Your_Design
 62
1
100
AcDbSpline
 70
8
 71
3
 72
8
 73
4
 74
0
 40
0
 40
0
 40
0
 40
0
 40
1
 40
1
 40
1
 40
1
 10
0.655813
 20
4.858052
 30
0.0
 10
0.650840
 20
4.861492
 30
0.0
 10
0.649573
 20
4.865051
 30
0.0
 10
0.651974
 20
4.868840
 30
0.0
  0
SPLINE
  5
162
100
AcDbEntity
  8
Your_Design
 62
1
100
AcDbSpline
 70
8
 71
3
 72
8
 73
4
 74
0
 40
0
 40
0
 40
0
 40
0
 40
1
 40
1
 40
1
 40
1
 10
0.651974
 20
4.868840
 30
0.0
 10
0.653800
 20
4.871722
 30
0.0
 10
0.662922
 20
4.872856
 30
0.0
 10
0.690270
 20
4.873603
 30
0.0
  0
SPLINE
  5
163
100
AcDbEntity
  8
Your_Design
 62
1
100
AcDbSpline
 70
8
 71
3
 72
8
 73
4
 74
0
 40
0
 40
0
 40
0
 40
0
 40
1
 40
1
 40
1
 40
1
 10
0.690270
 20
4.873603
 30
0.0
 10
0.711154
 20
4.874173
 30
0.0
 10
0.719440
 20
4.873894
 30
0.0
 10
0.730647
 20
4.872245
 30
0.0
  0
SPLINE
  5
164
100
AcDbEntity
  8
Your_Design
 62
1
100
AcDbSpline
 70
8
 71
3
 72
8
 73
4
 74
0
 40
0
 40
0
 40
0
 40
0
 40
1
 40
1
 40
1
 40
1
 10
0.730647
 20
4.872245
 30
0.0
 10
0.743346
 20
4.870376
 30
0.0
 10
0.764360
 20
4.865639
 30
0.0
 10
0.770038
 20
4.863365
 30
0.0
  0
SPLINE
  5
165
100
AcDbEntity
  8
Your_Design
 62
1
100
AcDbSpline
 70
8
 71
3
 72
8
 73
4
 74
0
 40
0
 40
0
 40
0
 40
0
 40
1
 40
1
 40
1
 40
1
 10
0.770038
 20
4.863365
 30
0.0
 10
0.773877
 20
4.861828
 30
0.0
 10
0.772427
 20
4.864504
 30
0.0
 10
0.764720
 20
4.873187
 30
0.0
  0
SPLINE
  5
166
100
AcDbEntity
  8
Your_Design
 62
1
100
AcDbSpline
 70
8
 71
3
 72
8
 73
4
 74
0
 40
0
 40
0
 40
0
 40
0
 40
1
 40
1
 40
1
 40
1
 10
0.764720
 20
4.873187
 30
0.0
 10
0.753038
 20
4.886347
 30
0.0
 10
0.754605
 20
4.891234
 30
0.0
 10
0.770046
 20
4.889799
 30
0.0
  0
SPLINE
  5
167
100
AcDbEntity
  8
Your_Design
 62
1
100
AcDbSpline
 70
8
 71
3
 72
8
 73
4
 74
0
 40
0
 40
0
 40
0
 40
0
 40
1
 40
1
 40
1
 40
1
 10
0.770046
 20
4.889799
 30
0.0
 10
0.804174
 20
4.886627
 30
0.0
 10
0.841666
 20
4.873000
 30
0.0
 10
0.867647
 20
4.854324
 30
0.0
  0
SPLINE
  5
168
100
AcDbEntity
  8
Your_Design
 62
1
100
AcDbSpline
 70
8
 71
3
 72
8
 73
4
 74
0
 40
0
 40
0
 40
0
 40
0
 40
1
 40
1
 40
1
 40
1
 10
0.867647
 20
4.854324
 30
0.0
 10
0.897298
 20
4.833011
 30
0.0
 10
0.923835
 20
4.794926
 30
0.0
 10
0.930209
 20
4.764537
 30
0.0
  0
SPLINE
  5
169
100
AcDbEntity
  8
Your_Design
 62
1
100
AcDbSpline
 70
8
 71
3
 72
8
 73
4
 74
0
 40
0
 40
0
 40
0
 40
0
 40
1
 40
1
 40
1
 40
1
 10
0.930209
 20
4.764537
 30
0.0
 10
0.931402
 20
4.758852
 30
0.0
 10
0.931296
 20
4.757454
 30
0.0
 10
0.929462
 20
4.754655
 30
0.0
  0
SPLINE
  5
16a
100
AcDbEntity
  8
Your_Design
 62
1
100
AcDbSpline
 70
8
 71
3
 72
8
 73
4
 74
0
 40
0
 40
0
 40
0
 40
0
 40
1
 40
1
 40
1
 40
1
 10
0.929462
 20
4.754655
 30
0.0
 10
0.925886
 20
4.749197
 30
0.0
 10
0.923077
 20
4.750652
 30
0.0
 10
0.918053
 20
4.760561
 30
0.0
  0
SPLINE
  5
16b
100
AcDbEntity
  8
Your_Design
 62
1
100
AcDbSpline
 70
8
 71
3
 72
8
 73
4
 74
0
 40
0
 40
0
 40
0
 40
0
 40
1
 40
1
 40
1
 40
1
 10
0.918053
 20
4.760561
 30
0.0
 10
0.912028
 20
4.772444
 30
0.0
 10
0.891902
 20
4.785650
 30
0.0
 10
0.871110
 20
4.791363
 30
0.0
  0
SPLINE
  5
16c
100
AcDbEntity
  8
Your_Design
 62
1
100
AcDbSpline
 70
8
 71
3
 72
8
 73
4
 74
0
 40
0
 40
0
 40
0
 40
0
 40
1
 40
1
 40
1
 40
1
 10
0.871110
 20
4.791363
 30
0.0
 10
0.836342
 20
4.800916
 30
0.0
 10
0.783240
 20
4.800726
 30
0.0
 10
0.719387
 20
4.790819
 30
0.0
  0
SPLINE
  5
16d
100
AcDbEntity
  8
Your_Design
 62
1
100
AcDbSpline
 70
8
 71
3
 72
8
 73
4
 74
0
 40
0
 40
0
 40
0
 40
0
 40
1
 40
1
 40
1
 40
1
 10
0.719387
 20
4.790819
 30
0.0
 10
0.660593
 20
4.781696
 30
0.0
 10
0.609272
 20
4.764028
 30
0.0
 10
0.582325
 20
4.743632
 30
0.0
  0
SPLINE
  5
16e
100
AcDbEntity
  8
Your_Design
 62
1
100
AcDbSpline
 70
8
 71
3
 72
8
 73
4
 74
0
 40
0
 40
0
 40
0
 40
0
 40
1
 40
1
 40
1
 40
1
 10
0.582325
 20
4.743632
 30
0.0
 10
0.573907
 20
4.737260
 30
0.0
 10
0.570904
 20
4.736430
 30
0.0
 10
0.567737
 20
4.739597
 30
0.0
  0
LWPOLYLINE
  5
16f
100
AcDbEntity
  8
Your_Design
 62
1
100
AcDbPolyline
 90
2
 70
1
 10
1.143002
 20
4.619420
 30
0.0
 10
1.143002
 20
4.619419
 30
0.0
  0
SPLINE
  5
170
100
AcDbEntity
  8
Your_Design
 62
1
100
AcDbSpline
 70
8
 71
3
 72
8
 73
4
 74
0
 40
0
 40
0
 40
0
 40
0
 40
1
 40
1
 40
1
 40
1
 10
0.610816
 20
4.773356
 30
0.0
 10
0.645417
 20
4.788310
 30
0.0
 10
0.687414
 20
4.798881
 30
0.0
 10
0.740946
 20
4.806110
 30
0.0
  0
SPLINE
  5
171
100
AcDbEntity
  8
Your_Design
 62
1
100
AcDbSpline
 70
8
 71
3
 72
8
 73
4
 74
0
 40
0
 40
0
 40
0
 40
0
 40
1
 40
1
 40
1
 40
1
 10
0.740946
 20
4.806110
 30
0.0
 10
0.762701
 20
4.809048
 30
0.0
 10
0.769550
 20
4.809415
 30
0.0
 10
0.804135
 20
4.809491
 30
0.0
  0
SPLINE
  5
172
100
AcDbEntity
  8
Your_Design
 62
1
100
AcDbSpline
 70
8
 71
3
 72
8
 73
4
 74
0
 40
0
 40
0
 40
0
 40
0
 40
1
 40
1
 40
1
 40
1
 10
0.804135
 20
4.809491
 30
0.0
 10
0.839931
 20
4.809569
 30
0.0
 10
0.844034
 20
4.809353
 30
0.0
 10
0.857313
 20
4.806676
 30
0.0
  0
SPLINE
  5
173
100
AcDbEntity
  8
Your_Design
 62
1
100
AcDbSpline
 70
8
 71
3
 72
8
 73
4
 74
0
 40
0
 40
0
 40
0
 40
0
 40
1
 40
1
 40
1
 40
1
 10
0.857313
 20
4.806676
 30
0.0
 10
0.874577
 20
4.803194
 30
0.0
 10
0.886909
 20
4.799201
 30
0.0
 10
0.898645
 20
4.793290
 30
0.0
  0
SPLINE
  5
174
100
AcDbEntity
  8
Your_Design
 62
1
100
AcDbSpline
 70
8
 71
3
 72
8
 73
4
 74
0
 40
0
 40
0
 40
0
 40
0
 40
1
 40
1
 40
1
 40
1
 10
0.898645
 20
4.793290
 30
0.0
 10
0.903440
 20
4.790876
 30
0.0
 10
0.907363
 20
4.789363
 30
0.0
 10
0.907363
 20
4.789928
 30
0.0
  0
SPLINE
  5
175
100
AcDbEntity
  8
Your_Design
 62
1
100
AcDbSpline
 70
8
 71
3
 72
8
 73
4
 74
0
 40
0
 40
0
 40
0
 40
0
 40
1
 40
1
 40
1
 40
1
 10
0.907363
 20
4.789928
 30
0.0
 10
0.907363
 20
4.791800
 30
0.0
 10
0.898546
 20
4.805683
 30
0.0
 10
0.891507
 20
4.814896
 30
0.0
  0
SPLINE
  5
176
100
AcDbEntity
  8
Your_Design
 62
1
100
AcDbSpline
 70
8
 71
3
 72
8
 73
4
 74
0
 40
0
 40
0
 40
0
 40
0
 40
1
 40
1
 40
1
 40
1
 10
0.891507
 20
4.814896
 30
0.0
 10
0.873530
 20
4.838422
 30
0.0
 10
0.846216
 20
4.857342
 30
0.0
 10
0.814991
 20
4.867897
 30
0.0
  0
SPLINE
  5
177
100
AcDbEntity
  8
Your_Design
 62
1
100
AcDbSpline
 70
8
 71
3
 72
8
 73
4
 74
0
 40
0
 40
0
 40
0
 40
0
 40
1
 40
1
 40
1
 40
1
 10
0.814991
 20
4.867897
 30
0.0
 10
0.803728
 20
4.871705
 30
0.0
 10
0.781024
 20
4.876974
 30
0.0
 10
0.780055
 20
4.876006
 30
0.0
  0
SPLINE
  5
178
100
AcDbEntity
  8
Your_Design
 62
1
100
AcDbSpline
 70
8
 71
3
 72
8
 73
4
 74
0
 40
0
 40
0
 40
0
 40
0
 40
1
 40
1
 40
1
 40
1
 10
0.780055
 20
4.876006
 30
0.0
 10
0.779728
 20
4.875678
 30
0.0
 10
0.782286
 20
4.871184
 30
0.0
 10
0.785740
 20
4.866020
 30
0.0
  0
SPLINE
  5
179
100
AcDbEntity
  8
Your_Design
 62
1
100
AcDbSpline
 70
8
 71
3
 72
8
 73
4
 74
0
 40
0
 40
0
 40
0
 40
0
 40
1
 40
1
 40
1
 40
1
 10
0.785740
 20
4.866020
 30
0.0
 10
0.792855
 20
4.855382
 30
0.0
 10
0.794714
 20
4.849670
 30
0.0
 10
0.791958
 20
4.846914
 30
0.0
  0
SPLINE
  5
17a
100
AcDbEntity
  8
Your_Design
 62
1
100
AcDbSpline
 70
8
 71
3
 72
8
 73
4
 74
0
 40
0
 40
0
 40
0
 40
0
 40
1
 40
1
 40
1
 40
1
 10
0.791958
 20
4.846914
 30
0.0
 10
0.789134
 20
4.844090
 30
0.0
 10
0.786250
 20
4.844487
 30
0.0
 10
0.772863
 20
4.849543
 30
0.0
  0
SPLINE
  5
17b
100
AcDbEntity
  8
Your_Design
 62
1
100
AcDbSpline
 70
8
 71
3
 72
8
 73
4
 74
0
 40
0
 40
0
 40
0
 40
0
 40
1
 40
1
 40
1
 40
1
 10
0.772863
 20
4.849543
 30
0.0
 10
0.756306
 20
4.855796
 30
0.0
 10
0.737691
 20
4.859890
 30
0.0
 10
0.717798
 20
4.861653
 30
0.0
  0
SPLINE
  5
17c
100
AcDbEntity
  8
Your_Design
 62
1
100
AcDbSpline
 70
8
 71
3
 72
8
 73
4
 74
0
 40
0
 40
0
 40
0
 40
0
 40
1
 40
1
 40
1
 40
1
 10
0.717798
 20
4.861653
 30
0.0
 10
0.702370
 20
4.863020
 30
0.0
 10
0.675262
 20
4.862554
 30
0.0
 10
0.673601
 20
4.860893
 30
0.0
  0
SPLINE
  5
17d
100
AcDbEntity
  8
Your_Design
 62
1
100
AcDbSpline
 70
8
 71
3
 72
8
 73
4
 74
0
 40
0
 40
0
 40
0
 40
0
 40
1
 40
1
 40
1
 40
1
 10
0.673601
 20
4.860893
 30
0.0
 10
0.673176
 20
4.860468
 30
0.0
 10
0.674653
 20
4.858694
 30
0.0
 10
0.676882
 20
4.856949
 30
0.0
  0
SPLINE
  5
17e
100
AcDbEntity
  8
Your_Design
 62
1
100
AcDbSpline
 70
8
 71
3
 72
8
 73
4
 74
0
 40
0
 40
0
 40
0
 40
0
 40
1
 40
1
 40
1
 40
1
 10
0.676882
 20
4.856949
 30
0.0
 10
0.681043
 20
4.853692
 30
0.0
 10
0.684640
 20
4.848043
 30
0.0
 10
0.684640
 20
4.844764
 30
0.0
  0
SPLINE
  5
17f
100
AcDbEntity
  8
Your_Design
 62
1
100
AcDbSpline
 70
8
 71
3
 72
8
 73
4
 74
0
 40
0
 40
0
 40
0
 40
0
 40
1
 40
1
 40
1
 40
1
 10
0.684640
 20
4.844764
 30
0.0
 10
0.684640
 20
4.843746
 30
0.0
 10
0.683813
 20
4.842088
 30
0.0
 10
0.682802
 20
4.841077
 30
0.0
  0
SPLINE
  5
180
100
AcDbEntity
  8
Your_Design
 62
1
100
AcDbSpline
 70
8
 71
3
 72
8
 73
4
 74
0
 40
0
 40
0
 40
0
 40
0
 40
1
 40
1
 40
1
 40
1
 10
0.682802
 20
4.841077
 30
0.0
 10
0.681291
 20
4.839566
 30
0.0
 10
0.677784
 20
4.839359
 30
0.0
 10
0.663072
 20
4.839909
 30
0.0
  0
SPLINE
  5
181
100
AcDbEntity
  8
Your_Design
 62
1
100
AcDbSpline
 70
8
 71
3
 72
8
 73
4
 74
0
 40
0
 40
0
 40
0
 40
0
 40
1
 40
1
 40
1
 40
1
 10
0.663072
 20
4.839909
 30
0.0
 10
0.641673
 20
4.840710
 30
0.0
 10
0.633622
 20
4.838990
 30
0.0
 10
0.625832
 20
4.831953
 30
0.0
  0
SPLINE
  5
182
100
AcDbEntity
  8
Your_Design
 62
1
100
AcDbSpline
 70
8
 71
3
 72
8
 73
4
 74
0
 40
0
 40
0
 40
0
 40
0
 40
1
 40
1
 40
1
 40
1
 10
0.625832
 20
4.831953
 30
0.0
 10
0.620211
 20
4.826874
 30
0.0
 10
0.615835
 20
4.816692
 30
0.0
 10
0.615793
 20
4.808592
 30
0.0
  0
SPLINE
  5
183
100
AcDbEntity
  8
Your_Design
 62
1
100
AcDbSpline
 70
8
 71
3
 72
8
 73
4
 74
0
 40
0
 40
0
 40
0
 40
0
 40
1
 40
1
 40
1
 40
1
 10
0.615793
 20
4.808592
 30
0.0
 10
0.615755
 20
4.801525
 30
0.0
 10
0.612450
 20
4.794796
 30
0.0
 10
0.604708
 20
4.786029
 30
0.0
  0
SPLINE
  5
184
100
AcDbEntity
  8
Your_Design
 62
1
100
AcDbSpline
 70
8
 71
3
 72
8
 73
4
 74
0
 40
0
 40
0
 40
0
 40
0
 40
1
 40
1
 40
1
 40
1
 10
0.604708
 20
4.786029
 30
0.0
 10
0.596907
 20
4.777195
 30
0.0
 10
0.588133
 20
4.764484
 30
0.0
 10
0.589140
 20
4.763477
 30
0.0
  0
SPLINE
  5
185
100
AcDbEntity
  8
Your_Design
 62
1
100
AcDbSpline
 70
8
 71
3
 72
8
 73
4
 74
0
 40
0
 40
0
 40
0
 40
0
 40
1
 40
1
 40
1
 40
1
 10
0.589140
 20
4.763477
 30
0.0
 10
0.589544
 20
4.763073
 30
0.0
 10
0.592193
 20
4.764097
 30
0.0
 10
0.595027
 20
4.765751
 30
0.0
  0
SPLINE
  5
186
100
AcDbEntity
  8
Your_Design
 62
1
100
AcDbSpline
 70
8
 71
3
 72
8
 73
4
 74
0
 40
0
 40
0
 40
0
 40
0
 40
1
 40
1
 40
1
 40
1
 10
0.595027
 20
4.765751
 30
0.0
 10
0.597861
 20
4.767406
 30
0.0
 10
0.604966
 20
4.770828
 30
0.0
 10
0.610816
 20
4.773356
 30
0.0
  0
LWPOLYLINE
  5
187
100
AcDbEntity
  8
Your_Design
 62
1
100
AcDbPolyline
 90
2
 70
1
 10
0.567737
 20
4.739597
 30
0.0
 10
0.567737
 20
4.739596
 30
0.0
  0
SPLINE
  5
188
100
AcDbEntity
  8
Your_Design
 62
1
100
AcDbSpline
 70
8
 71
3
 72
8
 73
4
 74
0
 40
0
 40
0
 40
0
 40
0
 40
1
 40
1
 40
1
 40
1
 10
1.350413
 20
4.743263
 30
0.0
 10
1.342270
 20
4.749828
 30
0.0
 10
1.321877
 20
4.760577
 30
0.0
 10
1.304391
 20
4.767523
 30
0.0
  0
SPLINE
  5
189
100
AcDbEntity
  8
Your_Design
 62
1
100
AcDbSpline
 70
8
 71
3
 72
8
 73
4
 74
0
 40
0
 40
0
 40
0
 40
0
 40
1
 40
1
 40
1
 40
1
 10
1.304391
 20
4.767523
 30
0.0
 10
1.258627
 20
4.785703
 30
0.0
 10
1.187073
 20
4.798013
 30
0.0
 10
1.126333
 20
4.798156
 30
0.0
  0
SPLINE
  5
18a
100
AcDbEntity
  8
Your_Design
 62
1
100
AcDbSpline
 70
8
 71
3
 72
8
 73
4
 74
0
 40
0
 40
0
 40
0
 40
0
 40
1
 40
1
 40
1
 40
1
 10
1.126333
 20
4.798156
 30
0.0
 10
1.086289
 20
4.798245
 30
0.0
 10
1.063549
 20
4.794411
 30
0.0
 10
1.041629
 20
4.783855
 30
0.0
  0
SPLINE
  5
18b
100
AcDbEntity
  8
Your_Design
 62
1
100
AcDbSpline
 70
8
 71
3
 72
8
 73
4
 74
0
 40
0
 40
0
 40
0
 40
0
 40
1
 40
1
 40
1
 40
1
 10
1.041629
 20
4.783855
 30
0.0
 10
1.030136
 20
4.778320
 30
0.0
 10
1.018093
 20
4.768058
 30
0.0
 10
1.014292
 20
4.760560
 30
0.0
  0
SPLINE
  5
18c
100
AcDbEntity
  8
Your_Design
 62
1
100
AcDbSpline
 70
8
 71
3
 72
8
 73
4
 74
0
 40
0
 40
0
 40
0
 40
0
 40
1
 40
1
 40
1
 40
1
 10
1.014292
 20
4.760560
 30
0.0
 10
1.009268
 20
4.750651
 30
0.0
 10
1.006458
 20
4.749197
 30
0.0
 10
1.002883
 20
4.754654
 30
0.0
  0
SPLINE
  5
18d
100
AcDbEntity
  8
Your_Design
 62
1
100
AcDbSpline
 70
8
 71
3
 72
8
 73
4
 74
0
 40
0
 40
0
 40
0
 40
0
 40
1
 40
1
 40
1
 40
1
 10
1.002883
 20
4.754654
 30
0.0
 10
1.001048
 20
4.757453
 30
0.0
 10
1.000943
 20
4.758851
 30
0.0
 10
1.002135
 20
4.764537
 30
0.0
  0
SPLINE
  5
18e
100
AcDbEntity
  8
Your_Design
 62
1
100
AcDbSpline
 70
8
 71
3
 72
8
 73
4
 74
0
 40
0
 40
0
 40
0
 40
0
 40
1
 40
1
 40
1
 40
1
 10
1.002135
 20
4.764537
 30
0.0
 10
1.004098
 20
4.773897
 30
0.0
 10
1.010349
 20
4.789105
 30
0.0
 10
1.017046
 20
4.800818
 30
0.0
  0
SPLINE
  5
18f
100
AcDbEntity
  8
Your_Design
 62
1
100
AcDbSpline
 70
8
 71
3
 72
8
 73
4
 74
0
 40
0
 40
0
 40
0
 40
0
 40
1
 40
1
 40
1
 40
1
 10
1.017046
 20
4.800818
 30
0.0
 10
1.042765
 20
4.845798
 30
0.0
 10
1.085258
 20
4.875207
 30
0.0
 10
1.140743
 20
4.886426
 30
0.0
  0
SPLINE
  5
190
100
AcDbEntity
  8
Your_Design
 62
1
100
AcDbSpline
 70
8
 71
3
 72
8
 73
4
 74
0
 40
0
 40
0
 40
0
 40
0
 40
1
 40
1
 40
1
 40
1
 10
1.140743
 20
4.886426
 30
0.0
 10
1.176138
 20
4.893583
 30
0.0
 10
1.182812
 20
4.890296
 30
0.0
 10
1.167624
 20
4.873187
 30
0.0
  0
SPLINE
  5
191
100
AcDbEntity
  8
Your_Design
 62
1
100
AcDbSpline
 70
8
 71
3
 72
8
 73
4
 74
0
 40
0
 40
0
 40
0
 40
0
 40
1
 40
1
 40
1
 40
1
 10
1.167624
 20
4.873187
 30
0.0
 10
1.159917
 20
4.864504
 30
0.0
 10
1.158468
 20
4.861827
 30
0.0
 10
1.162306
 20
4.863365
 30
0.0
  0
SPLINE
  5
192
100
AcDbEntity
  8
Your_Design
 62
1
100
AcDbSpline
 70
8
 71
3
 72
8
 73
4
 74
0
 40
0
 40
0
 40
0
 40
0
 40
1
 40
1
 40
1
 40
1
 10
1.162306
 20
4.863365
 30
0.0
 10
1.167985
 20
4.865639
 30
0.0
 10
1.188998
 20
4.870376
 30
0.0
 10
1.201698
 20
4.872245
 30
0.0
  0
SPLINE
  5
193
100
AcDbEntity
  8
Your_Design
 62
1
100
AcDbSpline
 70
8
 71
3
 72
8
 73
4
 74
0
 40
0
 40
0
 40
0
 40
0
 40
1
 40
1
 40
1
 40
1
 10
1.201698
 20
4.872245
 30
0.0
 10
1.212904
 20
4.873894
 30
0.0
 10
1.221190
 20
4.874173
 30
0.0
 10
1.242074
 20
4.873602
 30
0.0
  0
SPLINE
  5
194
100
AcDbEntity
  8
Your_Design
 62
1
100
AcDbSpline
 70
8
 71
3
 72
8
 73
4
 74
0
 40
0
 40
0
 40
0
 40
0
 40
1
 40
1
 40
1
 40
1
 10
1.242074
 20
4.873602
 30
0.0
 10
1.269423
 20
4.872856
 30
0.0
 10
1.278545
 20
4.871721
 30
0.0
 10
1.280370
 20
4.868839
 30
0.0
  0
SPLINE
  5
195
100
AcDbEntity
  8
Your_Design
 62
1
100
AcDbSpline
 70
8
 71
3
 72
8
 73
4
 74
0
 40
0
 40
0
 40
0
 40
0
 40
1
 40
1
 40
1
 40
1
 10
1.280370
 20
4.868839
 30
0.0
 10
1.282771
 20
4.865051
 30
0.0
 10
1.281504
 20
4.861491
 30
0.0
 10
1.276531
 20
4.858052
 30
0.0
  0
SPLINE
  5
196
100
AcDbEntity
  8
Your_Design
 62
1
100
AcDbSpline
 70
8
 71
3
 72
8
 73
4
 74
0
 40
0
 40
0
 40
0
 40
0
 40
1
 40
1
 40
1
 40
1
 10
1.276531
 20
4.858052
 30
0.0
 10
1.273804
 20
4.856166
 30
0.0
 10
1.271552
 20
4.854200
 30
0.0
 10
1.271526
 20
4.853684
 30
0.0
  0
SPLINE
  5
197
100
AcDbEntity
  8
Your_Design
 62
1
100
AcDbSpline
 70
8
 71
3
 72
8
 73
4
 74
0
 40
0
 40
0
 40
0
 40
0
 40
1
 40
1
 40
1
 40
1
 10
1.271526
 20
4.853684
 30
0.0
 10
1.271504
 20
4.853168
 30
0.0
 10
1.274767
 20
4.852745
 30
0.0
 10
1.278786
 20
4.852745
 30
0.0
  0
SPLINE
  5
198
100
AcDbEntity
  8
Your_Design
 62
1
100
AcDbSpline
 70
8
 71
3
 72
8
 73
4
 74
0
 40
0
 40
0
 40
0
 40
0
 40
1
 40
1
 40
1
 40
1
 10
1.278786
 20
4.852745
 30
0.0
 10
1.289063
 20
4.852745
 30
0.0
 10
1.304206
 20
4.848587
 30
0.0
 10
1.311030
 20
4.843892
 30
0.0
  0
SPLINE
  5
199
100
AcDbEntity
  8
Your_Design
 62
1
100
AcDbSpline
 70
8
 71
3
 72
8
 73
4
 74
0
 40
0
 40
0
 40
0
 40
0
 40
1
 40
1
 40
1
 40
1
 10
1.311030
 20
4.843892
 30
0.0
 10
1.320515
 20
4.837366
 30
0.0
 10
1.326653
 20
4.825409
 30
0.0
 10
1.328378
 20
4.810094
 30
0.0
  0
SPLINE
  5
19a
100
AcDbEntity
  8
Your_Design
 62
1
100
AcDbSpline
 70
8
 71
3
 72
8
 73
4
 74
0
 40
0
 40
0
 40
0
 40
0
 40
1
 40
1
 40
1
 40
1
 10
1.328378
 20
4.810094
 30
0.0
 10
1.329092
 20
4.803754
 30
0.0
 10
1.329980
 20
4.802126
 30
0.0
 10
1.337929
 20
4.792577
 30
0.0
  0
SPLINE
  5
19b
100
AcDbEntity
  8
Your_Design
 62
1
100
AcDbSpline
 70
8
 71
3
 72
8
 73
4
 74
0
 40
0
 40
0
 40
0
 40
0
 40
1
 40
1
 40
1
 40
1
 10
1.337929
 20
4.792577
 30
0.0
 10
1.348187
 20
4.780254
 30
0.0
 10
1.357228
 20
4.765736
 30
0.0
 10
1.362684
 20
4.752826
 30
0.0
  0
SPLINE
  5
19c
100
AcDbEntity
  8
Your_Design
 62
1
100
AcDbSpline
 70
8
 71
3
 72
8
 73
4
 74
0
 40
0
 40
0
 40
0
 40
0
 40
1
 40
1
 40
1
 40
1
 10
1.362684
 20
4.752826
 30
0.0
 10
1.367195
 20
4.742154
 30
0.0
 10
1.367191
 20
4.742180
 30
0.0
 10
1.364608
 20
4.739596
 30
0.0
  0
SPLINE
  5
19d
100
AcDbEntity
  8
Your_Design
 62
1
100
AcDbSpline
 70
8
 71
3
 72
8
 73
4
 74
0
 40
0
 40
0
 40
0
 40
0
 40
1
 40
1
 40
1
 40
1
 10
1.364608
 20
4.739596
 30
0.0
 10
1.361455
 20
4.736443
 30
0.0
 10
1.357655
 20
4.737425
 30
0.0
 10
1.350413
 20
4.743263
 30
0.0
  0
LWPOLYLINE
  5
19e
100
AcDbEntity
  8
Your_Design
 62
1
100
AcDbPolyline
 90
2
 70
1
 10
0.610816
 20
4.773356
 30
0.0
 10
0.610816
 20
4.773356
 30
0.0
  0
SPLINE
  5
19f
100
AcDbEntity
  8
Your_Design
 62
1
100
AcDbSpline
 70
8
 71
3
 72
8
 73
4
 74
0
 40
0
 40
0
 40
0
 40
0
 40
1
 40
1
 40
1
 40
1
 10
1.339057
 20
4.771399
 30
0.0
 10
1.336312
 20
4.775440
 30
0.0
 10
1.331173
 20
4.782024
 30
0.0
 10
1.327636
 20
4.786029
 30
0.0
  0
SPLINE
  5
1a0
100
AcDbEntity
  8
Your_Design
 62
1
100
AcDbSpline
 70
8
 71
3
 72
8
 73
4
 74
0
 40
0
 40
0
 40
0
 40
0
 40
1
 40
1
 40
1
 40
1
 10
1.327636
 20
4.786029
 30
0.0
 10
1.319894
 20
4.794796
 30
0.0
 10
1.316588
 20
4.801525
 30
0.0
 10
1.316551
 20
4.808592
 30
0.0
  0
SPLINE
  5
1a1
100
AcDbEntity
  8
Your_Design
 62
1
100
AcDbSpline
 70
8
 71
3
 72
8
 73
4
 74
0
 40
0
 40
0
 40
0
 40
0
 40
1
 40
1
 40
1
 40
1
 10
1.316551
 20
4.808592
 30
0.0
 10
1.316507
 20
4.816692
 30
0.0
 10
1.312133
 20
4.826874
 30
0.0
 10
1.306512
 20
4.831953
 30
0.0
  0
SPLINE
  5
1a2
100
AcDbEntity
  8
Your_Design
 62
1
100
AcDbSpline
 70
8
 71
3
 72
8
 73
4
 74
0
 40
0
 40
0
 40
0
 40
0
 40
1
 40
1
 40
1
 40
1
 10
1.306512
 20
4.831953
 30
0.0
 10
1.298722
 20
4.838990
 30
0.0
 10
1.290671
 20
4.840710
 30
0.0
 10
1.269273
 20
4.839909
 30
0.0
  0
SPLINE
  5
1a3
100
AcDbEntity
  8
Your_Design
 62
1
100
AcDbSpline
 70
8
 71
3
 72
8
 73
4
 74
0
 40
0
 40
0
 40
0
 40
0
 40
1
 40
1
 40
1
 40
1
 10
1.269273
 20
4.839909
 30
0.0
 10
1.254560
 20
4.839358
 30
0.0
 10
1.251053
 20
4.839566
 30
0.0
 10
1.249542
 20
4.841077
 30
0.0
  0
SPLINE
  5
1a4
100
AcDbEntity
  8
Your_Design
 62
1
100
AcDbSpline
 70
8
 71
3
 72
8
 73
4
 74
0
 40
0
 40
0
 40
0
 40
0
 40
1
 40
1
 40
1
 40
1
 10
1.249542
 20
4.841077
 30
0.0
 10
1.248532
 20
4.842088
 30
0.0
 10
1.247705
 20
4.843747
 30
0.0
 10
1.247705
 20
4.844764
 30
0.0
  0
SPLINE
  5
1a5
100
AcDbEntity
  8
Your_Design
 62
1
100
AcDbSpline
 70
8
 71
3
 72
8
 73
4
 74
0
 40
0
 40
0
 40
0
 40
0
 40
1
 40
1
 40
1
 40
1
 10
1.247705
 20
4.844764
 30
0.0
 10
1.247705
 20
4.848043
 30
0.0
 10
1.251301
 20
4.853692
 30
0.0
 10
1.255462
 20
4.856949
 30
0.0
  0
SPLINE
  5
1a6
100
AcDbEntity
  8
Your_Design
 62
1
100
AcDbSpline
 70
8
 71
3
 72
8
 73
4
 74
0
 40
0
 40
0
 40
0
 40
0
 40
1
 40
1
 40
1
 40
1
 10
1.255462
 20
4.856949
 30
0.0
 10
1.257691
 20
4.858693
 30
0.0
 10
1.259168
 20
4.860468
 30
0.0
 10
1.258743
 20
4.860893
 30
0.0
  0
SPLINE
  5
1a7
100
AcDbEntity
  8
Your_Design
 62
1
100
AcDbSpline
 70
8
 71
3
 72
8
 73
4
 74
0
 40
0
 40
0
 40
0
 40
0
 40
1
 40
1
 40
1
 40
1
 10
1.258743
 20
4.860893
 30
0.0
 10
1.257082
 20
4.862554
 30
0.0
 10
1.229974
 20
4.863020
 30
0.0
 10
1.214546
 20
4.861653
 30
0.0
  0
SPLINE
  5
1a8
100
AcDbEntity
  8
Your_Design
 62
1
100
AcDbSpline
 70
8
 71
3
 72
8
 73
4
 74
0
 40
0
 40
0
 40
0
 40
0
 40
1
 40
1
 40
1
 40
1
 10
1.214546
 20
4.861653
 30
0.0
 10
1.194653
 20
4.859889
 30
0.0
 10
1.176038
 20
4.855796
 30
0.0
 10
1.159482
 20
4.849543
 30
0.0
  0
SPLINE
  5
1a9
100
AcDbEntity
  8
Your_Design
 62
1
100
AcDbSpline
 70
8
 71
3
 72
8
 73
4
 74
0
 40
0
 40
0
 40
0
 40
0
 40
1
 40
1
 40
1
 40
1
 10
1.159482
 20
4.849543
 30
0.0
 10
1.146094
 20
4.844487
 30
0.0
 10
1.143211
 20
4.844090
 30
0.0
 10
1.140387
 20
4.846914
 30
0.0
  0
SPLINE
  5
1aa
100
AcDbEntity
  8
Your_Design
 62
1
100
AcDbSpline
 70
8
 71
3
 72
8
 73
4
 74
0
 40
0
 40
0
 40
0
 40
0
 40
1
 40
1
 40
1
 40
1
 10
1.140387
 20
4.846914
 30
0.0
 10
1.137631
 20
4.849670
 30
0.0
 10
1.139490
 20
4.855382
 30
0.0
 10
1.146605
 20
4.866020
 30
0.0
  0
SPLINE
  5
1ab
100
AcDbEntity
  8
Your_Design
 62
1
100
AcDbSpline
 70
8
 71
3
 72
8
 73
4
 74
0
 40
0
 40
0
 40
0
 40
0
 40
1
 40
1
 40
1
 40
1
 10
1.146605
 20
4.866020
 30
0.0
 10
1.150059
 20
4.871184
 30
0.0
 10
1.152617
 20
4.875678
 30
0.0
 10
1.152289
 20
4.876005
 30
0.0
  0
SPLINE
  5
1ac
100
AcDbEntity
  8
Your_Design
 62
1
100
AcDbSpline
 70
8
 71
3
 72
8
 73
4
 74
0
 40
0
 40
0
 40
0
 40
0
 40
1
 40
1
 40
1
 40
1
 10
1.152289
 20
4.876005
 30
0.0
 10
1.151320
 20
4.876974
 30
0.0
 10
1.128616
 20
4.871704
 30
0.0
 10
1.117353
 20
4.867897
 30
0.0
  0
SPLINE
  5
1ad
100
AcDbEntity
  8
Your_Design
 62
1
100
AcDbSpline
 70
8
 71
3
 72
8
 73
4
 74
0
 40
0
 40
0
 40
0
 40
0
 40
1
 40
1
 40
1
 40
1
 10
1.117353
 20
4.867897
 30
0.0
 10
1.103396
 20
4.863179
 30
0.0
 10
1.087825
 20
4.855574
 30
0.0
 10
1.075657
 20
4.847532
 30
0.0
  0
SPLINE
  5
1ae
100
AcDbEntity
  8
Your_Design
 62
1
100
AcDbSpline
 70
8
 71
3
 72
8
 73
4
 74
0
 40
0
 40
0
 40
0
 40
0
 40
1
 40
1
 40
1
 40
1
 10
1.075657
 20
4.847532
 30
0.0
 10
1.063084
 20
4.839222
 30
0.0
 10
1.043646
 20
4.819989
 30
0.0
 10
1.035400
 20
4.807700
 30
0.0
  0
SPLINE
  5
1af
100
AcDbEntity
  8
Your_Design
 62
1
100
AcDbSpline
 70
8
 71
3
 72
8
 73
4
 74
0
 40
0
 40
0
 40
0
 40
0
 40
1
 40
1
 40
1
 40
1
 10
1.035400
 20
4.807700
 30
0.0
 10
1.029360
 20
4.798698
 30
0.0
 10
1.024981
 20
4.791093
 30
0.0
 10
1.024981
 20
4.789603
 30
0.0
  0
SPLINE
  5
1b0
100
AcDbEntity
  8
Your_Design
 62
1
100
AcDbSpline
 70
8
 71
3
 72
8
 73
4
 74
0
 40
0
 40
0
 40
0
 40
0
 40
1
 40
1
 40
1
 40
1
 10
1.024981
 20
4.789603
 30
0.0
 10
1.024981
 20
4.789217
 30
0.0
 10
1.028904
 20
4.790876
 30
0.0
 10
1.033699
 20
4.793290
 30
0.0
  0
SPLINE
  5
1b1
100
AcDbEntity
  8
Your_Design
 62
1
100
AcDbSpline
 70
8
 71
3
 72
8
 73
4
 74
0
 40
0
 40
0
 40
0
 40
0
 40
1
 40
1
 40
1
 40
1
 10
1.033699
 20
4.793290
 30
0.0
 10
1.045436
 20
4.799201
 30
0.0
 10
1.057768
 20
4.803194
 30
0.0
 10
1.075031
 20
4.806676
 30
0.0
  0
SPLINE
  5
1b2
100
AcDbEntity
  8
Your_Design
 62
1
100
AcDbSpline
 70
8
 71
3
 72
8
 73
4
 74
0
 40
0
 40
0
 40
0
 40
0
 40
1
 40
1
 40
1
 40
1
 10
1.075031
 20
4.806676
 30
0.0
 10
1.088311
 20
4.809353
 30
0.0
 10
1.092414
 20
4.809570
 30
0.0
 10
1.128210
 20
4.809491
 30
0.0
  0
SPLINE
  5
1b3
100
AcDbEntity
  8
Your_Design
 62
1
100
AcDbSpline
 70
8
 71
3
 72
8
 73
4
 74
0
 40
0
 40
0
 40
0
 40
0
 40
1
 40
1
 40
1
 40
1
 10
1.128210
 20
4.809491
 30
0.0
 10
1.162795
 20
4.809413
 30
0.0
 10
1.169643
 20
4.809048
 30
0.0
 10
1.191398
 20
4.806110
 30
0.0
  0
SPLINE
  5
1b4
100
AcDbEntity
  8
Your_Design
 62
1
100
AcDbSpline
 70
8
 71
3
 72
8
 73
4
 74
0
 40
0
 40
0
 40
0
 40
0
 40
1
 40
1
 40
1
 40
1
 10
1.191398
 20
4.806110
 30
0.0
 10
1.233095
 20
4.800479
 30
0.0
 10
1.266412
 20
4.793178
 30
0.0
 10
1.295860
 20
4.783220
 30
0.0
  0
SPLINE
  5
1b5
100
AcDbEntity
  8
Your_Design
 62
1
100
AcDbSpline
 70
8
 71
3
 72
8
 73
4
 74
0
 40
0
 40
0
 40
0
 40
0
 40
1
 40
1
 40
1
 40
1
 10
1.295860
 20
4.783220
 30
0.0
 10
1.310329
 20
4.778327
 30
0.0
 10
1.334397
 20
4.768054
 30
0.0
 10
1.339086
 20
4.764770
 30
0.0
  0
SPLINE
  5
1b6
100
AcDbEntity
  8
Your_Design
 62
1
100
AcDbSpline
 70
8
 71
3
 72
8
 73
4
 74
0
 40
0
 40
0
 40
0
 40
0
 40
1
 40
1
 40
1
 40
1
 10
1.339086
 20
4.764770
 30
0.0
 10
1.344182
 20
4.761201
 30
0.0
 10
1.344170
 20
4.763870
 30
0.0
 10
1.339053
 20
4.771399
 30
0.0
  0
LWPOLYLINE
  5
1b7
100
AcDbEntity
  8
Your_Design
 62
1
100
AcDbPolyline
 90
2
 70
1
 10
1.350413
 20
4.743263
 30
0.0
 10
1.350413
 20
4.743263
 30
0.0
  0
SPLINE
  5
1b8
100
AcDbEntity
  8
Your_Design
 62
1
100
AcDbSpline
 70
8
 71
3
 72
8
 73
4
 74
0
 40
0
 40
0
 40
0
 40
0
 40
1
 40
1
 40
1
 40
1
 10
0.533250
 20
4.931563
 30
0.0
 10
0.530809
 20
4.934004
 30
0.0
 10
0.530735
 20
4.935660
 30
0.0
 10
0.530735
 20
4.988368
 30
0.0
  0
SPLINE
  5
1b9
100
AcDbEntity
  8
Your_Design
 62
1
100
AcDbSpline
 70
8
 71
3
 72
8
 73
4
 74
0
 40
0
 40
0
 40
0
 40
0
 40
1
 40
1
 40
1
 40
1
 10
0.530735
 20
4.988368
 30
0.0
 10
0.530735
 20
5.038220
 30
0.0
 10
0.530914
 20
5.042878
 30
0.0
 10
0.532925
 20
5.045335
 30
0.0
  0
SPLINE
  5
1ba
100
AcDbEntity
  8
Your_Design
 62
1
100
AcDbSpline
 70
8
 71
3
 72
8
 73
4
 74
0
 40
0
 40
0
 40
0
 40
0
 40
1
 40
1
 40
1
 40
1
 10
0.532925
 20
5.045335
 30
0.0
 10
0.535178
 20
5.048088
 30
0.0
 10
0.561104
 20
5.059010
 30
0.0
 10
0.584539
 20
5.067078
 30
0.0
  0
SPLINE
  5
1bb
100
AcDbEntity
  8
Your_Design
 62
1
100
AcDbSpline
 70
8
 71
3
 72
8
 73
4
 74
0
 40
0
 40
0
 40
0
 40
0
 40
1
 40
1
 40
1
 40
1
 10
0.584539
 20
5.067078
 30
0.0
 10
0.669202
 20
5.096226
 30
0.0
 10
0.771013
 20
5.114668
 30
0.0
 10
0.887343
 20
5.121929
 30
0.0
  0
SPLINE
  5
1bc
100
AcDbEntity
  8
Your_Design
 62
1
100
AcDbSpline
 70
8
 71
3
 72
8
 73
4
 74
0
 40
0
 40
0
 40
0
 40
0
 40
1
 40
1
 40
1
 40
1
 10
0.887343
 20
5.121929
 30
0.0
 10
0.918808
 20
5.123893
 30
0.0
 10
1.013537
 20
5.123893
 30
0.0
 10
1.045001
 20
5.121929
 30
0.0
  0
SPLINE
  5
1bd
100
AcDbEntity
  8
Your_Design
 62
1
100
AcDbSpline
 70
8
 71
3
 72
8
 73
4
 74
0
 40
0
 40
0
 40
0
 40
0
 40
1
 40
1
 40
1
 40
1
 10
1.045001
 20
5.121929
 30
0.0
 10
1.176991
 20
5.113691
 30
0.0
 10
1.289125
 20
5.091323
 30
0.0
 10
1.379087
 20
5.055287
 30
0.0
  0
SPLINE
  5
1be
100
AcDbEntity
  8
Your_Design
 62
1
100
AcDbSpline
 70
8
 71
3
 72
8
 73
4
 74
0
 40
0
 40
0
 40
0
 40
0
 40
1
 40
1
 40
1
 40
1
 10
1.379087
 20
5.055287
 30
0.0
 10
1.390834
 20
5.050581
 30
0.0
 10
1.398222
 20
5.046878
 30
0.0
 10
1.400045
 20
5.044783
 30
0.0
  0
LWPOLYLINE
  5
1bf
100
AcDbEntity
  8
Your_Design
 62
1
100
AcDbPolyline
 90
2
 70
1
 10
1.339053
 20
4.771399
 30
0.0
 10
1.339057
 20
4.771399
 30
0.0
  0
SPLINE
  5
1c0
100
AcDbEntity
  8
Your_Design
 62
1
100
AcDbSpline
 70
8
 71
3
 72
8
 73
4
 74
0
 40
0
 40
0
 40
0
 40
0
 40
1
 40
1
 40
1
 40
1
 10
1.402860
 20
4.989770
 30
0.0
 10
1.402860
 20
4.960016
 30
0.0
 10
1.402354
 20
4.936661
 30
0.0
 10
1.401669
 20
4.934860
 30
0.0
  0
SPLINE
  5
1c1
100
AcDbEntity
  8
Your_Design
 62
1
100
AcDbSpline
 70
8
 71
3
 72
8
 73
4
 74
0
 40
0
 40
0
 40
0
 40
0
 40
1
 40
1
 40
1
 40
1
 10
1.401669
 20
4.934860
 30
0.0
 10
1.399537
 20
4.929252
 30
0.0
 10
1.396758
 20
4.928888
 30
0.0
 10
1.387168
 20
4.932963
 30
0.0
  0
SPLINE
  5
1c2
100
AcDbEntity
  8
Your_Design
 62
1
100
AcDbSpline
 70
8
 71
3
 72
8
 73
4
 74
0
 40
0
 40
0
 40
0
 40
0
 40
1
 40
1
 40
1
 40
1
 10
1.387168
 20
4.932963
 30
0.0
 10
1.189193
 20
5.017073
 30
0.0
 10
0.863743
 20
5.029639
 30
0.0
 10
0.628432
 20
4.962259
 30
0.0
  0
SPLINE
  5
1c3
100
AcDbEntity
  8
Your_Design
 62
1
100
AcDbSpline
 70
8
 71
3
 72
8
 73
4
 74
0
 40
0
 40
0
 40
0
 40
0
 40
1
 40
1
 40
1
 40
1
 10
0.628432
 20
4.962259
 30
0.0
 10
0.599507
 20
4.953976
 30
0.0
 10
0.570673
 20
4.943739
 30
0.0
 10
0.540444
 20
4.931018
 30
0.0
  0
SPLINE
  5
1c4
100
AcDbEntity
  8
Your_Design
 62
1
100
AcDbSpline
 70
8
 71
3
 72
8
 73
4
 74
0
 40
0
 40
0
 40
0
 40
0
 40
1
 40
1
 40
1
 40
1
 10
0.540444
 20
4.931018
 30
0.0
 10
0.536011
 20
4.929152
 30
0.0
 10
0.535631
 20
4.929181
 30
0.0
 10
0.533250
 20
4.931562
 30
0.0
  0
LWPOLYLINE
  5
1c5
100
AcDbEntity
  8
Your_Design
 62
1
100
AcDbPolyline
 90
3
 70
1
 10
1.400045
 20
5.044783
 30
0.0
 10
1.402860
 20
5.041546
 30
0.0
 10
1.402860
 20
4.989770
 30
0.0
  0
SPLINE
  5
1c6
100
AcDbEntity
  8
Your_Design
 62
1
100
AcDbSpline
 70
8
 71
3
 72
8
 73
4
 74
0
 40
0
 40
0
 40
0
 40
0
 40
1
 40
1
 40
1
 40
1
 10
0.562554
 20
4.952731
 30
0.0
 10
0.633612
 20
4.980589
 30
0.0
 10
0.734918
 20
5.002527
 30
0.0
 10
0.834165
 20
5.011547
 30
0.0
  0
SPLINE
  5
1c7
100
AcDbEntity
  8
Your_Design
 62
1
100
AcDbSpline
 70
8
 71
3
 72
8
 73
4
 74
0
 40
0
 40
0
 40
0
 40
0
 40
1
 40
1
 40
1
 40
1
 10
0.834165
 20
5.011547
 30
0.0
 10
0.883074
 20
5.015993
 30
0.0
 10
0.909426
 20
5.017101
 30
0.0
 10
0.966172
 20
5.017101
 30
0.0
  0
SPLINE
  5
1c8
100
AcDbEntity
  8
Your_Design
 62
1
100
AcDbSpline
 70
8
 71
3
 72
8
 73
4
 74
0
 40
0
 40
0
 40
0
 40
0
 40
1
 40
1
 40
1
 40
1
 10
0.966172
 20
5.017101
 30
0.0
 10
1.022918
 20
5.017101
 30
0.0
 10
1.049270
 20
5.015993
 30
0.0
 10
1.098180
 20
5.011547
 30
0.0
  0
SPLINE
  5
1c9
100
AcDbEntity
  8
Your_Design
 62
1
100
AcDbSpline
 70
8
 71
3
 72
8
 73
4
 74
0
 40
0
 40
0
 40
0
 40
0
 40
1
 40
1
 40
1
 40
1
 10
1.098180
 20
5.011547
 30
0.0
 10
1.197427
 20
5.002527
 30
0.0
 10
1.298733
 20
4.980589
 30
0.0
 10
1.369790
 20
4.952731
 30
0.0
  0
SPLINE
  5
1ca
100
AcDbEntity
  8
Your_Design
 62
1
100
AcDbSpline
 70
8
 71
3
 72
8
 73
4
 74
0
 40
0
 40
0
 40
0
 40
0
 40
1
 40
1
 40
1
 40
1
 10
1.369790
 20
4.952731
 30
0.0
 10
1.380162
 20
4.948665
 30
0.0
 10
1.389030
 20
4.945338
 30
0.0
 10
1.389498
 20
4.945338
 30
0.0
  0
SPLINE
  5
1cb
100
AcDbEntity
  8
Your_Design
 62
1
100
AcDbSpline
 70
8
 71
3
 72
8
 73
4
 74
0
 40
0
 40
0
 40
0
 40
0
 40
1
 40
1
 40
1
 40
1
 10
1.389498
 20
4.945338
 30
0.0
 10
1.389965
 20
4.945338
 30
0.0
 10
1.390348
 20
4.966119
 30
0.0
 10
1.390348
 20
4.991518
 30
0.0
  0
LWPOLYLINE
  5
1cc
100
AcDbEntity
  8
Your_Design
 62
1
100
AcDbPolyline
 90
2
 70
1
 10
0.533250
 20
4.931562
 30
0.0
 10
0.533250
 20
4.931563
 30
0.0
  0
SPLINE
  5
1cd
100
AcDbEntity
  8
Your_Design
 62
1
100
AcDbSpline
 70
8
 71
3
 72
8
 73
4
 74
0
 40
0
 40
0
 40
0
 40
0
 40
1
 40
1
 40
1
 40
1
 10
1.376897
 20
5.043374
 30
0.0
 10
1.359022
 20
5.050918
 30
0.0
 10
1.319431
 20
5.064238
 30
0.0
 10
1.294626
 20
5.071054
 30
0.0
  0
SPLINE
  5
1ce
100
AcDbEntity
  8
Your_Design
 62
1
100
AcDbSpline
 70
8
 71
3
 72
8
 73
4
 74
0
 40
0
 40
0
 40
0
 40
0
 40
1
 40
1
 40
1
 40
1
 10
1.294626
 20
5.071054
 30
0.0
 10
1.097202
 20
5.125300
 30
0.0
 10
0.835141
 20
5.125300
 30
0.0
 10
0.637717
 20
5.071054
 30
0.0
  0
SPLINE
  5
1cf
100
AcDbEntity
  8
Your_Design
 62
1
100
AcDbSpline
 70
8
 71
3
 72
8
 73
4
 74
0
 40
0
 40
0
 40
0
 40
0
 40
1
 40
1
 40
1
 40
1
 10
0.637717
 20
5.071054
 30
0.0
 10
0.612913
 20
5.064238
 30
0.0
 10
0.573322
 20
5.050918
 30
0.0
 10
0.555447
 20
5.043374
 30
0.0
  0
LWPOLYLINE
  5
1d0
100
AcDbEntity
  8
Your_Design
 62
1
100
AcDbPolyline
 90
3
 70
1
 10
1.390348
 20
4.991518
 30
0.0
 10
1.390348
 20
5.037697
 30
0.0
 10
1.376897
 20
5.043374
 30
0.0
  0
SPLINE
  5
1d1
100
AcDbEntity
  8
Your_Design
 62
1
100
AcDbSpline
 70
8
 71
3
 72
8
 73
4
 74
0
 40
0
 40
0
 40
0
 40
0
 40
1
 40
1
 40
1
 40
1
 10
0.541996
 20
4.991518
 30
0.0
 10
0.541996
 20
4.966119
 30
0.0
 10
0.542379
 20
4.945338
 30
0.0
 10
0.542847
 20
4.945338
 30
0.0
  0
SPLINE
  5
1d2
100
AcDbEntity
  8
Your_Design
 62
1
100
AcDbSpline
 70
8
 71
3
 72
8
 73
4
 74
0
 40
0
 40
0
 40
0
 40
0
 40
1
 40
1
 40
1
 40
1
 10
0.542847
 20
4.945338
 30
0.0
 10
0.543314
 20
4.945338
 30
0.0
 10
0.552182
 20
4.948665
 30
0.0
 10
0.562554
 20
4.952731
 30
0.0
  0
LWPOLYLINE
  5
1d3
100
AcDbEntity
  8
Your_Design
 62
1
100
AcDbPolyline
 90
3
 70
1
 10
0.555447
 20
5.043374
 30
0.0
 10
0.541996
 20
5.037697
 30
0.0
 10
0.541996
 20
4.991518
 30
0.0
  0
SPLINE
  5
1d4
100
AcDbEntity
  8
Your_Design
 62
1
100
AcDbSpline
 70
8
 71
3
 72
8
 73
4
 74
0
 40
0
 40
0
 40
0
 40
0
 40
1
 40
1
 40
1
 40
1
 10
0.720170
 20
3.358314
 30
0.0
 10
0.724890
 20
3.355509
 30
0.0
 10
0.731450
 20
3.352958
 30
0.0
 10
0.739850
 20
3.350660
 30
0.0
  0
SPLINE
  5
1d5
100
AcDbEntity
  8
Your_Design
 62
1
100
AcDbSpline
 70
8
 71
3
 72
8
 73
4
 74
0
 40
0
 40
0
 40
0
 40
0
 40
1
 40
1
 40
1
 40
1
 10
0.739850
 20
3.350660
 30
0.0
 10
0.748250
 20
3.348363
 30
0.0
 10
0.757050
 20
3.347145
 30
0.0
 10
0.766250
 20
3.347007
 30
0.0
  0
SPLINE
  5
1d6
100
AcDbEntity
  8
Your_Design
 62
1
100
AcDbSpline
 70
8
 71
3
 72
8
 73
4
 74
0
 40
0
 40
0
 40
0
 40
0
 40
1
 40
1
 40
1
 40
1
 10
0.766250
 20
3.347007
 30
0.0
 10
0.782352
 20
3.347300
 30
0.0
 10
0.795107
 20
3.351727
 30
0.0
 10
0.804516
 20
3.360287
 30
0.0
  0
SPLINE
  5
1d7
100
AcDbEntity
  8
Your_Design
 62
1
100
AcDbSpline
 70
8
 71
3
 72
8
 73
4
 74
0
 40
0
 40
0
 40
0
 40
0
 40
1
 40
1
 40
1
 40
1
 10
0.804516
 20
3.360287
 30
0.0
 10
0.813925
 20
3.368847
 30
0.0
 10
0.818734
 20
3.379780
 30
0.0
 10
0.818943
 20
3.393086
 30
0.0
  0
SPLINE
  5
1d8
100
AcDbEntity
  8
Your_Design
 62
1
100
AcDbSpline
 70
8
 71
3
 72
8
 73
4
 74
0
 40
0
 40
0
 40
0
 40
0
 40
1
 40
1
 40
1
 40
1
 10
0.818943
 20
3.393086
 30
0.0
 10
0.819023
 20
3.402775
 30
0.0
 10
0.816356
 20
3.410971
 30
0.0
 10
0.810943
 20
3.417673
 30
0.0
  0
SPLINE
  5
1d9
100
AcDbEntity
  8
Your_Design
 62
1
100
AcDbSpline
 70
8
 71
3
 72
8
 73
4
 74
0
 40
0
 40
0
 40
0
 40
0
 40
1
 40
1
 40
1
 40
1
 10
0.810943
 20
3.417673
 30
0.0
 10
0.805529
 20
3.424375
 30
0.0
 10
0.796889
 20
3.429690
 30
0.0
 10
0.785023
 20
3.433619
 30
0.0
  0
LWPOLYLINE
  5
1da
100
AcDbEntity
  8
Your_Design
 62
1
100
AcDbPolyline
 90
2
 70
1
 10
0.562554
 20
4.952731
 30
0.0
 10
0.562554
 20
4.952731
 30
0.0
  0
SPLINE
  5
1db
100
AcDbEntity
  8
Your_Design
 62
1
100
AcDbSpline
 70
8
 71
3
 72
8
 73
4
 74
0
 40
0
 40
0
 40
0
 40
0
 40
1
 40
1
 40
1
 40
1
 10
0.766250
 20
3.439806
 30
0.0
 10
0.761872
 20
3.441126
 30
0.0
 10
0.758574
 20
3.442859
 30
0.0
 10
0.756357
 20
3.445006
 30
0.0
  0
SPLINE
  5
1dc
100
AcDbEntity
  8
Your_Design
 62
1
100
AcDbSpline
 70
8
 71
3
 72
8
 73
4
 74
0
 40
0
 40
0
 40
0
 40
0
 40
1
 40
1
 40
1
 40
1
 10
0.756357
 20
3.445006
 30
0.0
 10
0.754139
 20
3.447152
 30
0.0
 10
0.753028
 20
3.450112
 30
0.0
 10
0.753023
 20
3.453886
 30
0.0
  0
SPLINE
  5
1dd
100
AcDbEntity
  8
Your_Design
 62
1
100
AcDbSpline
 70
8
 71
3
 72
8
 73
4
 74
0
 40
0
 40
0
 40
0
 40
0
 40
1
 40
1
 40
1
 40
1
 10
0.753023
 20
3.453886
 30
0.0
 10
0.753054
 20
3.458299
 30
0.0
 10
0.754806
 20
3.461739
 30
0.0
 10
0.758277
 20
3.464206
 30
0.0
  0
SPLINE
  5
1de
100
AcDbEntity
  8
Your_Design
 62
1
100
AcDbSpline
 70
8
 71
3
 72
8
 73
4
 74
0
 40
0
 40
0
 40
0
 40
0
 40
1
 40
1
 40
1
 40
1
 10
0.758277
 20
3.464206
 30
0.0
 10
0.761748
 20
3.466672
 30
0.0
 10
0.766752
 20
3.467925
 30
0.0
 10
0.773290
 20
3.467965
 30
0.0
  0
SPLINE
  5
1df
100
AcDbEntity
  8
Your_Design
 62
1
100
AcDbSpline
 70
8
 71
3
 72
8
 73
4
 74
0
 40
0
 40
0
 40
0
 40
0
 40
1
 40
1
 40
1
 40
1
 10
0.773290
 20
3.467965
 30
0.0
 10
0.778970
 20
3.467921
 30
0.0
 10
0.784836
 20
3.467050
 30
0.0
 10
0.790890
 20
3.465352
 30
0.0
  0
SPLINE
  5
1e0
100
AcDbEntity
  8
Your_Design
 62
1
100
AcDbSpline
 70
8
 71
3
 72
8
 73
4
 74
0
 40
0
 40
0
 40
0
 40
0
 40
1
 40
1
 40
1
 40
1
 10
0.790890
 20
3.465352
 30
0.0
 10
0.796943
 20
3.463654
 30
0.0
 10
0.802383
 20
3.461397
 30
0.0
 10
0.807209
 20
3.458579
 30
0.0
  0
LWPOLYLINE
  5
1e1
100
AcDbEntity
  8
Your_Design
 62
1
100
AcDbPolyline
 90
2
 70
1
 10
0.785023
 20
3.433619
 30
0.0
 10
0.766250
 20
3.439806
 30
0.0
  0
SPLINE
  5
1e2
100
AcDbEntity
  8
Your_Design
 62
1
100
AcDbSpline
 70
8
 71
3
 72
8
 73
4
 74
0
 40
0
 40
0
 40
0
 40
0
 40
1
 40
1
 40
1
 40
1
 10
0.815956
 20
3.485885
 30
0.0
 10
0.810894
 20
3.488738
 30
0.0
 10
0.804485
 20
3.491138
 30
0.0
 10
0.796729
 20
3.493085
 30
0.0
  0
SPLINE
  5
1e3
100
AcDbEntity
  8
Your_Design
 62
1
100
AcDbSpline
 70
8
 71
3
 72
8
 73
4
 74
0
 40
0
 40
0
 40
0
 40
0
 40
1
 40
1
 40
1
 40
1
 10
0.796729
 20
3.493085
 30
0.0
 10
0.788974
 20
3.495032
 30
0.0
 10
0.780805
 20
3.496045
 30
0.0
 10
0.772223
 20
3.496125
 30
0.0
  0
SPLINE
  5
1e4
100
AcDbEntity
  8
Your_Design
 62
1
100
AcDbSpline
 70
8
 71
3
 72
8
 73
4
 74
0
 40
0
 40
0
 40
0
 40
0
 40
1
 40
1
 40
1
 40
1
 10
0.772223
 20
3.496125
 30
0.0
 10
0.755659
 20
3.495721
 30
0.0
 10
0.743135
 20
3.491303
 30
0.0
 10
0.734650
 20
3.482872
 30
0.0
  0
SPLINE
  5
1e5
100
AcDbEntity
  8
Your_Design
 62
1
100
AcDbSpline
 70
8
 71
3
 72
8
 73
4
 74
0
 40
0
 40
0
 40
0
 40
0
 40
1
 40
1
 40
1
 40
1
 10
0.734650
 20
3.482872
 30
0.0
 10
0.726166
 20
3.474441
 30
0.0
 10
0.721908
 20
3.464423
 30
0.0
 10
0.721877
 20
3.452819
 30
0.0
  0
SPLINE
  5
1e6
100
AcDbEntity
  8
Your_Design
 62
1
100
AcDbSpline
 70
8
 71
3
 72
8
 73
4
 74
0
 40
0
 40
0
 40
0
 40
0
 40
1
 40
1
 40
1
 40
1
 10
0.721877
 20
3.452819
 30
0.0
 10
0.721855
 20
3.442326
 30
0.0
 10
0.724406
 20
3.433872
 30
0.0
 10
0.729530
 20
3.427459
 30
0.0
  0
SPLINE
  5
1e7
100
AcDbEntity
  8
Your_Design
 62
1
100
AcDbSpline
 70
8
 71
3
 72
8
 73
4
 74
0
 40
0
 40
0
 40
0
 40
0
 40
1
 40
1
 40
1
 40
1
 10
0.729530
 20
3.427459
 30
0.0
 10
0.734655
 20
3.421046
 30
0.0
 10
0.742486
 20
3.416273
 30
0.0
 10
0.753023
 20
3.413139
 30
0.0
  0
LWPOLYLINE
  5
1e8
100
AcDbEntity
  8
Your_Design
 62
1
100
AcDbPolyline
 90
2
 70
1
 10
0.807209
 20
3.458579
 30
0.0
 10
0.815956
 20
3.485885
 30
0.0
  0
SPLINE
  5
1e9
100
AcDbEntity
  8
Your_Design
 62
1
100
AcDbSpline
 70
8
 71
3
 72
8
 73
4
 74
0
 40
0
 40
0
 40
0
 40
0
 40
1
 40
1
 40
1
 40
1
 10
0.772010
 20
3.407166
 30
0.0
 10
0.777374
 20
3.405442
 30
0.0
 10
0.781152
 20
3.403237
 30
0.0
 10
0.783343
 20
3.400553
 30
0.0
  0
SPLINE
  5
1ea
100
AcDbEntity
  8
Your_Design
 62
1
100
AcDbSpline
 70
8
 71
3
 72
8
 73
4
 74
0
 40
0
 40
0
 40
0
 40
0
 40
1
 40
1
 40
1
 40
1
 10
0.783343
 20
3.400553
 30
0.0
 10
0.785534
 20
3.397869
 30
0.0
 10
0.786592
 20
3.394811
 30
0.0
 10
0.786516
 20
3.391380
 30
0.0
  0
SPLINE
  5
1eb
100
AcDbEntity
  8
Your_Design
 62
1
100
AcDbSpline
 70
8
 71
3
 72
8
 73
4
 74
0
 40
0
 40
0
 40
0
 40
0
 40
1
 40
1
 40
1
 40
1
 10
0.786516
 20
3.391380
 30
0.0
 10
0.786334
 20
3.385953
 30
0.0
 10
0.784192
 20
3.381927
 30
0.0
 10
0.780090
 20
3.379300
 30
0.0
  0
SPLINE
  5
1ec
100
AcDbEntity
  8
Your_Design
 62
1
100
AcDbSpline
 70
8
 71
3
 72
8
 73
4
 74
0
 40
0
 40
0
 40
0
 40
0
 40
1
 40
1
 40
1
 40
1
 10
0.780090
 20
3.379300
 30
0.0
 10
0.775987
 20
3.376673
 30
0.0
 10
0.771019
 20
3.375367
 30
0.0
 10
0.765183
 20
3.375380
 30
0.0
  0
SPLINE
  5
1ed
100
AcDbEntity
  8
Your_Design
 62
1
100
AcDbSpline
 70
8
 71
3
 72
8
 73
4
 74
0
 40
0
 40
0
 40
0
 40
0
 40
1
 40
1
 40
1
 40
1
 10
0.765183
 20
3.375380
 30
0.0
 10
0.758423
 20
3.375480
 30
0.0
 10
0.751677
 20
3.376718
 30
0.0
 10
0.744943
 20
3.379087
 30
0.0
  0
SPLINE
  5
1ee
100
AcDbEntity
  8
Your_Design
 62
1
100
AcDbSpline
 70
8
 71
3
 72
8
 73
4
 74
0
 40
0
 40
0
 40
0
 40
0
 40
1
 40
1
 40
1
 40
1
 10
0.744943
 20
3.379087
 30
0.0
 10
0.738210
 20
3.381455
 30
0.0
 10
0.732370
 20
3.384344
 30
0.0
 10
0.727424
 20
3.387753
 30
0.0
  0
LWPOLYLINE
  5
1ef
100
AcDbEntity
  8
Your_Design
 62
1
100
AcDbPolyline
 90
2
 70
1
 10
0.753023
 20
3.413139
 30
0.0
 10
0.772010
 20
3.407166
 30
0.0
  0
LWPOLYLINE
  5
1f0
100
AcDbEntity
  8
Your_Design
 62
1
100
AcDbPolyline
 90
2
 70
1
 10
0.727424
 20
3.387753
 30
0.0
 10
0.720170
 20
3.358314
 30
0.0
  0
SPLINE
  5
1f1
100
AcDbEntity
  8
Your_Design
 62
1
100
AcDbSpline
 70
8
 71
3
 72
8
 73
4
 74
0
 40
0
 40
0
 40
0
 40
0
 40
1
 40
1
 40
1
 40
1
 10
0.841580
 20
3.374740
 30
0.0
 10
0.841580
 20
3.364811
 30
0.0
 10
0.843767
 20
3.357682
 30
0.0
 10
0.848140
 20
3.353354
 30
0.0
  0
SPLINE
  5
1f2
100
AcDbEntity
  8
Your_Design
 62
1
100
AcDbSpline
 70
8
 71
3
 72
8
 73
4
 74
0
 40
0
 40
0
 40
0
 40
0
 40
1
 40
1
 40
1
 40
1
 10
0.848140
 20
3.353354
 30
0.0
 10
0.852514
 20
3.349025
 30
0.0
 10
0.859073
 20
3.346909
 30
0.0
 10
0.867820
 20
3.347007
 30
0.0
  0
SPLINE
  5
1f3
100
AcDbEntity
  8
Your_Design
 62
1
100
AcDbSpline
 70
8
 71
3
 72
8
 73
4
 74
0
 40
0
 40
0
 40
0
 40
0
 40
1
 40
1
 40
1
 40
1
 10
0.867820
 20
3.347007
 30
0.0
 10
0.872829
 20
3.347063
 30
0.0
 10
0.877211
 20
3.347589
 30
0.0
 10
0.880967
 20
3.348580
 30
0.0
  0
SPLINE
  5
1f4
100
AcDbEntity
  8
Your_Design
 62
1
100
AcDbSpline
 70
8
 71
3
 72
8
 73
4
 74
0
 40
0
 40
0
 40
0
 40
0
 40
1
 40
1
 40
1
 40
1
 10
0.880967
 20
3.348580
 30
0.0
 10
0.884722
 20
3.349571
 30
0.0
 10
0.887877
 20
3.350683
 30
0.0
 10
0.890433
 20
3.351914
 30
0.0
  0
LWPOLYLINE
  5
1f5
100
AcDbEntity
  8
Your_Design
 62
1
100
AcDbPolyline
 90
2
 70
1
 10
0.841580
 20
3.500605
 30
0.0
 10
0.841580
 20
3.374740
 30
0.0
  0
SPLINE
  5
1f6
100
AcDbEntity
  8
Your_Design
 62
1
100
AcDbSpline
 70
8
 71
3
 72
8
 73
4
 74
0
 40
0
 40
0
 40
0
 40
0
 40
1
 40
1
 40
1
 40
1
 10
0.889366
 20
3.376660
 30
0.0
 10
0.887980
 20
3.375789
 30
0.0
 10
0.886486
 20
3.375078
 30
0.0
 10
0.884886
 20
3.374527
 30
0.0
  0
SPLINE
  5
1f7
100
AcDbEntity
  8
Your_Design
 62
1
100
AcDbSpline
 70
8
 71
3
 72
8
 73
4
 74
0
 40
0
 40
0
 40
0
 40
0
 40
1
 40
1
 40
1
 40
1
 10
0.884886
 20
3.374527
 30
0.0
 10
0.883286
 20
3.373976
 30
0.0
 10
0.881580
 20
3.373691
 30
0.0
 10
0.879767
 20
3.373673
 30
0.0
  0
SPLINE
  5
1f8
100
AcDbEntity
  8
Your_Design
 62
1
100
AcDbSpline
 70
8
 71
3
 72
8
 73
4
 74
0
 40
0
 40
0
 40
0
 40
0
 40
1
 40
1
 40
1
 40
1
 10
0.879767
 20
3.373673
 30
0.0
 10
0.877420
 20
3.373607
 30
0.0
 10
0.875660
 20
3.374273
 30
0.0
 10
0.874487
 20
3.375673
 30
0.0
  0
SPLINE
  5
1f9
100
AcDbEntity
  8
Your_Design
 62
1
100
AcDbSpline
 70
8
 71
3
 72
8
 73
4
 74
0
 40
0
 40
0
 40
0
 40
0
 40
1
 40
1
 40
1
 40
1
 10
0.874487
 20
3.375673
 30
0.0
 10
0.873313
 20
3.377073
 30
0.0
 10
0.872727
 20
3.379607
 30
0.0
 10
0.872727
 20
3.383273
 30
0.0
  0
LWPOLYLINE
  5
1fa
100
AcDbEntity
  8
Your_Design
 62
1
100
AcDbPolyline
 90
2
 70
1
 10
0.890433
 20
3.351914
 30
0.0
 10
0.889366
 20
3.376660
 30
0.0
  0
SPLINE
  5
1fb
100
AcDbEntity
  8
Your_Design
 62
1
100
AcDbSpline
 70
8
 71
3
 72
8
 73
4
 74
0
 40
0
 40
0
 40
0
 40
0
 40
1
 40
1
 40
1
 40
1
 10
0.992513
 20
3.395860
 30
0.0
 10
0.993375
 20
3.399313
 30
0.0
 10
0.994050
 20
3.403020
 30
0.0
 10
0.994539
 20
3.406980
 30
0.0
  0
SPLINE
  5
1fc
100
AcDbEntity
  8
Your_Design
 62
1
100
AcDbSpline
 70
8
 71
3
 72
8
 73
4
 74
0
 40
0
 40
0
 40
0
 40
0
 40
1
 40
1
 40
1
 40
1
 10
0.994539
 20
3.406980
 30
0.0
 10
0.995028
 20
3.410939
 30
0.0
 10
0.995277
 20
3.414913
 30
0.0
 10
0.995286
 20
3.418899
 30
0.0
  0
SPLINE
  5
1fd
100
AcDbEntity
  8
Your_Design
 62
1
100
AcDbSpline
 70
8
 71
3
 72
8
 73
4
 74
0
 40
0
 40
0
 40
0
 40
0
 40
1
 40
1
 40
1
 40
1
 10
0.995286
 20
3.418899
 30
0.0
 10
0.995388
 20
3.431779
 30
0.0
 10
0.992037
 20
3.442392
 30
0.0
 10
0.985233
 20
3.450739
 30
0.0
  0
SPLINE
  5
1fe
100
AcDbEntity
  8
Your_Design
 62
1
100
AcDbSpline
 70
8
 71
3
 72
8
 73
4
 74
0
 40
0
 40
0
 40
0
 40
0
 40
1
 40
1
 40
1
 40
1
 10
0.985233
 20
3.450739
 30
0.0
 10
0.978428
 20
3.459085
 30
0.0
 10
0.967557
 20
3.463405
 30
0.0
 10
0.952620
 20
3.463699
 30
0.0
  0
SPLINE
  5
1ff
100
AcDbEntity
  8
Your_Design
 62
1
100
AcDbSpline
 70
8
 71
3
 72
8
 73
4
 74
0
 40
0
 40
0
 40
0
 40
0
 40
1
 40
1
 40
1
 40
1
 10
0.952620
 20
3.463699
 30
0.0
 10
0.937175
 20
3.463370
 30
0.0
 10
0.924971
 20
3.457788
 30
0.0
 10
0.916007
 20
3.446952
 30
0.0
  0
SPLINE
  5
200
100
AcDbEntity
  8
Your_Design
 62
1
100
AcDbSpline
 70
8
 71
3
 72
8
 73
4
 74
0
 40
0
 40
0
 40
0
 40
0
 40
1
 40
1
 40
1
 40
1
 10
0.916007
 20
3.446952
 30
0.0
 10
0.907043
 20
3.436117
 30
0.0
 10
0.902465
 20
3.422002
 30
0.0
 10
0.902274
 20
3.404606
 30
0.0
  0
SPLINE
  5
201
100
AcDbEntity
  8
Your_Design
 62
1
100
AcDbSpline
 70
8
 71
3
 72
8
 73
4
 74
0
 40
0
 40
0
 40
0
 40
0
 40
1
 40
1
 40
1
 40
1
 10
0.902274
 20
3.404606
 30
0.0
 10
0.902238
 20
3.387424
 30
0.0
 10
0.906363
 20
3.373469
 30
0.0
 10
0.914647
 20
3.362740
 30
0.0
  0
SPLINE
  5
202
100
AcDbEntity
  8
Your_Design
 62
1
100
AcDbSpline
 70
8
 71
3
 72
8
 73
4
 74
0
 40
0
 40
0
 40
0
 40
0
 40
1
 40
1
 40
1
 40
1
 10
0.914647
 20
3.362740
 30
0.0
 10
0.922931
 20
3.352011
 30
0.0
 10
0.935589
 20
3.346483
 30
0.0
 10
0.952620
 20
3.346154
 30
0.0
  0
SPLINE
  5
203
100
AcDbEntity
  8
Your_Design
 62
1
100
AcDbSpline
 70
8
 71
3
 72
8
 73
4
 74
0
 40
0
 40
0
 40
0
 40
0
 40
1
 40
1
 40
1
 40
1
 10
0.952620
 20
3.346154
 30
0.0
 10
0.961584
 20
3.346198
 30
0.0
 10
0.969575
 20
3.347394
 30
0.0
 10
0.976593
 20
3.349754
 30
0.0
  0
SPLINE
  5
204
100
AcDbEntity
  8
Your_Design
 62
1
100
AcDbSpline
 70
8
 71
3
 72
8
 73
4
 74
0
 40
0
 40
0
 40
0
 40
0
 40
1
 40
1
 40
1
 40
1
 10
0.976593
 20
3.349754
 30
0.0
 10
0.983610
 20
3.352114
 30
0.0
 10
0.989628
 20
3.355394
 30
0.0
 10
0.994646
 20
3.359594
 30
0.0
  0
LWPOLYLINE
  5
205
100
AcDbEntity
  8
Your_Design
 62
1
100
AcDbPolyline
 90
3
 70
1
 10
0.872727
 20
3.383273
 30
0.0
 10
0.872727
 20
3.500605
 30
0.0
 10
0.841580
 20
3.500605
 30
0.0
  0
SPLINE
  5
206
100
AcDbEntity
  8
Your_Design
 62
1
100
AcDbSpline
 70
8
 71
3
 72
8
 73
4
 74
0
 40
0
 40
0
 40
0
 40
0
 40
1
 40
1
 40
1
 40
1
 10
0.983339
 20
3.382633
 30
0.0
 10
0.980122
 20
3.379780
 30
0.0
 10
0.976317
 20
3.377380
 30
0.0
 10
0.971926
 20
3.375433
 30
0.0
  0
SPLINE
  5
207
100
AcDbEntity
  8
Your_Design
 62
1
100
AcDbSpline
 70
8
 71
3
 72
8
 73
4
 74
0
 40
0
 40
0
 40
0
 40
0
 40
1
 40
1
 40
1
 40
1
 10
0.971926
 20
3.375433
 30
0.0
 10
0.967535
 20
3.373487
 30
0.0
 10
0.962664
 20
3.372473
 30
0.0
 10
0.957313
 20
3.372393
 30
0.0
  0
SPLINE
  5
208
100
AcDbEntity
  8
Your_Design
 62
1
100
AcDbSpline
 70
8
 71
3
 72
8
 73
4
 74
0
 40
0
 40
0
 40
0
 40
0
 40
1
 40
1
 40
1
 40
1
 10
0.957313
 20
3.372393
 30
0.0
 10
0.948984
 20
3.372504
 30
0.0
 10
0.942922
 20
3.374682
 30
0.0
 10
0.939127
 20
3.378927
 30
0.0
  0
SPLINE
  5
209
100
AcDbEntity
  8
Your_Design
 62
1
100
AcDbSpline
 70
8
 71
3
 72
8
 73
4
 74
0
 40
0
 40
0
 40
0
 40
0
 40
1
 40
1
 40
1
 40
1
 10
0.939127
 20
3.378927
 30
0.0
 10
0.935331
 20
3.383171
 30
0.0
 10
0.933216
 20
3.388815
 30
0.0
 10
0.932780
 20
3.395860
 30
0.0
  0
LWPOLYLINE
  5
20a
100
AcDbEntity
  8
Your_Design
 62
1
100
AcDbPolyline
 90
2
 70
1
 10
0.994646
 20
3.359594
 30
0.0
 10
0.983339
 20
3.382633
 30
0.0
  0
SPLINE
  5
20b
100
AcDbEntity
  8
Your_Design
 62
1
100
AcDbSpline
 70
8
 71
3
 72
8
 73
4
 74
0
 40
0
 40
0
 40
0
 40
0
 40
1
 40
1
 40
1
 40
1
 10
0.934487
 20
3.418473
 30
0.0
 10
0.934904
 20
3.424321
 30
0.0
 10
0.936629
 20
3.428997
 30
0.0
 10
0.939660
 20
3.432499
 30
0.0
  0
SPLINE
  5
20c
100
AcDbEntity
  8
Your_Design
 62
1
100
AcDbSpline
 70
8
 71
3
 72
8
 73
4
 74
0
 40
0
 40
0
 40
0
 40
0
 40
1
 40
1
 40
1
 40
1
 10
0.939660
 20
3.432499
 30
0.0
 10
0.942691
 20
3.436001
 30
0.0
 10
0.947082
 20
3.437797
 30
0.0
 10
0.952833
 20
3.437886
 30
0.0
  0
SPLINE
  5
20d
100
AcDbEntity
  8
Your_Design
 62
1
100
AcDbSpline
 70
8
 71
3
 72
8
 73
4
 74
0
 40
0
 40
0
 40
0
 40
0
 40
1
 40
1
 40
1
 40
1
 10
0.952833
 20
3.437886
 30
0.0
 10
0.957477
 20
3.437895
 30
0.0
 10
0.961148
 20
3.436704
 30
0.0
 10
0.963846
 20
3.434313
 30
0.0
  0
SPLINE
  5
20e
100
AcDbEntity
  8
Your_Design
 62
1
100
AcDbSpline
 70
8
 71
3
 72
8
 73
4
 74
0
 40
0
 40
0
 40
0
 40
0
 40
1
 40
1
 40
1
 40
1
 10
0.963846
 20
3.434313
 30
0.0
 10
0.966544
 20
3.431921
 30
0.0
 10
0.967922
 20
3.428277
 30
0.0
 10
0.967980
 20
3.423379
 30
0.0
  0
SPLINE
  5
20f
100
AcDbEntity
  8
Your_Design
 62
1
100
AcDbSpline
 70
8
 71
3
 72
8
 73
4
 74
0
 40
0
 40
0
 40
0
 40
0
 40
1
 40
1
 40
1
 40
1
 10
0.967980
 20
3.423379
 30
0.0
 10
0.967980
 20
3.421637
 30
0.0
 10
0.967766
 20
3.420002
 30
0.0
 10
0.967340
 20
3.418473
 30
0.0
  0
LWPOLYLINE
  5
210
100
AcDbEntity
  8
Your_Design
 62
1
100
AcDbPolyline
 90
2
 70
1
 10
0.932780
 20
3.395860
 30
0.0
 10
0.992513
 20
3.395860
 30
0.0
  0
SPLINE
  5
211
100
AcDbEntity
  8
Your_Design
 62
1
100
AcDbSpline
 70
8
 71
3
 72
8
 73
4
 74
0
 40
0
 40
0
 40
0
 40
0
 40
1
 40
1
 40
1
 40
1
 10
1.103763
 20
3.395860
 30
0.0
 10
1.104625
 20
3.399313
 30
0.0
 10
1.105300
 20
3.403020
 30
0.0
 10
1.105789
 20
3.406980
 30
0.0
  0
SPLINE
  5
212
100
AcDbEntity
  8
Your_Design
 62
1
100
AcDbSpline
 70
8
 71
3
 72
8
 73
4
 74
0
 40
0
 40
0
 40
0
 40
0
 40
1
 40
1
 40
1
 40
1
 10
1.105789
 20
3.406980
 30
0.0
 10
1.106278
 20
3.410939
 30
0.0
 10
1.106527
 20
3.414913
 30
0.0
 10
1.106536
 20
3.418899
 30
0.0
  0
SPLINE
  5
213
100
AcDbEntity
  8
Your_Design
 62
1
100
AcDbSpline
 70
8
 71
3
 72
8
 73
4
 74
0
 40
0
 40
0
 40
0
 40
0
 40
1
 40
1
 40
1
 40
1
 10
1.106536
 20
3.418899
 30
0.0
 10
1.106638
 20
3.431779
 30
0.0
 10
1.103287
 20
3.442392
 30
0.0
 10
1.096483
 20
3.450739
 30
0.0
  0
SPLINE
  5
214
100
AcDbEntity
  8
Your_Design
 62
1
100
AcDbSpline
 70
8
 71
3
 72
8
 73
4
 74
0
 40
0
 40
0
 40
0
 40
0
 40
1
 40
1
 40
1
 40
1
 10
1.096483
 20
3.450739
 30
0.0
 10
1.089678
 20
3.459085
 30
0.0
 10
1.078807
 20
3.463405
 30
0.0
 10
1.063870
 20
3.463699
 30
0.0
  0
SPLINE
  5
215
100
AcDbEntity
  8
Your_Design
 62
1
100
AcDbSpline
 70
8
 71
3
 72
8
 73
4
 74
0
 40
0
 40
0
 40
0
 40
0
 40
1
 40
1
 40
1
 40
1
 10
1.063870
 20
3.463699
 30
0.0
 10
1.048426
 20
3.463370
 30
0.0
 10
1.036221
 20
3.457788
 30
0.0
 10
1.027257
 20
3.446952
 30
0.0
  0
SPLINE
  5
216
100
AcDbEntity
  8
Your_Design
 62
1
100
AcDbSpline
 70
8
 71
3
 72
8
 73
4
 74
0
 40
0
 40
0
 40
0
 40
0
 40
1
 40
1
 40
1
 40
1
 10
1.027257
 20
3.446952
 30
0.0
 10
1.018293
 20
3.436117
 30
0.0
 10
1.013715
 20
3.422002
 30
0.0
 10
1.013524
 20
3.404606
 30
0.0
  0
SPLINE
  5
217
100
AcDbEntity
  8
Your_Design
 62
1
100
AcDbSpline
 70
8
 71
3
 72
8
 73
4
 74
0
 40
0
 40
0
 40
0
 40
0
 40
1
 40
1
 40
1
 40
1
 10
1.013524
 20
3.404606
 30
0.0
 10
1.013488
 20
3.387424
 30
0.0
 10
1.017613
 20
3.373469
 30
0.0
 10
1.025897
 20
3.362740
 30
0.0
  0
SPLINE
  5
218
100
AcDbEntity
  8
Your_Design
 62
1
100
AcDbSpline
 70
8
 71
3
 72
8
 73
4
 74
0
 40
0
 40
0
 40
0
 40
0
 40
1
 40
1
 40
1
 40
1
 10
1.025897
 20
3.362740
 30
0.0
 10
1.034181
 20
3.352011
 30
0.0
 10
1.046839
 20
3.346483
 30
0.0
 10
1.063870
 20
3.346154
 30
0.0
  0
SPLINE
  5
219
100
AcDbEntity
  8
Your_Design
 62
1
100
AcDbSpline
 70
8
 71
3
 72
8
 73
4
 74
0
 40
0
 40
0
 40
0
 40
0
 40
1
 40
1
 40
1
 40
1
 10
1.063870
 20
3.346154
 30
0.0
 10
1.072834
 20
3.346198
 30
0.0
 10
1.080825
 20
3.347394
 30
0.0
 10
1.087843
 20
3.349754
 30
0.0
  0
SPLINE
  5
21a
100
AcDbEntity
  8
Your_Design
 62
1
100
AcDbSpline
 70
8
 71
3
 72
8
 73
4
 74
0
 40
0
 40
0
 40
0
 40
0
 40
1
 40
1
 40
1
 40
1
 10
1.087843
 20
3.349754
 30
0.0
 10
1.094860
 20
3.352114
 30
0.0
 10
1.100878
 20
3.355394
 30
0.0
 10
1.105896
 20
3.359594
 30
0.0
  0
LWPOLYLINE
  5
21b
100
AcDbEntity
  8
Your_Design
 62
1
100
AcDbPolyline
 90
2
 70
1
 10
0.967340
 20
3.418473
 30
0.0
 10
0.934487
 20
3.418473
 30
0.0
  0
SPLINE
  5
21c
100
AcDbEntity
  8
Your_Design
 62
1
100
AcDbSpline
 70
8
 71
3
 72
8
 73
4
 74
0
 40
0
 40
0
 40
0
 40
0
 40
1
 40
1
 40
1
 40
1
 10
1.094589
 20
3.382633
 30
0.0
 10
1.091372
 20
3.379780
 30
0.0
 10
1.087567
 20
3.377380
 30
0.0
 10
1.083176
 20
3.375433
 30
0.0
  0
SPLINE
  5
21d
100
AcDbEntity
  8
Your_Design
 62
1
100
AcDbSpline
 70
8
 71
3
 72
8
 73
4
 74
0
 40
0
 40
0
 40
0
 40
0
 40
1
 40
1
 40
1
 40
1
 10
1.083176
 20
3.375433
 30
0.0
 10
1.078785
 20
3.373487
 30
0.0
 10
1.073914
 20
3.372473
 30
0.0
 10
1.068563
 20
3.372393
 30
0.0
  0
SPLINE
  5
21e
100
AcDbEntity
  8
Your_Design
 62
1
100
AcDbSpline
 70
8
 71
3
 72
8
 73
4
 74
0
 40
0
 40
0
 40
0
 40
0
 40
1
 40
1
 40
1
 40
1
 10
1.068563
 20
3.372393
 30
0.0
 10
1.060234
 20
3.372504
 30
0.0
 10
1.054172
 20
3.374682
 30
0.0
 10
1.050377
 20
3.378927
 30
0.0
  0
SPLINE
  5
21f
100
AcDbEntity
  8
Your_Design
 62
1
100
AcDbSpline
 70
8
 71
3
 72
8
 73
4
 74
0
 40
0
 40
0
 40
0
 40
0
 40
1
 40
1
 40
1
 40
1
 10
1.050377
 20
3.378927
 30
0.0
 10
1.046581
 20
3.383171
 30
0.0
 10
1.044466
 20
3.388815
 30
0.0
 10
1.044030
 20
3.395860
 30
0.0
  0
LWPOLYLINE
  5
220
100
AcDbEntity
  8
Your_Design
 62
1
100
AcDbPolyline
 90
2
 70
1
 10
1.105896
 20
3.359594
 30
0.0
 10
1.094589
 20
3.382633
 30
0.0
  0
SPLINE
  5
221
100
AcDbEntity
  8
Your_Design
 62
1
100
AcDbSpline
 70
8
 71
3
 72
8
 73
4
 74
0
 40
0
 40
0
 40
0
 40
0
 40
1
 40
1
 40
1
 40
1
 10
1.045737
 20
3.418473
 30
0.0
 10
1.046154
 20
3.424321
 30
0.0
 10
1.047879
 20
3.428997
 30
0.0
 10
1.050910
 20
3.432499
 30
0.0
  0
SPLINE
  5
222
100
AcDbEntity
  8
Your_Design
 62
1
100
AcDbSpline
 70
8
 71
3
 72
8
 73
4
 74
0
 40
0
 40
0
 40
0
 40
0
 40
1
 40
1
 40
1
 40
1
 10
1.050910
 20
3.432499
 30
0.0
 10
1.053941
 20
3.436001
 30
0.0
 10
1.058332
 20
3.437797
 30
0.0
 10
1.064083
 20
3.437886
 30
0.0
  0
SPLINE
  5
223
100
AcDbEntity
  8
Your_Design
 62
1
100
AcDbSpline
 70
8
 71
3
 72
8
 73
4
 74
0
 40
0
 40
0
 40
0
 40
0
 40
1
 40
1
 40
1
 40
1
 10
1.064083
 20
3.437886
 30
0.0
 10
1.068727
 20
3.437895
 30
0.0
 10
1.072398
 20
3.436704
 30
0.0
 10
1.075096
 20
3.434313
 30
0.0
  0
SPLINE
  5
224
100
AcDbEntity
  8
Your_Design
 62
1
100
AcDbSpline
 70
8
 71
3
 72
8
 73
4
 74
0
 40
0
 40
0
 40
0
 40
0
 40
1
 40
1
 40
1
 40
1
 10
1.075096
 20
3.434313
 30
0.0
 10
1.077794
 20
3.431921
 30
0.0
 10
1.079172
 20
3.428277
 30
0.0
 10
1.079230
 20
3.423379
 30
0.0
  0
SPLINE
  5
225
100
AcDbEntity
  8
Your_Design
 62
1
100
AcDbSpline
 70
8
 71
3
 72
8
 73
4
 74
0
 40
0
 40
0
 40
0
 40
0
 40
1
 40
1
 40
1
 40
1
 10
1.079230
 20
3.423379
 30
0.0
 10
1.079230
 20
3.421637
 30
0.0
 10
1.079016
 20
3.420002
 30
0.0
 10
1.078590
 20
3.418473
 30
0.0
  0
LWPOLYLINE
  5
226
100
AcDbEntity
  8
Your_Design
 62
1
100
AcDbPolyline
 90
2
 70
1
 10
1.044030
 20
3.395860
 30
0.0
 10
1.103763
 20
3.395860
 30
0.0
  0
LWPOLYLINE
  5
227
100
AcDbEntity
  8
Your_Design
 62
1
100
AcDbPolyline
 90
2
 70
1
 10
1.078590
 20
3.418473
 30
0.0
 10
1.045737
 20
3.418473
 30
0.0
  0
SPLINE
  5
228
100
AcDbEntity
  8
Your_Design
 62
1
100
AcDbSpline
 70
8
 71
3
 72
8
 73
4
 74
0
 40
0
 40
0
 40
0
 40
0
 40
1
 40
1
 40
1
 40
1
 10
1.161467
 20
3.358740
 30
0.0
 10
1.164675
 20
3.355274
 30
0.0
 10
1.168551
 20
3.352500
 30
0.0
 10
1.173093
 20
3.350420
 30
0.0
  0
SPLINE
  5
229
100
AcDbEntity
  8
Your_Design
 62
1
100
AcDbSpline
 70
8
 71
3
 72
8
 73
4
 74
0
 40
0
 40
0
 40
0
 40
0
 40
1
 40
1
 40
1
 40
1
 10
1.173093
 20
3.350420
 30
0.0
 10
1.177635
 20
3.348340
 30
0.0
 10
1.182791
 20
3.347274
 30
0.0
 10
1.188560
 20
3.347220
 30
0.0
  0
SPLINE
  5
22a
100
AcDbEntity
  8
Your_Design
 62
1
100
AcDbSpline
 70
8
 71
3
 72
8
 73
4
 74
0
 40
0
 40
0
 40
0
 40
0
 40
1
 40
1
 40
1
 40
1
 10
1.188560
 20
3.347220
 30
0.0
 10
1.201666
 20
3.347287
 30
0.0
 10
1.212146
 20
3.352220
 30
0.0
 10
1.219999
 20
3.362020
 30
0.0
  0
SPLINE
  5
22b
100
AcDbEntity
  8
Your_Design
 62
1
100
AcDbSpline
 70
8
 71
3
 72
8
 73
4
 74
0
 40
0
 40
0
 40
0
 40
0
 40
1
 40
1
 40
1
 40
1
 10
1.219999
 20
3.362020
 30
0.0
 10
1.227852
 20
3.371820
 30
0.0
 10
1.231879
 20
3.386086
 30
0.0
 10
1.232079
 20
3.404820
 30
0.0
  0
SPLINE
  5
22c
100
AcDbEntity
  8
Your_Design
 62
1
100
AcDbSpline
 70
8
 71
3
 72
8
 73
4
 74
0
 40
0
 40
0
 40
0
 40
0
 40
1
 40
1
 40
1
 40
1
 10
1.232079
 20
3.404820
 30
0.0
 10
1.231879
 20
3.423477
 30
0.0
 10
1.227852
 20
3.437788
 30
0.0
 10
1.219999
 20
3.447752
 30
0.0
  0
SPLINE
  5
22d
100
AcDbEntity
  8
Your_Design
 62
1
100
AcDbSpline
 70
8
 71
3
 72
8
 73
4
 74
0
 40
0
 40
0
 40
0
 40
0
 40
1
 40
1
 40
1
 40
1
 10
1.219999
 20
3.447752
 30
0.0
 10
1.212146
 20
3.457717
 30
0.0
 10
1.201666
 20
3.462748
 30
0.0
 10
1.188560
 20
3.462846
 30
0.0
  0
SPLINE
  5
22e
100
AcDbEntity
  8
Your_Design
 62
1
100
AcDbSpline
 70
8
 71
3
 72
8
 73
4
 74
0
 40
0
 40
0
 40
0
 40
0
 40
1
 40
1
 40
1
 40
1
 10
1.188560
 20
3.462846
 30
0.0
 10
1.182591
 20
3.462779
 30
0.0
 10
1.177355
 20
3.461628
 30
0.0
 10
1.172853
 20
3.459379
 30
0.0
  0
SPLINE
  5
22f
100
AcDbEntity
  8
Your_Design
 62
1
100
AcDbSpline
 70
8
 71
3
 72
8
 73
4
 74
0
 40
0
 40
0
 40
0
 40
0
 40
1
 40
1
 40
1
 40
1
 10
1.172853
 20
3.459379
 30
0.0
 10
1.168351
 20
3.457130
 30
0.0
 10
1.164555
 20
3.454161
 30
0.0
 10
1.161467
 20
3.450472
 30
0.0
  0
LWPOLYLINE
  5
230
100
AcDbEntity
  8
Your_Design
 62
1
100
AcDbPolyline
 90
3
 70
1
 10
1.130534
 20
3.309034
 30
0.0
 10
1.161467
 20
3.309034
 30
0.0
 10
1.161467
 20
3.358740
 30
0.0
  0
SPLINE
  5
231
100
AcDbEntity
  8
Your_Design
 62
1
100
AcDbSpline
 70
8
 71
3
 72
8
 73
4
 74
0
 40
0
 40
0
 40
0
 40
0
 40
1
 40
1
 40
1
 40
1
 10
1.200506
 20
3.405246
 30
0.0
 10
1.200439
 20
3.395575
 30
0.0
 10
1.198488
 20
3.388091
 30
0.0
 10
1.194640
 20
3.382793
 30
0.0
  0
SPLINE
  5
232
100
AcDbEntity
  8
Your_Design
 62
1
100
AcDbSpline
 70
8
 71
3
 72
8
 73
4
 74
0
 40
0
 40
0
 40
0
 40
0
 40
1
 40
1
 40
1
 40
1
 10
1.194640
 20
3.382793
 30
0.0
 10
1.190791
 20
3.377495
 30
0.0
 10
1.185422
 20
3.374811
 30
0.0
 10
1.178533
 20
3.374740
 30
0.0
  0
SPLINE
  5
233
100
AcDbEntity
  8
Your_Design
 62
1
100
AcDbSpline
 70
8
 71
3
 72
8
 73
4
 74
0
 40
0
 40
0
 40
0
 40
0
 40
1
 40
1
 40
1
 40
1
 10
1.178533
 20
3.374740
 30
0.0
 10
1.174942
 20
3.374807
 30
0.0
 10
1.171618
 20
3.375584
 30
0.0
 10
1.168560
 20
3.377087
 30
0.0
  0
SPLINE
  5
234
100
AcDbEntity
  8
Your_Design
 62
1
100
AcDbSpline
 70
8
 71
3
 72
8
 73
4
 74
0
 40
0
 40
0
 40
0
 40
0
 40
1
 40
1
 40
1
 40
1
 10
1.168560
 20
3.377087
 30
0.0
 10
1.165502
 20
3.378589
 30
0.0
 10
1.163138
 20
3.380438
 30
0.0
 10
1.161467
 20
3.382633
 30
0.0
  0
LWPOLYLINE
  5
235
100
AcDbEntity
  8
Your_Design
 62
1
100
AcDbPolyline
 90
4
 70
1
 10
1.161467
 20
3.450472
 30
0.0
 10
1.161467
 20
3.460712
 30
0.0
 10
1.130534
 20
3.460712
 30
0.0
 10
1.130534
 20
3.309034
 30
0.0
  0
SPLINE
  5
236
100
AcDbEntity
  8
Your_Design
 62
1
100
AcDbSpline
 70
8
 71
3
 72
8
 73
4
 74
0
 40
0
 40
0
 40
0
 40
0
 40
1
 40
1
 40
1
 40
1
 10
1.161467
 20
3.427219
 30
0.0
 10
1.163231
 20
3.429517
 30
0.0
 10
1.165622
 20
3.431428
 30
0.0
 10
1.168640
 20
3.432953
 30
0.0
  0
SPLINE
  5
237
100
AcDbEntity
  8
Your_Design
 62
1
100
AcDbSpline
 70
8
 71
3
 72
8
 73
4
 74
0
 40
0
 40
0
 40
0
 40
0
 40
1
 40
1
 40
1
 40
1
 10
1.168640
 20
3.432953
 30
0.0
 10
1.171658
 20
3.434477
 30
0.0
 10
1.174955
 20
3.435268
 30
0.0
 10
1.178533
 20
3.435326
 30
0.0
  0
SPLINE
  5
238
100
AcDbEntity
  8
Your_Design
 62
1
100
AcDbSpline
 70
8
 71
3
 72
8
 73
4
 74
0
 40
0
 40
0
 40
0
 40
0
 40
1
 40
1
 40
1
 40
1
 10
1.178533
 20
3.435326
 30
0.0
 10
1.185422
 20
3.435248
 30
0.0
 10
1.190791
 20
3.432579
 30
0.0
 10
1.194640
 20
3.427326
 30
0.0
  0
SPLINE
  5
239
100
AcDbEntity
  8
Your_Design
 62
1
100
AcDbSpline
 70
8
 71
3
 72
8
 73
4
 74
0
 40
0
 40
0
 40
0
 40
0
 40
1
 40
1
 40
1
 40
1
 10
1.194640
 20
3.427326
 30
0.0
 10
1.198488
 20
3.422073
 30
0.0
 10
1.200444
 20
3.414713
 30
0.0
 10
1.200506
 20
3.405246
 30
0.0
  0
LWPOLYLINE
  5
23a
100
AcDbEntity
  8
Your_Design
 62
1
100
AcDbPolyline
 90
2
 70
1
 10
1.161467
 20
3.382633
 30
0.0
 10
1.161467
 20
3.427219
 30
0.0
  0
SPLINE
  5
23b
100
AcDbEntity
  8
Your_Design
 62
1
100
AcDbSpline
 70
8
 71
3
 72
8
 73
4
 74
0
 40
0
 40
0
 40
0
 40
0
 40
1
 40
1
 40
1
 40
1
 10
0.674754
 20
3.187647
 30
0.0
 10
0.679474
 20
3.184842
 30
0.0
 10
0.686034
 20
3.182291
 30
0.0
 10
0.694434
 20
3.179994
 30
0.0
  0
SPLINE
  5
23c
100
AcDbEntity
  8
Your_Design
 62
1
100
AcDbSpline
 70
8
 71
3
 72
8
 73
4
 74
0
 40
0
 40
0
 40
0
 40
0
 40
1
 40
1
 40
1
 40
1
 10
0.694434
 20
3.179994
 30
0.0
 10
0.702833
 20
3.177696
 30
0.0
 10
0.711633
 20
3.176478
 30
0.0
 10
0.720833
 20
3.176340
 30
0.0
  0
SPLINE
  5
23d
100
AcDbEntity
  8
Your_Design
 62
1
100
AcDbSpline
 70
8
 71
3
 72
8
 73
4
 74
0
 40
0
 40
0
 40
0
 40
0
 40
1
 40
1
 40
1
 40
1
 10
0.720833
 20
3.176340
 30
0.0
 10
0.736935
 20
3.176634
 30
0.0
 10
0.749691
 20
3.181060
 30
0.0
 10
0.759099
 20
3.189620
 30
0.0
  0
SPLINE
  5
23e
100
AcDbEntity
  8
Your_Design
 62
1
100
AcDbSpline
 70
8
 71
3
 72
8
 73
4
 74
0
 40
0
 40
0
 40
0
 40
0
 40
1
 40
1
 40
1
 40
1
 10
0.759099
 20
3.189620
 30
0.0
 10
0.768508
 20
3.198180
 30
0.0
 10
0.773317
 20
3.209113
 30
0.0
 10
0.773526
 20
3.222420
 30
0.0
  0
SPLINE
  5
23f
100
AcDbEntity
  8
Your_Design
 62
1
100
AcDbSpline
 70
8
 71
3
 72
8
 73
4
 74
0
 40
0
 40
0
 40
0
 40
0
 40
1
 40
1
 40
1
 40
1
 10
0.773526
 20
3.222420
 30
0.0
 10
0.773606
 20
3.232108
 30
0.0
 10
0.770939
 20
3.240304
 30
0.0
 10
0.765526
 20
3.247006
 30
0.0
  0
SPLINE
  5
240
100
AcDbEntity
  8
Your_Design
 62
1
100
AcDbSpline
 70
8
 71
3
 72
8
 73
4
 74
0
 40
0
 40
0
 40
0
 40
0
 40
1
 40
1
 40
1
 40
1
 10
0.765526
 20
3.247006
 30
0.0
 10
0.760113
 20
3.253708
 30
0.0
 10
0.751473
 20
3.259024
 30
0.0
 10
0.739606
 20
3.262953
 30
0.0
  0
LWPOLYLINE
  5
241
100
AcDbEntity
  8
Your_Design
 62
1
100
AcDbPolyline
 90
2
 70
1
 10
1.200506
 20
3.405246
 30
0.0
 10
1.200506
 20
3.405246
 30
0.0
  0
SPLINE
  5
242
100
AcDbEntity
  8
Your_Design
 62
1
100
AcDbSpline
 70
8
 71
3
 72
8
 73
4
 74
0
 40
0
 40
0
 40
0
 40
0
 40
1
 40
1
 40
1
 40
1
 10
0.720833
 20
3.269139
 30
0.0
 10
0.716455
 20
3.270459
 30
0.0
 10
0.713158
 20
3.272192
 30
0.0
 10
0.710940
 20
3.274339
 30
0.0
  0
SPLINE
  5
243
100
AcDbEntity
  8
Your_Design
 62
1
100
AcDbSpline
 70
8
 71
3
 72
8
 73
4
 74
0
 40
0
 40
0
 40
0
 40
0
 40
1
 40
1
 40
1
 40
1
 10
0.710940
 20
3.274339
 30
0.0
 10
0.708722
 20
3.276486
 30
0.0
 10
0.707611
 20
3.279446
 30
0.0
 10
0.707607
 20
3.283219
 30
0.0
  0
SPLINE
  5
244
100
AcDbEntity
  8
Your_Design
 62
1
100
AcDbSpline
 70
8
 71
3
 72
8
 73
4
 74
0
 40
0
 40
0
 40
0
 40
0
 40
1
 40
1
 40
1
 40
1
 10
0.707607
 20
3.283219
 30
0.0
 10
0.707638
 20
3.287632
 30
0.0
 10
0.709389
 20
3.291072
 30
0.0
 10
0.712860
 20
3.293539
 30
0.0
  0
SPLINE
  5
245
100
AcDbEntity
  8
Your_Design
 62
1
100
AcDbSpline
 70
8
 71
3
 72
8
 73
4
 74
0
 40
0
 40
0
 40
0
 40
0
 40
1
 40
1
 40
1
 40
1
 10
0.712860
 20
3.293539
 30
0.0
 10
0.716331
 20
3.296005
 30
0.0
 10
0.721335
 20
3.297259
 30
0.0
 10
0.727873
 20
3.297299
 30
0.0
  0
SPLINE
  5
246
100
AcDbEntity
  8
Your_Design
 62
1
100
AcDbSpline
 70
8
 71
3
 72
8
 73
4
 74
0
 40
0
 40
0
 40
0
 40
0
 40
1
 40
1
 40
1
 40
1
 10
0.727873
 20
3.297299
 30
0.0
 10
0.733553
 20
3.297254
 30
0.0
 10
0.739420
 20
3.296383
 30
0.0
 10
0.745473
 20
3.294685
 30
0.0
  0
SPLINE
  5
247
100
AcDbEntity
  8
Your_Design
 62
1
100
AcDbSpline
 70
8
 71
3
 72
8
 73
4
 74
0
 40
0
 40
0
 40
0
 40
0
 40
1
 40
1
 40
1
 40
1
 10
0.745473
 20
3.294685
 30
0.0
 10
0.751526
 20
3.292988
 30
0.0
 10
0.756966
 20
3.290730
 30
0.0
 10
0.761793
 20
3.287912
 30
0.0
  0
LWPOLYLINE
  5
248
100
AcDbEntity
  8
Your_Design
 62
1
100
AcDbPolyline
 90
2
 70
1
 10
0.739606
 20
3.262953
 30
0.0
 10
0.720833
 20
3.269139
 30
0.0
  0
SPLINE
  5
249
100
AcDbEntity
  8
Your_Design
 62
1
100
AcDbSpline
 70
8
 71
3
 72
8
 73
4
 74
0
 40
0
 40
0
 40
0
 40
0
 40
1
 40
1
 40
1
 40
1
 10
0.770539
 20
3.315219
 30
0.0
 10
0.765477
 20
3.318072
 30
0.0
 10
0.759068
 20
3.320472
 30
0.0
 10
0.751313
 20
3.322418
 30
0.0
  0
SPLINE
  5
24a
100
AcDbEntity
  8
Your_Design
 62
1
100
AcDbSpline
 70
8
 71
3
 72
8
 73
4
 74
0
 40
0
 40
0
 40
0
 40
0
 40
1
 40
1
 40
1
 40
1
 10
0.751313
 20
3.322418
 30
0.0
 10
0.743557
 20
3.324365
 30
0.0
 10
0.735388
 20
3.325378
 30
0.0
 10
0.726806
 20
3.325458
 30
0.0
  0
SPLINE
  5
24b
100
AcDbEntity
  8
Your_Design
 62
1
100
AcDbSpline
 70
8
 71
3
 72
8
 73
4
 74
0
 40
0
 40
0
 40
0
 40
0
 40
1
 40
1
 40
1
 40
1
 10
0.726806
 20
3.325458
 30
0.0
 10
0.710242
 20
3.325054
 30
0.0
 10
0.697718
 20
3.320636
 30
0.0
 10
0.689234
 20
3.312205
 30
0.0
  0
SPLINE
  5
24c
100
AcDbEntity
  8
Your_Design
 62
1
100
AcDbSpline
 70
8
 71
3
 72
8
 73
4
 74
0
 40
0
 40
0
 40
0
 40
0
 40
1
 40
1
 40
1
 40
1
 10
0.689234
 20
3.312205
 30
0.0
 10
0.680749
 20
3.303774
 30
0.0
 10
0.676492
 20
3.293756
 30
0.0
 10
0.676460
 20
3.282152
 30
0.0
  0
SPLINE
  5
24d
100
AcDbEntity
  8
Your_Design
 62
1
100
AcDbSpline
 70
8
 71
3
 72
8
 73
4
 74
0
 40
0
 40
0
 40
0
 40
0
 40
1
 40
1
 40
1
 40
1
 10
0.676460
 20
3.282152
 30
0.0
 10
0.676438
 20
3.271659
 30
0.0
 10
0.678989
 20
3.263206
 30
0.0
 10
0.684114
 20
3.256793
 30
0.0
  0
SPLINE
  5
24e
100
AcDbEntity
  8
Your_Design
 62
1
100
AcDbSpline
 70
8
 71
3
 72
8
 73
4
 74
0
 40
0
 40
0
 40
0
 40
0
 40
1
 40
1
 40
1
 40
1
 10
0.684114
 20
3.256793
 30
0.0
 10
0.689238
 20
3.250379
 30
0.0
 10
0.697069
 20
3.245606
 30
0.0
 10
0.707607
 20
3.242473
 30
0.0
  0
LWPOLYLINE
  5
24f
100
AcDbEntity
  8
Your_Design
 62
1
100
AcDbPolyline
 90
2
 70
1
 10
0.761793
 20
3.287912
 30
0.0
 10
0.770539
 20
3.315219
 30
0.0
  0
SPLINE
  5
250
100
AcDbEntity
  8
Your_Design
 62
1
100
AcDbSpline
 70
8
 71
3
 72
8
 73
4
 74
0
 40
0
 40
0
 40
0
 40
0
 40
1
 40
1
 40
1
 40
1
 10
0.726593
 20
3.236500
 30
0.0
 10
0.731957
 20
3.234775
 30
0.0
 10
0.735735
 20
3.232571
 30
0.0
 10
0.737926
 20
3.229886
 30
0.0
  0
SPLINE
  5
251
100
AcDbEntity
  8
Your_Design
 62
1
100
AcDbSpline
 70
8
 71
3
 72
8
 73
4
 74
0
 40
0
 40
0
 40
0
 40
0
 40
1
 40
1
 40
1
 40
1
 10
0.737926
 20
3.229886
 30
0.0
 10
0.740117
 20
3.227202
 30
0.0
 10
0.741175
 20
3.224144
 30
0.0
 10
0.741100
 20
3.220713
 30
0.0
  0
SPLINE
  5
252
100
AcDbEntity
  8
Your_Design
 62
1
100
AcDbSpline
 70
8
 71
3
 72
8
 73
4
 74
0
 40
0
 40
0
 40
0
 40
0
 40
1
 40
1
 40
1
 40
1
 10
0.741100
 20
3.220713
 30
0.0
 10
0.740917
 20
3.215286
 30
0.0
 10
0.738775
 20
3.211260
 30
0.0
 10
0.734673
 20
3.208633
 30
0.0
  0
SPLINE
  5
253
100
AcDbEntity
  8
Your_Design
 62
1
100
AcDbSpline
 70
8
 71
3
 72
8
 73
4
 74
0
 40
0
 40
0
 40
0
 40
0
 40
1
 40
1
 40
1
 40
1
 10
0.734673
 20
3.208633
 30
0.0
 10
0.730571
 20
3.206007
 30
0.0
 10
0.725602
 20
3.204700
 30
0.0
 10
0.719767
 20
3.204713
 30
0.0
  0
SPLINE
  5
254
100
AcDbEntity
  8
Your_Design
 62
1
100
AcDbSpline
 70
8
 71
3
 72
8
 73
4
 74
0
 40
0
 40
0
 40
0
 40
0
 40
1
 40
1
 40
1
 40
1
 10
0.719767
 20
3.204713
 30
0.0
 10
0.713007
 20
3.204813
 30
0.0
 10
0.706260
 20
3.206051
 30
0.0
 10
0.699527
 20
3.208420
 30
0.0
  0
SPLINE
  5
255
100
AcDbEntity
  8
Your_Design
 62
1
100
AcDbSpline
 70
8
 71
3
 72
8
 73
4
 74
0
 40
0
 40
0
 40
0
 40
0
 40
1
 40
1
 40
1
 40
1
 10
0.699527
 20
3.208420
 30
0.0
 10
0.692794
 20
3.210789
 30
0.0
 10
0.686954
 20
3.213678
 30
0.0
 10
0.682007
 20
3.217086
 30
0.0
  0
LWPOLYLINE
  5
256
100
AcDbEntity
  8
Your_Design
 62
1
100
AcDbPolyline
 90
2
 70
1
 10
0.707607
 20
3.242473
 30
0.0
 10
0.726593
 20
3.236500
 30
0.0
  0
SPLINE
  5
257
100
AcDbEntity
  8
Your_Design
 62
1
100
AcDbSpline
 70
8
 71
3
 72
8
 73
4
 74
0
 40
0
 40
0
 40
0
 40
0
 40
1
 40
1
 40
1
 40
1
 10
0.880429
 20
3.225193
 30
0.0
 10
0.881291
 20
3.228646
 30
0.0
 10
0.881967
 20
3.232353
 30
0.0
 10
0.882456
 20
3.236313
 30
0.0
  0
SPLINE
  5
258
100
AcDbEntity
  8
Your_Design
 62
1
100
AcDbSpline
 70
8
 71
3
 72
8
 73
4
 74
0
 40
0
 40
0
 40
0
 40
0
 40
1
 40
1
 40
1
 40
1
 10
0.882456
 20
3.236313
 30
0.0
 10
0.882945
 20
3.240273
 30
0.0
 10
0.883194
 20
3.244246
 30
0.0
 10
0.883203
 20
3.248233
 30
0.0
  0
SPLINE
  5
259
100
AcDbEntity
  8
Your_Design
 62
1
100
AcDbSpline
 70
8
 71
3
 72
8
 73
4
 74
0
 40
0
 40
0
 40
0
 40
0
 40
1
 40
1
 40
1
 40
1
 10
0.883203
 20
3.248233
 30
0.0
 10
0.883305
 20
3.261112
 30
0.0
 10
0.879954
 20
3.271726
 30
0.0
 10
0.873149
 20
3.280072
 30
0.0
  0
SPLINE
  5
25a
100
AcDbEntity
  8
Your_Design
 62
1
100
AcDbSpline
 70
8
 71
3
 72
8
 73
4
 74
0
 40
0
 40
0
 40
0
 40
0
 40
1
 40
1
 40
1
 40
1
 10
0.873149
 20
3.280072
 30
0.0
 10
0.866345
 20
3.288419
 30
0.0
 10
0.855474
 20
3.292739
 30
0.0
 10
0.840536
 20
3.293032
 30
0.0
  0
SPLINE
  5
25b
100
AcDbEntity
  8
Your_Design
 62
1
100
AcDbSpline
 70
8
 71
3
 72
8
 73
4
 74
0
 40
0
 40
0
 40
0
 40
0
 40
1
 40
1
 40
1
 40
1
 10
0.840536
 20
3.293032
 30
0.0
 10
0.825092
 20
3.292703
 30
0.0
 10
0.812888
 20
3.287121
 30
0.0
 10
0.803924
 20
3.276286
 30
0.0
  0
SPLINE
  5
25c
100
AcDbEntity
  8
Your_Design
 62
1
100
AcDbSpline
 70
8
 71
3
 72
8
 73
4
 74
0
 40
0
 40
0
 40
0
 40
0
 40
1
 40
1
 40
1
 40
1
 10
0.803924
 20
3.276286
 30
0.0
 10
0.794959
 20
3.265450
 30
0.0
 10
0.790382
 20
3.251335
 30
0.0
 10
0.790190
 20
3.233940
 30
0.0
  0
SPLINE
  5
25d
100
AcDbEntity
  8
Your_Design
 62
1
100
AcDbSpline
 70
8
 71
3
 72
8
 73
4
 74
0
 40
0
 40
0
 40
0
 40
0
 40
1
 40
1
 40
1
 40
1
 10
0.790190
 20
3.233940
 30
0.0
 10
0.790155
 20
3.216758
 30
0.0
 10
0.794279
 20
3.202802
 30
0.0
 10
0.802564
 20
3.192073
 30
0.0
  0
SPLINE
  5
25e
100
AcDbEntity
  8
Your_Design
 62
1
100
AcDbSpline
 70
8
 71
3
 72
8
 73
4
 74
0
 40
0
 40
0
 40
0
 40
0
 40
1
 40
1
 40
1
 40
1
 10
0.802564
 20
3.192073
 30
0.0
 10
0.810848
 20
3.181345
 30
0.0
 10
0.823506
 20
3.175816
 30
0.0
 10
0.840536
 20
3.175487
 30
0.0
  0
SPLINE
  5
25f
100
AcDbEntity
  8
Your_Design
 62
1
100
AcDbSpline
 70
8
 71
3
 72
8
 73
4
 74
0
 40
0
 40
0
 40
0
 40
0
 40
1
 40
1
 40
1
 40
1
 10
0.840536
 20
3.175487
 30
0.0
 10
0.849501
 20
3.175531
 30
0.0
 10
0.857492
 20
3.176727
 30
0.0
 10
0.864509
 20
3.179087
 30
0.0
  0
SPLINE
  5
260
100
AcDbEntity
  8
Your_Design
 62
1
100
AcDbSpline
 70
8
 71
3
 72
8
 73
4
 74
0
 40
0
 40
0
 40
0
 40
0
 40
1
 40
1
 40
1
 40
1
 10
0.864509
 20
3.179087
 30
0.0
 10
0.871527
 20
3.181447
 30
0.0
 10
0.877545
 20
3.184727
 30
0.0
 10
0.882563
 20
3.188927
 30
0.0
  0
LWPOLYLINE
  5
261
100
AcDbEntity
  8
Your_Design
 62
1
100
AcDbPolyline
 90
2
 70
1
 10
0.682007
 20
3.217086
 30
0.0
 10
0.674754
 20
3.187647
 30
0.0
  0
SPLINE
  5
262
100
AcDbEntity
  8
Your_Design
 62
1
100
AcDbSpline
 70
8
 71
3
 72
8
 73
4
 74
0
 40
0
 40
0
 40
0
 40
0
 40
1
 40
1
 40
1
 40
1
 10
0.871256
 20
3.211967
 30
0.0
 10
0.868038
 20
3.209113
 30
0.0
 10
0.864234
 20
3.206713
 30
0.0
 10
0.859843
 20
3.204767
 30
0.0
  0
SPLINE
  5
263
100
AcDbEntity
  8
Your_Design
 62
1
100
AcDbSpline
 70
8
 71
3
 72
8
 73
4
 74
0
 40
0
 40
0
 40
0
 40
0
 40
1
 40
1
 40
1
 40
1
 10
0.859843
 20
3.204767
 30
0.0
 10
0.855452
 20
3.202820
 30
0.0
 10
0.850581
 20
3.201807
 30
0.0
 10
0.845230
 20
3.201727
 30
0.0
  0
SPLINE
  5
264
100
AcDbEntity
  8
Your_Design
 62
1
100
AcDbSpline
 70
8
 71
3
 72
8
 73
4
 74
0
 40
0
 40
0
 40
0
 40
0
 40
1
 40
1
 40
1
 40
1
 10
0.845230
 20
3.201727
 30
0.0
 10
0.836901
 20
3.201838
 30
0.0
 10
0.830839
 20
3.204016
 30
0.0
 10
0.827043
 20
3.208260
 30
0.0
  0
SPLINE
  5
265
100
AcDbEntity
  8
Your_Design
 62
1
100
AcDbSpline
 70
8
 71
3
 72
8
 73
4
 74
0
 40
0
 40
0
 40
0
 40
0
 40
1
 40
1
 40
1
 40
1
 10
0.827043
 20
3.208260
 30
0.0
 10
0.823248
 20
3.212504
 30
0.0
 10
0.821132
 20
3.218149
 30
0.0
 10
0.820697
 20
3.225193
 30
0.0
  0
LWPOLYLINE
  5
266
100
AcDbEntity
  8
Your_Design
 62
1
100
AcDbPolyline
 90
2
 70
1
 10
0.882563
 20
3.188927
 30
0.0
 10
0.871256
 20
3.211967
 30
0.0
  0
SPLINE
  5
267
100
AcDbEntity
  8
Your_Design
 62
1
100
AcDbSpline
 70
8
 71
3
 72
8
 73
4
 74
0
 40
0
 40
0
 40
0
 40
0
 40
1
 40
1
 40
1
 40
1
 10
0.822403
 20
3.247806
 30
0.0
 10
0.822821
 20
3.253655
 30
0.0
 10
0.824546
 20
3.258330
 30
0.0
 10
0.827577
 20
3.261833
 30
0.0
  0
SPLINE
  5
268
100
AcDbEntity
  8
Your_Design
 62
1
100
AcDbSpline
 70
8
 71
3
 72
8
 73
4
 74
0
 40
0
 40
0
 40
0
 40
0
 40
1
 40
1
 40
1
 40
1
 10
0.827577
 20
3.261833
 30
0.0
 10
0.830608
 20
3.265335
 30
0.0
 10
0.834999
 20
3.267130
 30
0.0
 10
0.840750
 20
3.267219
 30
0.0
  0
SPLINE
  5
269
100
AcDbEntity
  8
Your_Design
 62
1
100
AcDbSpline
 70
8
 71
3
 72
8
 73
4
 74
0
 40
0
 40
0
 40
0
 40
0
 40
1
 40
1
 40
1
 40
1
 10
0.840750
 20
3.267219
 30
0.0
 10
0.845394
 20
3.267228
 30
0.0
 10
0.849065
 20
3.266037
 30
0.0
 10
0.851763
 20
3.263646
 30
0.0
  0
SPLINE
  5
26a
100
AcDbEntity
  8
Your_Design
 62
1
100
AcDbSpline
 70
8
 71
3
 72
8
 73
4
 74
0
 40
0
 40
0
 40
0
 40
0
 40
1
 40
1
 40
1
 40
1
 10
0.851763
 20
3.263646
 30
0.0
 10
0.854461
 20
3.261255
 30
0.0
 10
0.855838
 20
3.257610
 30
0.0
 10
0.855896
 20
3.252713
 30
0.0
  0
SPLINE
  5
26b
100
AcDbEntity
  8
Your_Design
 62
1
100
AcDbSpline
 70
8
 71
3
 72
8
 73
4
 74
0
 40
0
 40
0
 40
0
 40
0
 40
1
 40
1
 40
1
 40
1
 10
0.855896
 20
3.252713
 30
0.0
 10
0.855896
 20
3.250970
 30
0.0
 10
0.855683
 20
3.249335
 30
0.0
 10
0.855256
 20
3.247806
 30
0.0
  0
LWPOLYLINE
  5
26c
100
AcDbEntity
  8
Your_Design
 62
1
100
AcDbPolyline
 90
2
 70
1
 10
0.820697
 20
3.225193
 30
0.0
 10
0.880429
 20
3.225193
 30
0.0
  0
LWPOLYLINE
  5
26d
100
AcDbEntity
  8
Your_Design
 62
1
100
AcDbPolyline
 90
2
 70
1
 10
0.855256
 20
3.247806
 30
0.0
 10
0.822403
 20
3.247806
 30
0.0
  0
SPLINE
  5
26e
100
AcDbEntity
  8
Your_Design
 62
1
100
AcDbSpline
 70
8
 71
3
 72
8
 73
4
 74
0
 40
0
 40
0
 40
0
 40
0
 40
1
 40
1
 40
1
 40
1
 10
1.005332
 20
3.248446
 30
0.0
 10
1.005399
 20
3.262206
 30
0.0
 10
1.002599
 20
3.272872
 30
0.0
 10
0.996933
 20
3.280446
 30
0.0
  0
SPLINE
  5
26f
100
AcDbEntity
  8
Your_Design
 62
1
100
AcDbSpline
 70
8
 71
3
 72
8
 73
4
 74
0
 40
0
 40
0
 40
0
 40
0
 40
1
 40
1
 40
1
 40
1
 10
0.996933
 20
3.280446
 30
0.0
 10
0.991266
 20
3.288019
 30
0.0
 10
0.982333
 20
3.291859
 30
0.0
 10
0.970133
 20
3.291966
 30
0.0
  0
SPLINE
  5
270
100
AcDbEntity
  8
Your_Design
 62
1
100
AcDbSpline
 70
8
 71
3
 72
8
 73
4
 74
0
 40
0
 40
0
 40
0
 40
0
 40
1
 40
1
 40
1
 40
1
 10
0.970133
 20
3.291966
 30
0.0
 10
0.963240
 20
3.291888
 30
0.0
 10
0.957026
 20
3.290601
 30
0.0
 10
0.951493
 20
3.288099
 30
0.0
  0
SPLINE
  5
271
100
AcDbEntity
  8
Your_Design
 62
1
100
AcDbSpline
 70
8
 71
3
 72
8
 73
4
 74
0
 40
0
 40
0
 40
0
 40
0
 40
1
 40
1
 40
1
 40
1
 10
0.951493
 20
3.288099
 30
0.0
 10
0.945960
 20
3.285597
 30
0.0
 10
0.941507
 20
3.282334
 30
0.0
 10
0.938133
 20
3.278312
 30
0.0
  0
LWPOLYLINE
  5
272
100
AcDbEntity
  8
Your_Design
 62
1
100
AcDbPolyline
 90
2
 70
1
 10
1.005332
 20
3.178474
 30
0.0
 10
1.005332
 20
3.248446
 30
0.0
  0
SPLINE
  5
273
100
AcDbEntity
  8
Your_Design
 62
1
100
AcDbSpline
 70
8
 71
3
 72
8
 73
4
 74
0
 40
0
 40
0
 40
0
 40
0
 40
1
 40
1
 40
1
 40
1
 10
0.938133
 20
3.247379
 30
0.0
 10
0.939533
 20
3.251295
 30
0.0
 10
0.941907
 20
3.254824
 30
0.0
 10
0.945253
 20
3.257966
 30
0.0
  0
SPLINE
  5
274
100
AcDbEntity
  8
Your_Design
 62
1
100
AcDbSpline
 70
8
 71
3
 72
8
 73
4
 74
0
 40
0
 40
0
 40
0
 40
0
 40
1
 40
1
 40
1
 40
1
 10
0.945253
 20
3.257966
 30
0.0
 10
0.948600
 20
3.261108
 30
0.0
 10
0.952840
 20
3.262770
 30
0.0
 10
0.957973
 20
3.262953
 30
0.0
  0
SPLINE
  5
275
100
AcDbEntity
  8
Your_Design
 62
1
100
AcDbSpline
 70
8
 71
3
 72
8
 73
4
 74
0
 40
0
 40
0
 40
0
 40
0
 40
1
 40
1
 40
1
 40
1
 10
0.957973
 20
3.262953
 30
0.0
 10
0.963595
 20
3.262975
 30
0.0
 10
0.967711
 20
3.261277
 30
0.0
 10
0.970320
 20
3.257859
 30
0.0
  0
SPLINE
  5
276
100
AcDbEntity
  8
Your_Design
 62
1
100
AcDbSpline
 70
8
 71
3
 72
8
 73
4
 74
0
 40
0
 40
0
 40
0
 40
0
 40
1
 40
1
 40
1
 40
1
 10
0.970320
 20
3.257859
 30
0.0
 10
0.972928
 20
3.254441
 30
0.0
 10
0.974217
 20
3.249170
 30
0.0
 10
0.974186
 20
3.242046
 30
0.0
  0
LWPOLYLINE
  5
277
100
AcDbEntity
  8
Your_Design
 62
1
100
AcDbPolyline
 90
6
 70
1
 10
0.938133
 20
3.278312
 30
0.0
 10
0.938133
 20
3.290046
 30
0.0
 10
0.907200
 20
3.290046
 30
0.0
 10
0.907200
 20
3.178474
 30
0.0
 10
0.938133
 20
3.178474
 30
0.0
 10
0.938133
 20
3.247379
 30
0.0
  0
SPLINE
  5
278
100
AcDbEntity
  8
Your_Design
 62
1
100
AcDbSpline
 70
8
 71
3
 72
8
 73
4
 74
0
 40
0
 40
0
 40
0
 40
0
 40
1
 40
1
 40
1
 40
1
 10
1.105343
 20
3.284712
 30
0.0
 10
1.101267
 20
3.286601
 30
0.0
 10
1.095872
 20
3.288263
 30
0.0
 10
1.089156
 20
3.289699
 30
0.0
  0
SPLINE
  5
279
100
AcDbEntity
  8
Your_Design
 62
1
100
AcDbSpline
 70
8
 71
3
 72
8
 73
4
 74
0
 40
0
 40
0
 40
0
 40
0
 40
1
 40
1
 40
1
 40
1
 10
1.089156
 20
3.289699
 30
0.0
 10
1.082441
 20
3.291134
 30
0.0
 10
1.075819
 20
3.291890
 30
0.0
 10
1.069290
 20
3.291966
 30
0.0
  0
SPLINE
  5
27a
100
AcDbEntity
  8
Your_Design
 62
1
100
AcDbSpline
 70
8
 71
3
 72
8
 73
4
 74
0
 40
0
 40
0
 40
0
 40
0
 40
1
 40
1
 40
1
 40
1
 10
1.069290
 20
3.291966
 30
0.0
 10
1.055934
 20
3.291752
 30
0.0
 10
1.045846
 20
3.288392
 30
0.0
 10
1.039024
 20
3.281886
 30
0.0
  0
SPLINE
  5
27b
100
AcDbEntity
  8
Your_Design
 62
1
100
AcDbSpline
 70
8
 71
3
 72
8
 73
4
 74
0
 40
0
 40
0
 40
0
 40
0
 40
1
 40
1
 40
1
 40
1
 10
1.039024
 20
3.281886
 30
0.0
 10
1.032201
 20
3.275379
 30
0.0
 10
1.028779
 20
3.267006
 30
0.0
 10
1.028757
 20
3.256766
 30
0.0
  0
SPLINE
  5
27c
100
AcDbEntity
  8
Your_Design
 62
1
100
AcDbSpline
 70
8
 71
3
 72
8
 73
4
 74
0
 40
0
 40
0
 40
0
 40
0
 40
1
 40
1
 40
1
 40
1
 10
1.028757
 20
3.256766
 30
0.0
 10
1.028753
 20
3.249108
 30
0.0
 10
1.030895
 20
3.242717
 30
0.0
 10
1.035184
 20
3.237593
 30
0.0
  0
SPLINE
  5
27d
100
AcDbEntity
  8
Your_Design
 62
1
100
AcDbSpline
 70
8
 71
3
 72
8
 73
4
 74
0
 40
0
 40
0
 40
0
 40
0
 40
1
 40
1
 40
1
 40
1
 10
1.035184
 20
3.237593
 30
0.0
 10
1.039472
 20
3.232468
 30
0.0
 10
1.045935
 20
3.228477
 30
0.0
 10
1.054570
 20
3.225620
 30
0.0
  0
LWPOLYLINE
  5
27e
100
AcDbEntity
  8
Your_Design
 62
1
100
AcDbPolyline
 90
3
 70
1
 10
0.974186
 20
3.242046
 30
0.0
 10
0.974186
 20
3.178474
 30
0.0
 10
1.005332
 20
3.178474
 30
0.0
  0
SPLINE
  5
27f
100
AcDbEntity
  8
Your_Design
 62
1
100
AcDbSpline
 70
8
 71
3
 72
8
 73
4
 74
0
 40
0
 40
0
 40
0
 40
0
 40
1
 40
1
 40
1
 40
1
 10
1.064810
 20
3.221993
 30
0.0
 10
1.068614
 20
3.220771
 30
0.0
 10
1.071352
 20
3.219322
 30
0.0
 10
1.073023
 20
3.217646
 30
0.0
  0
SPLINE
  5
280
100
AcDbEntity
  8
Your_Design
 62
1
100
AcDbSpline
 70
8
 71
3
 72
8
 73
4
 74
0
 40
0
 40
0
 40
0
 40
0
 40
1
 40
1
 40
1
 40
1
 10
1.073023
 20
3.217646
 30
0.0
 10
1.074694
 20
3.215971
 30
0.0
 10
1.075512
 20
3.213722
 30
0.0
 10
1.075476
 20
3.210900
 30
0.0
  0
SPLINE
  5
281
100
AcDbEntity
  8
Your_Design
 62
1
100
AcDbSpline
 70
8
 71
3
 72
8
 73
4
 74
0
 40
0
 40
0
 40
0
 40
0
 40
1
 40
1
 40
1
 40
1
 10
1.075476
 20
3.210900
 30
0.0
 10
1.075459
 20
3.208007
 30
0.0
 10
1.074321
 20
3.205793
 30
0.0
 10
1.072063
 20
3.204260
 30
0.0
  0
SPLINE
  5
282
100
AcDbEntity
  8
Your_Design
 62
1
100
AcDbSpline
 70
8
 71
3
 72
8
 73
4
 74
0
 40
0
 40
0
 40
0
 40
0
 40
1
 40
1
 40
1
 40
1
 10
1.072063
 20
3.204260
 30
0.0
 10
1.069805
 20
3.202727
 30
0.0
 10
1.066534
 20
3.201953
 30
0.0
 10
1.062250
 20
3.201940
 30
0.0
  0
SPLINE
  5
283
100
AcDbEntity
  8
Your_Design
 62
1
100
AcDbSpline
 70
8
 71
3
 72
8
 73
4
 74
0
 40
0
 40
0
 40
0
 40
0
 40
1
 40
1
 40
1
 40
1
 10
1.062250
 20
3.201940
 30
0.0
 10
1.057028
 20
3.202064
 30
0.0
 10
1.051846
 20
3.203096
 30
0.0
 10
1.046704
 20
3.205033
 30
0.0
  0
SPLINE
  5
284
100
AcDbEntity
  8
Your_Design
 62
1
100
AcDbSpline
 70
8
 71
3
 72
8
 73
4
 74
0
 40
0
 40
0
 40
0
 40
0
 40
1
 40
1
 40
1
 40
1
 10
1.046704
 20
3.205033
 30
0.0
 10
1.041561
 20
3.206971
 30
0.0
 10
1.037073
 20
3.209069
 30
0.0
 10
1.033237
 20
3.211327
 30
0.0
  0
LWPOLYLINE
  5
285
100
AcDbEntity
  8
Your_Design
 62
1
100
AcDbPolyline
 90
2
 70
1
 10
1.054570
 20
3.225620
 30
0.0
 10
1.064810
 20
3.221993
 30
0.0
  0
SPLINE
  5
286
100
AcDbEntity
  8
Your_Design
 62
1
100
AcDbSpline
 70
8
 71
3
 72
8
 73
4
 74
0
 40
0
 40
0
 40
0
 40
0
 40
1
 40
1
 40
1
 40
1
 10
1.027264
 20
3.184447
 30
0.0
 10
1.031113
 20
3.182522
 30
0.0
 10
1.036321
 20
3.180718
 30
0.0
 10
1.042890
 20
3.179034
 30
0.0
  0
SPLINE
  5
287
100
AcDbEntity
  8
Your_Design
 62
1
100
AcDbSpline
 70
8
 71
3
 72
8
 73
4
 74
0
 40
0
 40
0
 40
0
 40
0
 40
1
 40
1
 40
1
 40
1
 10
1.042890
 20
3.179034
 30
0.0
 10
1.049459
 20
3.177349
 30
0.0
 10
1.056694
 20
3.176451
 30
0.0
 10
1.064597
 20
3.176340
 30
0.0
  0
SPLINE
  5
288
100
AcDbEntity
  8
Your_Design
 62
1
100
AcDbSpline
 70
8
 71
3
 72
8
 73
4
 74
0
 40
0
 40
0
 40
0
 40
0
 40
1
 40
1
 40
1
 40
1
 10
1.064597
 20
3.176340
 30
0.0
 10
1.077743
 20
3.176643
 30
0.0
 10
1.088036
 20
3.180305
 30
0.0
 10
1.095476
 20
3.187327
 30
0.0
  0
SPLINE
  5
289
100
AcDbEntity
  8
Your_Design
 62
1
100
AcDbSpline
 70
8
 71
3
 72
8
 73
4
 74
0
 40
0
 40
0
 40
0
 40
0
 40
1
 40
1
 40
1
 40
1
 10
1.095476
 20
3.187327
 30
0.0
 10
1.102916
 20
3.194349
 30
0.0
 10
1.106703
 20
3.202918
 30
0.0
 10
1.106836
 20
3.213033
 30
0.0
  0
SPLINE
  5
28a
100
AcDbEntity
  8
Your_Design
 62
1
100
AcDbSpline
 70
8
 71
3
 72
8
 73
4
 74
0
 40
0
 40
0
 40
0
 40
0
 40
1
 40
1
 40
1
 40
1
 10
1.106836
 20
3.213033
 30
0.0
 10
1.106983
 20
3.220393
 30
0.0
 10
1.105143
 20
3.226740
 30
0.0
 10
1.101316
 20
3.232073
 30
0.0
  0
SPLINE
  5
28b
100
AcDbEntity
  8
Your_Design
 62
1
100
AcDbSpline
 70
8
 71
3
 72
8
 73
4
 74
0
 40
0
 40
0
 40
0
 40
0
 40
1
 40
1
 40
1
 40
1
 10
1.101316
 20
3.232073
 30
0.0
 10
1.097489
 20
3.237406
 30
0.0
 10
1.090796
 20
3.241726
 30
0.0
 10
1.081236
 20
3.245033
 30
0.0
  0
LWPOLYLINE
  5
28c
100
AcDbEntity
  8
Your_Design
 62
1
100
AcDbPolyline
 90
2
 70
1
 10
1.033237
 20
3.211327
 30
0.0
 10
1.027264
 20
3.184447
 30
0.0
  0
SPLINE
  5
28d
100
AcDbEntity
  8
Your_Design
 62
1
100
AcDbSpline
 70
8
 71
3
 72
8
 73
4
 74
0
 40
0
 40
0
 40
0
 40
0
 40
1
 40
1
 40
1
 40
1
 10
1.070997
 20
3.248659
 30
0.0
 10
1.067388
 20
3.249913
 30
0.0
 10
1.064739
 20
3.251246
 30
0.0
 10
1.063050
 20
3.252659
 30
0.0
  0
SPLINE
  5
28e
100
AcDbEntity
  8
Your_Design
 62
1
100
AcDbSpline
 70
8
 71
3
 72
8
 73
4
 74
0
 40
0
 40
0
 40
0
 40
0
 40
1
 40
1
 40
1
 40
1
 10
1.063050
 20
3.252659
 30
0.0
 10
1.061361
 20
3.254073
 30
0.0
 10
1.060526
 20
3.255726
 30
0.0
 10
1.060543
 20
3.257619
 30
0.0
  0
SPLINE
  5
28f
100
AcDbEntity
  8
Your_Design
 62
1
100
AcDbSpline
 70
8
 71
3
 72
8
 73
4
 74
0
 40
0
 40
0
 40
0
 40
0
 40
1
 40
1
 40
1
 40
1
 10
1.060543
 20
3.257619
 30
0.0
 10
1.060512
 20
3.260206
 30
0.0
 10
1.061374
 20
3.262232
 30
0.0
 10
1.063130
 20
3.263699
 30
0.0
  0
SPLINE
  5
290
100
AcDbEntity
  8
Your_Design
 62
1
100
AcDbSpline
 70
8
 71
3
 72
8
 73
4
 74
0
 40
0
 40
0
 40
0
 40
0
 40
1
 40
1
 40
1
 40
1
 10
1.063130
 20
3.263699
 30
0.0
 10
1.064885
 20
3.265166
 30
0.0
 10
1.067721
 20
3.265912
 30
0.0
 10
1.071637
 20
3.265939
 30
0.0
  0
SPLINE
  5
291
100
AcDbEntity
  8
Your_Design
 62
1
100
AcDbSpline
 70
8
 71
3
 72
8
 73
4
 74
0
 40
0
 40
0
 40
0
 40
0
 40
1
 40
1
 40
1
 40
1
 10
1.071637
 20
3.265939
 30
0.0
 10
1.076139
 20
3.265884
 30
0.0
 10
1.080627
 20
3.265193
 30
0.0
 10
1.085103
 20
3.263859
 30
0.0
  0
SPLINE
  5
292
100
AcDbEntity
  8
Your_Design
 62
1
100
AcDbSpline
 70
8
 71
3
 72
8
 73
4
 74
0
 40
0
 40
0
 40
0
 40
0
 40
1
 40
1
 40
1
 40
1
 10
1.085103
 20
3.263859
 30
0.0
 10
1.089578
 20
3.262526
 30
0.0
 10
1.093907
 20
3.260872
 30
0.0
 10
1.098090
 20
3.258899
 30
0.0
  0
LWPOLYLINE
  5
293
100
AcDbEntity
  8
Your_Design
 62
1
100
AcDbPolyline
 90
2
 70
1
 10
1.081236
 20
3.245033
 30
0.0
 10
1.070997
 20
3.248659
 30
0.0
  0
SPLINE
  5
294
100
AcDbEntity
  8
Your_Design
 62
1
100
AcDbSpline
 70
8
 71
3
 72
8
 73
4
 74
0
 40
0
 40
0
 40
0
 40
0
 40
1
 40
1
 40
1
 40
1
 10
1.214596
 20
3.225193
 30
0.0
 10
1.215458
 20
3.228646
 30
0.0
 10
1.216134
 20
3.232353
 30
0.0
 10
1.216623
 20
3.236313
 30
0.0
  0
SPLINE
  5
295
100
AcDbEntity
  8
Your_Design
 62
1
100
AcDbSpline
 70
8
 71
3
 72
8
 73
4
 74
0
 40
0
 40
0
 40
0
 40
0
 40
1
 40
1
 40
1
 40
1
 10
1.216623
 20
3.236313
 30
0.0
 10
1.217111
 20
3.240273
 30
0.0
 10
1.217360
 20
3.244246
 30
0.0
 10
1.217369
 20
3.248233
 30
0.0
  0
SPLINE
  5
296
100
AcDbEntity
  8
Your_Design
 62
1
100
AcDbSpline
 70
8
 71
3
 72
8
 73
4
 74
0
 40
0
 40
0
 40
0
 40
0
 40
1
 40
1
 40
1
 40
1
 10
1.217369
 20
3.248233
 30
0.0
 10
1.217469
 20
3.261112
 30
0.0
 10
1.214120
 20
3.271726
 30
0.0
 10
1.207316
 20
3.280072
 30
0.0
  0
SPLINE
  5
297
100
AcDbEntity
  8
Your_Design
 62
1
100
AcDbSpline
 70
8
 71
3
 72
8
 73
4
 74
0
 40
0
 40
0
 40
0
 40
0
 40
1
 40
1
 40
1
 40
1
 10
1.207316
 20
3.280072
 30
0.0
 10
1.200512
 20
3.288419
 30
0.0
 10
1.189641
 20
3.292739
 30
0.0
 10
1.174703
 20
3.293032
 30
0.0
  0
SPLINE
  5
298
100
AcDbEntity
  8
Your_Design
 62
1
100
AcDbSpline
 70
8
 71
3
 72
8
 73
4
 74
0
 40
0
 40
0
 40
0
 40
0
 40
1
 40
1
 40
1
 40
1
 10
1.174703
 20
3.293032
 30
0.0
 10
1.159259
 20
3.292703
 30
0.0
 10
1.147055
 20
3.287121
 30
0.0
 10
1.138090
 20
3.276286
 30
0.0
  0
SPLINE
  5
299
100
AcDbEntity
  8
Your_Design
 62
1
100
AcDbSpline
 70
8
 71
3
 72
8
 73
4
 74
0
 40
0
 40
0
 40
0
 40
0
 40
1
 40
1
 40
1
 40
1
 10
1.138090
 20
3.276286
 30
0.0
 10
1.129126
 20
3.265450
 30
0.0
 10
1.124548
 20
3.251335
 30
0.0
 10
1.124357
 20
3.233940
 30
0.0
  0
SPLINE
  5
29a
100
AcDbEntity
  8
Your_Design
 62
1
100
AcDbSpline
 70
8
 71
3
 72
8
 73
4
 74
0
 40
0
 40
0
 40
0
 40
0
 40
1
 40
1
 40
1
 40
1
 10
1.124357
 20
3.233940
 30
0.0
 10
1.124324
 20
3.216758
 30
0.0
 10
1.128446
 20
3.202802
 30
0.0
 10
1.136730
 20
3.192073
 30
0.0
  0
SPLINE
  5
29b
100
AcDbEntity
  8
Your_Design
 62
1
100
AcDbSpline
 70
8
 71
3
 72
8
 73
4
 74
0
 40
0
 40
0
 40
0
 40
0
 40
1
 40
1
 40
1
 40
1
 10
1.136730
 20
3.192073
 30
0.0
 10
1.145015
 20
3.181345
 30
0.0
 10
1.157672
 20
3.175816
 30
0.0
 10
1.174703
 20
3.175487
 30
0.0
  0
SPLINE
  5
29c
100
AcDbEntity
  8
Your_Design
 62
1
100
AcDbSpline
 70
8
 71
3
 72
8
 73
4
 74
0
 40
0
 40
0
 40
0
 40
0
 40
1
 40
1
 40
1
 40
1
 10
1.174703
 20
3.175487
 30
0.0
 10
1.183667
 20
3.175531
 30
0.0
 10
1.191658
 20
3.176727
 30
0.0
 10
1.198676
 20
3.179087
 30
0.0
  0
SPLINE
  5
29d
100
AcDbEntity
  8
Your_Design
 62
1
100
AcDbSpline
 70
8
 71
3
 72
8
 73
4
 74
0
 40
0
 40
0
 40
0
 40
0
 40
1
 40
1
 40
1
 40
1
 10
1.198676
 20
3.179087
 30
0.0
 10
1.205694
 20
3.181447
 30
0.0
 10
1.211711
 20
3.184727
 30
0.0
 10
1.216729
 20
3.188927
 30
0.0
  0
LWPOLYLINE
  5
29e
100
AcDbEntity
  8
Your_Design
 62
1
100
AcDbPolyline
 90
2
 70
1
 10
1.098090
 20
3.258899
 30
0.0
 10
1.105343
 20
3.284712
 30
0.0
  0
SPLINE
  5
29f
100
AcDbEntity
  8
Your_Design
 62
1
100
AcDbSpline
 70
8
 71
3
 72
8
 73
4
 74
0
 40
0
 40
0
 40
0
 40
0
 40
1
 40
1
 40
1
 40
1
 10
1.205423
 20
3.211967
 30
0.0
 10
1.202205
 20
3.209113
 30
0.0
 10
1.198400
 20
3.206713
 30
0.0
 10
1.194010
 20
3.204767
 30
0.0
  0
SPLINE
  5
2a0
100
AcDbEntity
  8
Your_Design
 62
1
100
AcDbSpline
 70
8
 71
3
 72
8
 73
4
 74
0
 40
0
 40
0
 40
0
 40
0
 40
1
 40
1
 40
1
 40
1
 10
1.194010
 20
3.204767
 30
0.0
 10
1.189618
 20
3.202820
 30
0.0
 10
1.184747
 20
3.201807
 30
0.0
 10
1.179396
 20
3.201727
 30
0.0
  0
SPLINE
  5
2a1
100
AcDbEntity
  8
Your_Design
 62
1
100
AcDbSpline
 70
8
 71
3
 72
8
 73
4
 74
0
 40
0
 40
0
 40
0
 40
0
 40
1
 40
1
 40
1
 40
1
 10
1.179396
 20
3.201727
 30
0.0
 10
1.171068
 20
3.201838
 30
0.0
 10
1.165005
 20
3.204016
 30
0.0
 10
1.161210
 20
3.208260
 30
0.0
  0
SPLINE
  5
2a2
100
AcDbEntity
  8
Your_Design
 62
1
100
AcDbSpline
 70
8
 71
3
 72
8
 73
4
 74
0
 40
0
 40
0
 40
0
 40
0
 40
1
 40
1
 40
1
 40
1
 10
1.161210
 20
3.208260
 30
0.0
 10
1.157414
 20
3.212504
 30
0.0
 10
1.155299
 20
3.218149
 30
0.0
 10
1.154863
 20
3.225193
 30
0.0
  0
LWPOLYLINE
  5
2a3
100
AcDbEntity
  8
Your_Design
 62
1
100
AcDbPolyline
 90
2
 70
1
 10
1.216729
 20
3.188927
 30
0.0
 10
1.205423
 20
3.211967
 30
0.0
  0
SPLINE
  5
2a4
100
AcDbEntity
  8
Your_Design
 62
1
100
AcDbSpline
 70
8
 71
3
 72
8
 73
4
 74
0
 40
0
 40
0
 40
0
 40
0
 40
1
 40
1
 40
1
 40
1
 10
1.156570
 20
3.247806
 30
0.0
 10
1.156988
 20
3.253655
 30
0.0
 10
1.158712
 20
3.258330
 30
0.0
 10
1.161743
 20
3.261833
 30
0.0
  0
SPLINE
  5
2a5
100
AcDbEntity
  8
Your_Design
 62
1
100
AcDbSpline
 70
8
 71
3
 72
8
 73
4
 74
0
 40
0
 40
0
 40
0
 40
0
 40
1
 40
1
 40
1
 40
1
 10
1.161743
 20
3.261833
 30
0.0
 10
1.164774
 20
3.265335
 30
0.0
 10
1.169165
 20
3.267130
 30
0.0
 10
1.174916
 20
3.267219
 30
0.0
  0
SPLINE
  5
2a6
100
AcDbEntity
  8
Your_Design
 62
1
100
AcDbSpline
 70
8
 71
3
 72
8
 73
4
 74
0
 40
0
 40
0
 40
0
 40
0
 40
1
 40
1
 40
1
 40
1
 10
1.174916
 20
3.267219
 30
0.0
 10
1.179561
 20
3.267228
 30
0.0
 10
1.183232
 20
3.266037
 30
0.0
 10
1.185930
 20
3.263646
 30
0.0
  0
SPLINE
  5
2a7
100
AcDbEntity
  8
Your_Design
 62
1
100
AcDbSpline
 70
8
 71
3
 72
8
 73
4
 74
0
 40
0
 40
0
 40
0
 40
0
 40
1
 40
1
 40
1
 40
1
 10
1.185930
 20
3.263646
 30
0.0
 10
1.188627
 20
3.261255
 30
0.0
 10
1.190005
 20
3.257610
 30
0.0
 10
1.190063
 20
3.252713
 30
0.0
  0
SPLINE
  5
2a8
100
AcDbEntity
  8
Your_Design
 62
1
100
AcDbSpline
 70
8
 71
3
 72
8
 73
4
 74
0
 40
0
 40
0
 40
0
 40
0
 40
1
 40
1
 40
1
 40
1
 10
1.190063
 20
3.252713
 30
0.0
 10
1.190063
 20
3.250970
 30
0.0
 10
1.189850
 20
3.249335
 30
0.0
 10
1.189423
 20
3.247806
 30
0.0
  0
LWPOLYLINE
  5
2a9
100
AcDbEntity
  8
Your_Design
 62
1
100
AcDbPolyline
 90
2
 70
1
 10
1.154863
 20
3.225193
 30
0.0
 10
1.214596
 20
3.225193
 30
0.0
  0
SPLINE
  5
2aa
100
AcDbEntity
  8
Your_Design
 62
1
100
AcDbSpline
 70
8
 71
3
 72
8
 73
4
 74
0
 40
0
 40
0
 40
0
 40
0
 40
1
 40
1
 40
1
 40
1
 10
1.239020
 20
3.321405
 30
0.0
 10
1.239109
 20
3.315810
 30
0.0
 10
1.240798
 20
3.311801
 30
0.0
 10
1.244087
 20
3.309379
 30
0.0
  0
SPLINE
  5
2ab
100
AcDbEntity
  8
Your_Design
 62
1
100
AcDbSpline
 70
8
 71
3
 72
8
 73
4
 74
0
 40
0
 40
0
 40
0
 40
0
 40
1
 40
1
 40
1
 40
1
 10
1.244087
 20
3.309379
 30
0.0
 10
1.247376
 20
3.306956
 30
0.0
 10
1.251731
 20
3.305774
 30
0.0
 10
1.257153
 20
3.305832
 30
0.0
  0
SPLINE
  5
2ac
100
AcDbEntity
  8
Your_Design
 62
1
100
AcDbSpline
 70
8
 71
3
 72
8
 73
4
 74
0
 40
0
 40
0
 40
0
 40
0
 40
1
 40
1
 40
1
 40
1
 10
1.257153
 20
3.305832
 30
0.0
 10
1.262362
 20
3.305776
 30
0.0
 10
1.266558
 20
3.306956
 30
0.0
 10
1.269740
 20
3.309379
 30
0.0
  0
SPLINE
  5
2ad
100
AcDbEntity
  8
Your_Design
 62
1
100
AcDbSpline
 70
8
 71
3
 72
8
 73
4
 74
0
 40
0
 40
0
 40
0
 40
0
 40
1
 40
1
 40
1
 40
1
 10
1.269740
 20
3.309379
 30
0.0
 10
1.272922
 20
3.311801
 30
0.0
 10
1.274558
 20
3.315810
 30
0.0
 10
1.274647
 20
3.321405
 30
0.0
  0
SPLINE
  5
2ae
100
AcDbEntity
  8
Your_Design
 62
1
100
AcDbSpline
 70
8
 71
3
 72
8
 73
4
 74
0
 40
0
 40
0
 40
0
 40
0
 40
1
 40
1
 40
1
 40
1
 10
1.274647
 20
3.321405
 30
0.0
 10
1.274558
 20
3.326983
 30
0.0
 10
1.272922
 20
3.330920
 30
0.0
 10
1.269740
 20
3.333218
 30
0.0
  0
SPLINE
  5
2af
100
AcDbEntity
  8
Your_Design
 62
1
100
AcDbSpline
 70
8
 71
3
 72
8
 73
4
 74
0
 40
0
 40
0
 40
0
 40
0
 40
1
 40
1
 40
1
 40
1
 10
1.269740
 20
3.333218
 30
0.0
 10
1.266558
 20
3.335516
 30
0.0
 10
1.262362
 20
3.336627
 30
0.0
 10
1.257153
 20
3.336552
 30
0.0
  0
SPLINE
  5
2b0
100
AcDbEntity
  8
Your_Design
 62
1
100
AcDbSpline
 70
8
 71
3
 72
8
 73
4
 74
0
 40
0
 40
0
 40
0
 40
0
 40
1
 40
1
 40
1
 40
1
 10
1.257153
 20
3.336552
 30
0.0
 10
1.251731
 20
3.336629
 30
0.0
 10
1.247376
 20
3.335516
 30
0.0
 10
1.244087
 20
3.333218
 30
0.0
  0
SPLINE
  5
2b1
100
AcDbEntity
  8
Your_Design
 62
1
100
AcDbSpline
 70
8
 71
3
 72
8
 73
4
 74
0
 40
0
 40
0
 40
0
 40
0
 40
1
 40
1
 40
1
 40
1
 10
1.244087
 20
3.333218
 30
0.0
 10
1.240798
 20
3.330920
 30
0.0
 10
1.239109
 20
3.326983
 30
0.0
 10
1.239020
 20
3.321405
 30
0.0
  0
LWPOLYLINE
  5
2b2
100
AcDbEntity
  8
Your_Design
 62
1
100
AcDbPolyline
 90
2
 70
1
 10
1.189423
 20
3.247806
 30
0.0
 10
1.156570
 20
3.247806
 30
0.0
  0
LWPOLYLINE
  5
2b3
100
AcDbEntity
  8
Your_Design
 62
1
100
AcDbPolyline
 90
2
 70
1
 10
1.239020
 20
3.321405
 30
0.0
 10
1.239020
 20
3.321405
 30
0.0
  0
SPLINE
  5
2b4
100
AcDbEntity
  8
Your_Design
 62
5
100
AcDbSpline
 70
8
 71
3
 72
8
 73
4
 74
0
 40
0
 40
0
 40
0
 40
0
 40
1
 40
1
 40
1
 40
1
 10
1.243831
 20
6.828358
 30
0.0
 10
1.243831
 20
6.864085
 30
0.0
 10
1.224771
 20
6.897098
 30
0.0
 10
1.193831
 20
6.914961
 30
0.0
  0
SPLINE
  5
2b5
100
AcDbEntity
  8
Your_Design
 62
5
100
AcDbSpline
 70
8
 71
3
 72
8
 73
4
 74
0
 40
0
 40
0
 40
0
 40
0
 40
1
 40
1
 40
1
 40
1
 10
1.193831
 20
6.914961
 30
0.0
 10
1.162891
 20
6.932824
 30
0.0
 10
1.124771
 20
6.932824
 30
0.0
 10
1.093831
 20
6.914961
 30
0.0
  0
SPLINE
  5
2b6
100
AcDbEntity
  8
Your_Design
 62
5
100
AcDbSpline
 70
8
 71
3
 72
8
 73
4
 74
0
 40
0
 40
0
 40
0
 40
0
 40
1
 40
1
 40
1
 40
1
 10
1.093831
 20
6.914961
 30
0.0
 10
1.062891
 20
6.897098
 30
0.0
 10
1.043831
 20
6.864085
 30
0.0
 10
1.043831
 20
6.828358
 30
0.0
  0
SPLINE
  5
2b7
100
AcDbEntity
  8
Your_Design
 62
5
100
AcDbSpline
 70
8
 71
3
 72
8
 73
4
 74
0
 40
0
 40
0
 40
0
 40
0
 40
1
 40
1
 40
1
 40
1
 10
1.043831
 20
6.828358
 30
0.0
 10
1.043831
 20
6.792632
 30
0.0
 10
1.062891
 20
6.759619
 30
0.0
 10
1.093831
 20
6.741756
 30
0.0
  0
SPLINE
  5
2b8
100
AcDbEntity
  8
Your_Design
 62
5
100
AcDbSpline
 70
8
 71
3
 72
8
 73
4
 74
0
 40
0
 40
0
 40
0
 40
0
 40
1
 40
1
 40
1
 40
1
 10
1.093831
 20
6.741756
 30
0.0
 10
1.124771
 20
6.723893
 30
0.0
 10
1.162891
 20
6.723893
 30
0.0
 10
1.193831
 20
6.741756
 30
0.0
  0
SPLINE
  5
2b9
100
AcDbEntity
  8
Your_Design
 62
5
100
AcDbSpline
 70
8
 71
3
 72
8
 73
4
 74
0
 40
0
 40
0
 40
0
 40
0
 40
1
 40
1
 40
1
 40
1
 10
1.193831
 20
6.741756
 30
0.0
 10
1.224771
 20
6.759619
 30
0.0
 10
1.243831
 20
6.792632
 30
0.0
 10
1.243831
 20
6.828358
 30
0.0
  0
LWPOLYLINE
  5
2ba
100
AcDbEntity
  8
Your_Design
 62
1
100
AcDbPolyline
 90
5
 70
1
 10
1.272513
 20
3.178474
 30
0.0
 10
1.272513
 20
3.290046
 30
0.0
 10
1.241367
 20
3.290046
 30
0.0
 10
1.241367
 20
3.178474
 30
0.0
 10
1.272513
 20
3.178474
 30
0.0
  0
SPLINE
  5
2bb
100
AcDbEntity
  8
Your_Design
 62
5
100
AcDbSpline
 70
8
 71
3
 72
8
 73
4
 74
0
 40
0
 40
0
 40
0
 40
0
 40
1
 40
1
 40
1
 40
1
 10
0.863831
 20
6.828347
 30
0.0
 10
0.863831
 20
6.864073
 30
0.0
 10
0.844771
 20
6.897086
 30
0.0
 10
0.813831
 20
6.914949
 30
0.0
  0
SPLINE
  5
2bc
100
AcDbEntity
  8
Your_Design
 62
5
100
AcDbSpline
 70
8
 71
3
 72
8
 73
4
 74
0
 40
0
 40
0
 40
0
 40
0
 40
1
 40
1
 40
1
 40
1
 10
0.813831
 20
6.914949
 30
0.0
 10
0.782891
 20
6.932812
 30
0.0
 10
0.744771
 20
6.932812
 30
0.0
 10
0.713831
 20
6.914949
 30
0.0
  0
SPLINE
  5
2bd
100
AcDbEntity
  8
Your_Design
 62
5
100
AcDbSpline
 70
8
 71
3
 72
8
 73
4
 74
0
 40
0
 40
0
 40
0
 40
0
 40
1
 40
1
 40
1
 40
1
 10
0.713831
 20
6.914949
 30
0.0
 10
0.682891
 20
6.897086
 30
0.0
 10
0.663831
 20
6.864073
 30
0.0
 10
0.663831
 20
6.828347
 30
0.0
  0
SPLINE
  5
2be
100
AcDbEntity
  8
Your_Design
 62
5
100
AcDbSpline
 70
8
 71
3
 72
8
 73
4
 74
0
 40
0
 40
0
 40
0
 40
0
 40
1
 40
1
 40
1
 40
1
 10
0.663831
 20
6.828347
 30
0.0
 10
0.663831
 20
6.792620
 30
0.0
 10
0.682891
 20
6.759607
 30
0.0
 10
0.713831
 20
6.741744
 30
0.0
  0
SPLINE
  5
2bf
100
AcDbEntity
  8
Your_Design
 62
5
100
AcDbSpline
 70
8
 71
3
 72
8
 73
4
 74
0
 40
0
 40
0
 40
0
 40
0
 40
1
 40
1
 40
1
 40
1
 10
0.713831
 20
6.741744
 30
0.0
 10
0.744771
 20
6.723881
 30
0.0
 10
0.782891
 20
6.723881
 30
0.0
 10
0.813831
 20
6.741744
 30
0.0
  0
SPLINE
  5
2c0
100
AcDbEntity
  8
Your_Design
 62
5
100
AcDbSpline
 70
8
 71
3
 72
8
 73
4
 74
0
 40
0
 40
0
 40
0
 40
0
 40
1
 40
1
 40
1
 40
1
 10
0.813831
 20
6.741744
 30
0.0
 10
0.844771
 20
6.759607
 30
0.0
 10
0.863831
 20
6.792620
 30
0.0
 10
0.863831
 20
6.828347
 30
0.0
  0
LWPOLYLINE
  5
2c1
100
AcDbEntity
  8
Your_Design
 62
5
100
AcDbPolyline
 90
2
 70
1
 10
1.243831
 20
6.828358
 30
0.0
 10
1.243831
 20
6.828358
 30
0.0
  0
SPLINE
  5
2c2
100
AcDbEntity
  8
Your_Design
 62
5
100
AcDbSpline
 70
8
 71
3
 72
8
 73
4
 74
0
 40
0
 40
0
 40
0
 40
0
 40
1
 40
1
 40
1
 40
1
 10
0.863843
 20
6.428347
 30
0.0
 10
0.863843
 20
6.464073
 30
0.0
 10
0.844783
 20
6.497086
 30
0.0
 10
0.813843
 20
6.514949
 30
0.0
  0
SPLINE
  5
2c3
100
AcDbEntity
  8
Your_Design
 62
5
100
AcDbSpline
 70
8
 71
3
 72
8
 73
4
 74
0
 40
0
 40
0
 40
0
 40
0
 40
1
 40
1
 40
1
 40
1
 10
0.813843
 20
6.514949
 30
0.0
 10
0.782903
 20
6.532812
 30
0.0
 10
0.744783
 20
6.532812
 30
0.0
 10
0.713843
 20
6.514949
 30
0.0
  0
SPLINE
  5
2c4
100
AcDbEntity
  8
Your_Design
 62
5
100
AcDbSpline
 70
8
 71
3
 72
8
 73
4
 74
0
 40
0
 40
0
 40
0
 40
0
 40
1
 40
1
 40
1
 40
1
 10
0.713843
 20
6.514949
 30
0.0
 10
0.682903
 20
6.497086
 30
0.0
 10
0.663843
 20
6.464073
 30
0.0
 10
0.663843
 20
6.428347
 30
0.0
  0
SPLINE
  5
2c5
100
AcDbEntity
  8
Your_Design
 62
5
100
AcDbSpline
 70
8
 71
3
 72
8
 73
4
 74
0
 40
0
 40
0
 40
0
 40
0
 40
1
 40
1
 40
1
 40
1
 10
0.663843
 20
6.428347
 30
0.0
 10
0.663843
 20
6.392620
 30
0.0
 10
0.682903
 20
6.359607
 30
0.0
 10
0.713843
 20
6.341744
 30
0.0
  0
SPLINE
  5
2c6
100
AcDbEntity
  8
Your_Design
 62
5
100
AcDbSpline
 70
8
 71
3
 72
8
 73
4
 74
0
 40
0
 40
0
 40
0
 40
0
 40
1
 40
1
 40
1
 40
1
 10
0.713843
 20
6.341744
 30
0.0
 10
0.744783
 20
6.323881
 30
0.0
 10
0.782903
 20
6.323881
 30
0.0
 10
0.813843
 20
6.341744
 30
0.0
  0
SPLINE
  5
2c7
100
AcDbEntity
  8
Your_Design
 62
5
100
AcDbSpline
 70
8
 71
3
 72
8
 73
4
 74
0
 40
0
 40
0
 40
0
 40
0
 40
1
 40
1
 40
1
 40
1
 10
0.813843
 20
6.341744
 30
0.0
 10
0.844783
 20
6.359607
 30
0.0
 10
0.863843
 20
6.392620
 30
0.0
 10
0.863843
 20
6.428347
 30
0.0
  0
LWPOLYLINE
  5
2c8
100
AcDbEntity
  8
Your_Design
 62
5
100
AcDbPolyline
 90
2
 70
1
 10
0.863831
 20
6.828347
 30
0.0
 10
0.863831
 20
6.828347
 30
0.0
  0
SPLINE
  5
2c9
100
AcDbEntity
  8
Your_Design
 62
5
100
AcDbSpline
 70
8
 71
3
 72
8
 73
4
 74
0
 40
0
 40
0
 40
0
 40
0
 40
1
 40
1
 40
1
 40
1
 10
1.243843
 20
6.428358
 30
0.0
 10
1.243843
 20
6.464085
 30
0.0
 10
1.224783
 20
6.497098
 30
0.0
 10
1.193843
 20
6.514961
 30
0.0
  0
SPLINE
  5
2ca
100
AcDbEntity
  8
Your_Design
 62
5
100
AcDbSpline
 70
8
 71
3
 72
8
 73
4
 74
0
 40
0
 40
0
 40
0
 40
0
 40
1
 40
1
 40
1
 40
1
 10
1.193843
 20
6.514961
 30
0.0
 10
1.162903
 20
6.532824
 30
0.0
 10
1.124783
 20
6.532824
 30
0.0
 10
1.093843
 20
6.514961
 30
0.0
  0
SPLINE
  5
2cb
100
AcDbEntity
  8
Your_Design
 62
5
100
AcDbSpline
 70
8
 71
3
 72
8
 73
4
 74
0
 40
0
 40
0
 40
0
 40
0
 40
1
 40
1
 40
1
 40
1
 10
1.093843
 20
6.514961
 30
0.0
 10
1.062903
 20
6.497098
 30
0.0
 10
1.043843
 20
6.464085
 30
0.0
 10
1.043843
 20
6.428358
 30
0.0
  0
SPLINE
  5
2cc
100
AcDbEntity
  8
Your_Design
 62
5
100
AcDbSpline
 70
8
 71
3
 72
8
 73
4
 74
0
 40
0
 40
0
 40
0
 40
0
 40
1
 40
1
 40
1
 40
1
 10
1.043843
 20
6.428358
 30
0.0
 10
1.043843
 20
6.392632
 30
0.0
 10
1.062903
 20
6.359619
 30
0.0
 10
1.093843
 20
6.341756
 30
0.0
  0
SPLINE
  5
2cd
100
AcDbEntity
  8
Your_Design
 62
5
100
AcDbSpline
 70
8
 71
3
 72
8
 73
4
 74
0
 40
0
 40
0
 40
0
 40
0
 40
1
 40
1
 40
1
 40
1
 10
1.093843
 20
6.341756
 30
0.0
 10
1.124783
 20
6.323893
 30
0.0
 10
1.162903
 20
6.323893
 30
0.0
 10
1.193843
 20
6.341756
 30
0.0
  0
SPLINE
  5
2ce
100
AcDbEntity
  8
Your_Design
 62
5
100
AcDbSpline
 70
8
 71
3
 72
8
 73
4
 74
0
 40
0
 40
0
 40
0
 40
0
 40
1
 40
1
 40
1
 40
1
 10
1.193843
 20
6.341756
 30
0.0
 10
1.224783
 20
6.359619
 30
0.0
 10
1.243843
 20
6.392632
 30
0.0
 10
1.243843
 20
6.428358
 30
0.0
  0
LWPOLYLINE
  5
2cf
100
AcDbEntity
  8
Your_Design
 62
5
100
AcDbPolyline
 90
2
 70
1
 10
0.863843
 20
6.428347
 30
0.0
 10
0.863843
 20
6.428347
 30
0.0
  0
LWPOLYLINE
  5
2d0
100
AcDbEntity
  8
Your_Design
 62
5
100
AcDbPolyline
 90
2
 70
1
 10
1.243843
 20
6.428358
 30
0.0
 10
1.243843
 20
6.428358
 30
0.0
  0
LWPOLYLINE
  5
2d1
100
AcDbEntity
  8
Your_Design
 62
5
100
AcDbPolyline
 90
2
 70
0
 10
2.045085
 20
7.228353
 30
0.0
 10
2.233885
 20
7.228353
 30
0.0
  0
LWPOLYLINE
  5
2d2
100
AcDbEntity
  8
Your_Design
 62
5
100
AcDbPolyline
 90
2
 70
0
 10
2.422685
 20
7.228353
 30
0.0
 10
2.611485
 20
7.228353
 30
0.0
  0
LWPOLYLINE
  5
2d3
100
AcDbEntity
  8
Your_Design
 62
5
100
AcDbPolyline
 90
4
 70
0
 10
1.856285
 20
7.228353
 30
0.0
 10
1.856285
 20
7.322753
 30
0.0
 10
2.045085
 20
7.322753
 30
0.0
 10
2.045085
 20
7.228353
 30
0.0
  0
LWPOLYLINE
  5
2d4
100
AcDbEntity
  8
Your_Design
 62
5
100
AcDbPolyline
 90
4
 70
0
 10
2.233885
 20
7.228353
 30
0.0
 10
2.233885
 20
7.322753
 30
0.0
 10
2.422685
 20
7.322753
 30
0.0
 10
2.422685
 20
7.228353
 30
0.0
  0
LWPOLYLINE
  5
2d5
100
AcDbEntity
  8
Your_Design
 62
5
100
AcDbPolyline
 90
4
 70
0
 10
2.611485
 20
7.228353
 30
0.0
 10
2.611485
 20
7.322753
 30
0.0
 10
2.800285
 20
7.322753
 30
0.0
 10
2.800285
 20
7.228353
 30
0.0
  0
LWPOLYLINE
  5
2d6
100
AcDbEntity
  8
Your_Design
 62
5
100
AcDbPolyline
 90
2
 70
0
 10
1.202872
 20
2.882265
 30
0.0
 10
1.014072
 20
2.882265
 30
0.0
  0
LWPOLYLINE
  5
2d7
100
AcDbEntity
  8
Your_Design
 62
5
100
AcDbPolyline
 90
2
 70
0
 10
0.825272
 20
2.882265
 30
0.0
 10
0.636472
 20
2.882265
 30
0.0
  0
LWPOLYLINE
  5
2d8
100
AcDbEntity
  8
Your_Design
 62
5
100
AcDbPolyline
 90
4
 70
0
 10
0.447672
 20
2.882265
 30
0.0
 10
0.447672
 20
2.787865
 30
0.0
 10
0.636472
 20
2.787865
 30
0.0
 10
0.636472
 20
2.882265
 30
0.0
  0
LWPOLYLINE
  5
2d9
100
AcDbEntity
  8
Your_Design
 62
5
100
AcDbPolyline
 90
4
 70
0
 10
0.825272
 20
2.882265
 30
0.0
 10
0.825272
 20
2.787865
 30
0.0
 10
1.014072
 20
2.787865
 30
0.0
 10
1.014072
 20
2.882265
 30
0.0
  0
LWPOLYLINE
  5
2da
100
AcDbEntity
  8
Your_Design
 62
5
100
AcDbPolyline
 90
4
 70
0
 10
1.202872
 20
2.882265
 30
0.0
 10
1.202872
 20
2.787865
 30
0.0
 10
1.391672
 20
2.787865
 30
0.0
 10
1.391672
 20
2.882265
 30
0.0
  0
LWPOLYLINE
  5
2db
100
AcDbEntity
  8
Your_Design
 62
5
100
AcDbPolyline
 90
4
 70
0
 10
0.447672
 20
2.187865
 30
0.0
 10
0.447672
 20
2.093465
 30
0.0
 10
0.636472
 20
2.093465
 30
0.0
 10
0.636472
 20
2.187865
 30
0.0
  0
LWPOLYLINE
  5
2dc
100
AcDbEntity
  8
Your_Design
 62
5
100
AcDbPolyline
 90
4
 70
0
 10
0.825272
 20
2.187865
 30
0.0
 10
0.825272
 20
2.093465
 30
0.0
 10
1.014072
 20
2.093465
 30
0.0
 10
1.014072
 20
2.187865
 30
0.0
  0
LWPOLYLINE
  5
2dd
100
AcDbEntity
  8
Your_Design
 62
5
100
AcDbPolyline
 90
4
 70
0
 10
1.202872
 20
2.187865
 30
0.0
 10
1.202872
 20
2.093465
 30
0.0
 10
1.391672
 20
2.093465
 30
0.0
 10
1.391672
 20
2.187865
 30
0.0
  0
LWPOLYLINE
  5
2de
100
AcDbEntity
  8
Your_Design
 62
5
100
AcDbPolyline
 90
2
 70
0
 10
0.447672
 20
2.187865
 30
0.0
 10
0.636472
 20
2.187865
 30
0.0
  0
LWPOLYLINE
  5
2df
100
AcDbEntity
  8
Your_Design
 62
5
100
AcDbPolyline
 90
2
 70
0
 10
0.825272
 20
2.187865
 30
0.0
 10
1.014072
 20
2.187865
 30
0.0
  0
LWPOLYLINE
  5
2e0
100
AcDbEntity
  8
Your_Design
 62
5
100
AcDbPolyline
 90
2
 70
0
 10
1.202872
 20
2.187865
 30
0.0
 10
1.391672
 20
2.187865
 30
0.0
  0
LWPOLYLINE
  5
2e1
100
AcDbEntity
  8
Your_Design
 62
5
100
AcDbPolyline
 90
2
 70
0
 10
1.688216
 20
3.263552
 30
0.0
 10
1.688216
 20
3.028353
 30
0.0
  0
LWPOLYLINE
  5
2e2
100
AcDbEntity
  8
Your_Design
 62
5
100
AcDbPolyline
 90
2
 70
0
 10
3.062754
 20
5.906753
 30
0.0
 10
3.062754
 20
6.095553
 30
0.0
  0
LWPOLYLINE
  5
2e3
100
AcDbEntity
  8
Your_Design
 62
5
100
AcDbPolyline
 90
2
 70
0
 10
3.062754
 20
6.284353
 30
0.0
 10
3.062754
 20
6.473153
 30
0.0
  0
LWPOLYLINE
  5
2e4
100
AcDbEntity
  8
Your_Design
 62
5
100
AcDbPolyline
 90
2
 70
0
 10
3.062754
 20
6.661953
 30
0.0
 10
3.062754
 20
6.850753
 30
0.0
  0
LWPOLYLINE
  5
2e5
100
AcDbEntity
  8
Your_Design
 62
5
100
AcDbPolyline
 90
2
 70
0
 10
3.062754
 20
7.039553
 30
0.0
 10
3.062754
 20
7.322753
 30
0.0
  0
LWPOLYLINE
  5
2e6
100
AcDbEntity
  8
Your_Design
 62
5
100
AcDbPolyline
 90
2
 70
0
 10
3.062754
 20
7.228353
 30
0.0
 10
2.800285
 20
7.228353
 30
0.0
  0
LWPOLYLINE
  5
2e7
100
AcDbEntity
  8
Your_Design
 62
5
100
AcDbPolyline
 90
4
 70
0
 10
3.062754
 20
7.039553
 30
0.0
 10
2.968354
 20
7.039553
 30
0.0
 10
2.968354
 20
6.850753
 30
0.0
 10
3.062754
 20
6.850753
 30
0.0
  0
LWPOLYLINE
  5
2e8
100
AcDbEntity
  8
Your_Design
 62
5
100
AcDbPolyline
 90
4
 70
0
 10
3.062754
 20
6.661953
 30
0.0
 10
2.968354
 20
6.661953
 30
0.0
 10
2.968354
 20
6.473153
 30
0.0
 10
3.062754
 20
6.473153
 30
0.0
  0
LWPOLYLINE
  5
2e9
100
AcDbEntity
  8
Your_Design
 62
5
100
AcDbPolyline
 90
4
 70
0
 10
3.062754
 20
6.284353
 30
0.0
 10
2.968354
 20
6.284353
 30
0.0
 10
2.968354
 20
6.095553
 30
0.0
 10
3.062754
 20
6.095553
 30
0.0
  0
LWPOLYLINE
  5
2ea
100
AcDbEntity
  8
Your_Design
 62
5
100
AcDbPolyline
 90
3
 70
0
 10
3.062754
 20
5.906753
 30
0.0
 10
2.968354
 20
5.906753
 30
0.0
 10
2.968354
 20
5.717953
 30
0.0
  0
LWPOLYLINE
  5
2eb
100
AcDbEntity
  8
Your_Design
 62
5
100
AcDbPolyline
 90
2
 70
0
 10
3.062754
 20
4.773952
 30
0.0
 10
3.062754
 20
4.962753
 30
0.0
  0
LWPOLYLINE
  5
2ec
100
AcDbEntity
  8
Your_Design
 62
5
100
AcDbPolyline
 90
2
 70
0
 10
3.062754
 20
5.151553
 30
0.0
 10
3.062754
 20
5.340353
 30
0.0
  0
LWPOLYLINE
  5
2ed
100
AcDbEntity
  8
Your_Design
 62
5
100
AcDbPolyline
 90
2
 70
0
 10
3.062754
 20
5.529153
 30
0.0
 10
3.062754
 20
5.717953
 30
0.0
  0
LWPOLYLINE
  5
2ee
100
AcDbEntity
  8
Your_Design
 62
5
100
AcDbPolyline
 90
2
 70
0
 10
2.968354
 20
5.717953
 30
0.0
 10
3.062754
 20
5.717953
 30
0.0
  0
LWPOLYLINE
  5
2ef
100
AcDbEntity
  8
Your_Design
 62
5
100
AcDbPolyline
 90
4
 70
0
 10
3.062754
 20
5.529153
 30
0.0
 10
2.968354
 20
5.529153
 30
0.0
 10
2.968354
 20
5.340353
 30
0.0
 10
3.062754
 20
5.340353
 30
0.0
  0
LWPOLYLINE
  5
2f0
100
AcDbEntity
  8
Your_Design
 62
5
100
AcDbPolyline
 90
4
 70
0
 10
3.062754
 20
5.151553
 30
0.0
 10
2.968354
 20
5.151553
 30
0.0
 10
2.968354
 20
4.962753
 30
0.0
 10
3.062754
 20
4.962753
 30
0.0
  0
LWPOLYLINE
  5
2f1
100
AcDbEntity
  8
Your_Design
 62
5
100
AcDbPolyline
 90
3
 70
0
 10
3.062754
 20
4.773952
 30
0.0
 10
2.968354
 20
4.773952
 30
0.0
 10
2.968354
 20
4.585152
 30
0.0
  0
LWPOLYLINE
  5
2f2
100
AcDbEntity
  8
Your_Design
 62
5
100
AcDbPolyline
 90
2
 70
0
 10
3.062754
 20
3.641152
 30
0.0
 10
3.062754
 20
3.829952
 30
0.0
  0
LWPOLYLINE
  5
2f3
100
AcDbEntity
  8
Your_Design
 62
5
100
AcDbPolyline
 90
2
 70
0
 10
3.062754
 20
4.018752
 30
0.0
 10
3.062754
 20
4.207552
 30
0.0
  0
LWPOLYLINE
  5
2f4
100
AcDbEntity
  8
Your_Design
 62
5
100
AcDbPolyline
 90
2
 70
0
 10
3.062754
 20
4.396352
 30
0.0
 10
3.062754
 20
4.585152
 30
0.0
  0
LWPOLYLINE
  5
2f5
100
AcDbEntity
  8
Your_Design
 62
5
100
AcDbPolyline
 90
2
 70
0
 10
2.968354
 20
4.585152
 30
0.0
 10
3.062754
 20
4.585152
 30
0.0
  0
LWPOLYLINE
  5
2f6
100
AcDbEntity
  8
Your_Design
 62
5
100
AcDbPolyline
 90
4
 70
0
 10
3.062754
 20
4.396352
 30
0.0
 10
2.968354
 20
4.396352
 30
0.0
 10
2.968354
 20
4.207552
 30
0.0
 10
3.062754
 20
4.207552
 30
0.0
  0
LWPOLYLINE
  5
2f7
100
AcDbEntity
  8
Your_Design
 62
5
100
AcDbPolyline
 90
4
 70
0
 10
3.062754
 20
4.018752
 30
0.0
 10
2.968354
 20
4.018752
 30
0.0
 10
2.968354
 20
3.829952
 30
0.0
 10
3.062754
 20
3.829952
 30
0.0
  0
LWPOLYLINE
  5
2f8
100
AcDbEntity
  8
Your_Design
 62
5
100
AcDbPolyline
 90
3
 70
0
 10
3.062754
 20
3.641152
 30
0.0
 10
2.968354
 20
3.641152
 30
0.0
 10
2.968354
 20
3.452352
 30
0.0
  0
LWPOLYLINE
  5
2f9
100
AcDbEntity
  8
Your_Design
 62
5
100
AcDbPolyline
 90
2
 70
0
 10
3.062754
 20
3.263552
 30
0.0
 10
3.062754
 20
3.452352
 30
0.0
  0
LWPOLYLINE
  5
2fa
100
AcDbEntity
  8
Your_Design
 62
5
100
AcDbPolyline
 90
2
 70
0
 10
2.968354
 20
3.452352
 30
0.0
 10
3.062754
 20
3.452352
 30
0.0
  0
LWPOLYLINE
  5
2fb
100
AcDbEntity
  8
Your_Design
 62
5
100
AcDbPolyline
 90
3
 70
0
 10
3.062754
 20
3.263552
 30
0.0
 10
2.968354
 20
3.263552
 30
0.0
 10
2.968354
 20
3.028353
 30
0.0
  0
LWPOLYLINE
  5
2fc
100
AcDbEntity
  8
Your_Design
 62
5
100
AcDbPolyline
 90
2
 70
0
 10
0.447672
 20
2.882265
 30
0.0
 10
0.185202
 20
2.882265
 30
0.0
  0
LWPOLYLINE
  5
2fd
100
AcDbEntity
  8
Your_Design
 62
5
100
AcDbPolyline
 90
2
 70
0
 10
1.391672
 20
2.882265
 30
0.0
 10
1.654141
 20
2.882265
 30
0.0
  0
LWPOLYLINE
  5
2fe
100
AcDbEntity
  8
Your_Design
 62
5
100
AcDbPolyline
 90
2
 70
0
 10
1.654141
 20
1.843865
 30
0.0
 10
1.654141
 20
1.740665
 30
0.0
  0
LWPOLYLINE
  5
2ff
100
AcDbEntity
  8
Your_Design
 62
5
100
AcDbPolyline
 90
2
 70
0
 10
1.654141
 20
1.843865
 30
0.0
 10
1.559741
 20
1.843865
 30
0.0
  0
LWPOLYLINE
  5
300
100
AcDbEntity
  8
Your_Design
 62
5
100
AcDbPolyline
 90
3
 70
0
 10
1.559741
 20
2.787865
 30
0.0
 10
1.654141
 20
2.787865
 30
0.0
 10
1.654141
 20
2.882265
 30
0.0
  0
LWPOLYLINE
  5
301
100
AcDbEntity
  8
Your_Design
 62
5
100
AcDbPolyline
 90
2
 70
0
 10
0.185202
 20
2.221465
 30
0.0
 10
0.185202
 20
2.032665
 30
0.0
  0
LWPOLYLINE
  5
302
100
AcDbEntity
  8
Your_Design
 62
5
100
AcDbPolyline
 90
2
 70
0
 10
0.185202
 20
1.843865
 30
0.0
 10
0.185202
 20
1.740665
 30
0.0
  0
LWPOLYLINE
  5
303
100
AcDbEntity
  8
Your_Design
 62
5
100
AcDbPolyline
 90
4
 70
0
 10
0.185202
 20
1.843865
 30
0.0
 10
0.279602
 20
1.843865
 30
0.0
 10
0.279602
 20
2.032665
 30
0.0
 10
0.185202
 20
2.032665
 30
0.0
  0
LWPOLYLINE
  5
304
100
AcDbEntity
  8
Your_Design
 62
5
100
AcDbPolyline
 90
4
 70
0
 10
0.185202
 20
2.221465
 30
0.0
 10
0.279602
 20
2.221465
 30
0.0
 10
0.279602
 20
2.410265
 30
0.0
 10
0.185202
 20
2.410265
 30
0.0
  0
LWPOLYLINE
  5
305
100
AcDbEntity
  8
Your_Design
 62
5
100
AcDbPolyline
 90
2
 70
0
 10
0.185202
 20
2.599065
 30
0.0
 10
0.185202
 20
2.410265
 30
0.0
  0
LWPOLYLINE
  5
306
100
AcDbEntity
  8
Your_Design
 62
5
100
AcDbPolyline
 90
5
 70
0
 10
0.185202
 20
2.599065
 30
0.0
 10
0.279602
 20
2.599065
 30
0.0
 10
0.279602
 20
2.787865
 30
0.0
 10
0.185202
 20
2.787865
 30
0.0
 10
0.185202
 20
2.882265
 30
0.0
  0
LWPOLYLINE
  5
307
100
AcDbEntity
  8
Your_Design
 62
5
100
AcDbPolyline
 90
2
 70
0
 10
1.856285
 20
3.028353
 30
0.0
 10
1.856285
 20
2.933953
 30
0.0
  0
LWPOLYLINE
  5
308
100
AcDbEntity
  8
Your_Design
 62
5
100
AcDbPolyline
 90
2
 70
0
 10
2.045085
 20
2.933953
 30
0.0
 10
2.045085
 20
3.028353
 30
0.0
  0
LWPOLYLINE
  5
309
100
AcDbEntity
  8
Your_Design
 62
5
100
AcDbPolyline
 90
2
 70
0
 10
2.611485
 20
3.028353
 30
0.0
 10
2.611485
 20
2.933953
 30
0.0
  0
LWPOLYLINE
  5
30a
100
AcDbEntity
  8
Your_Design
 62
5
100
AcDbPolyline
 90
2
 70
0
 10
2.800285
 20
2.933953
 30
0.0
 10
2.800285
 20
3.028353
 30
0.0
  0
LWPOLYLINE
  5
30b
100
AcDbEntity
  8
Your_Design
 62
5
100
AcDbPolyline
 90
2
 70
0
 10
1.856285
 20
3.028353
 30
0.0
 10
1.688216
 20
3.028353
 30
0.0
  0
SPLINE
  5
30c
100
AcDbEntity
  8
Your_Design
 62
5
100
AcDbSpline
 70
8
 71
3
 72
8
 73
4
 74
0
 40
0
 40
0
 40
0
 40
0
 40
1
 40
1
 40
1
 40
1
 10
2.611485
 20
3.028353
 30
0.0
 10
2.611485
 20
3.184760
 30
0.0
 10
2.484692
 20
3.311553
 30
0.0
 10
2.328285
 20
3.311553
 30
0.0
  0
SPLINE
  5
30d
100
AcDbEntity
  8
Your_Design
 62
5
100
AcDbSpline
 70
8
 71
3
 72
8
 73
4
 74
0
 40
0
 40
0
 40
0
 40
0
 40
1
 40
1
 40
1
 40
1
 10
2.328285
 20
3.311553
 30
0.0
 10
2.171878
 20
3.311553
 30
0.0
 10
2.045085
 20
3.184760
 30
0.0
 10
2.045085
 20
3.028353
 30
0.0
  0
LWPOLYLINE
  5
30e
100
AcDbEntity
  8
Your_Design
 62
5
100
AcDbPolyline
 90
2
 70
0
 10
2.800285
 20
3.028353
 30
0.0
 10
3.079554
 20
3.028353
 30
0.0
  0
LWPOLYLINE
  5
30f
100
AcDbEntity
  8
Your_Design
 62
5
100
AcDbPolyline
 90
9
 70
0
 10
1.559741
 20
2.032665
 30
0.0
 10
1.654141
 20
2.032665
 30
0.0
 10
1.654141
 20
2.221465
 30
0.0
 10
1.559741
 20
2.221465
 30
0.0
 10
1.559741
 20
2.410265
 30
0.0
 10
1.654141
 20
2.410265
 30
0.0
 10
1.654141
 20
2.599065
 30
0.0
 10
1.559741
 20
2.599065
 30
0.0
 10
1.559741
 20
2.787865
 30
0.0
  0
LWPOLYLINE
  5
310
100
AcDbEntity
  8
Your_Design
 62
5
100
AcDbPolyline
 90
12
 70
0
 10
1.593816
 20
7.228353
 30
0.0
 10
1.593816
 20
7.039553
 30
0.0
 10
1.688216
 20
7.039553
 30
0.0
 10
1.688216
 20
6.850753
 30
0.0
 10
1.593816
 20
6.850753
 30
0.0
 10
1.593816
 20
6.661953
 30
0.0
 10
1.688216
 20
6.661953
 30
0.0
 10
1.688216
 20
6.473153
 30
0.0
 10
1.593816
 20
6.473153
 30
0.0
 10
1.593816
 20
6.284353
 30
0.0
 10
1.688216
 20
6.284353
 30
0.0
 10
1.688216
 20
6.095553
 30
0.0
  0
LWPOLYLINE
  5
311
100
AcDbEntity
  8
Your_Design
 62
5
100
AcDbPolyline
 90
2
 70
0
 10
1.593816
 20
4.585152
 30
0.0
 10
1.688216
 20
4.585152
 30
0.0
  0
LWPOLYLINE
  5
312
100
AcDbEntity
  8
Your_Design
 62
5
100
AcDbPolyline
 90
12
 70
0
 10
0.313816
 20
7.228353
 30
0.0
 10
0.313816
 20
7.039553
 30
0.0
 10
0.219416
 20
7.039553
 30
0.0
 10
0.219416
 20
6.850753
 30
0.0
 10
0.313816
 20
6.850753
 30
0.0
 10
0.313816
 20
6.661953
 30
0.0
 10
0.219416
 20
6.661953
 30
0.0
 10
0.219416
 20
6.473153
 30
0.0
 10
0.313816
 20
6.473153
 30
0.0
 10
0.313816
 20
6.284353
 30
0.0
 10
0.219416
 20
6.284353
 30
0.0
 10
0.219416
 20
6.095553
 30
0.0
  0
LWPOLYLINE
  5
313
100
AcDbEntity
  8
Your_Design
 62
5
100
AcDbPolyline
 90
16
 70
0
 10
1.593954
 20
3.028353
 30
0.0
 10
1.425885
 20
3.028353
 30
0.0
 10
1.425885
 20
2.933953
 30
0.0
 10
1.237085
 20
2.933953
 30
0.0
 10
1.237085
 20
3.028353
 30
0.0
 10
1.048285
 20
3.028353
 30
0.0
 10
1.048285
 20
2.933953
 30
0.0
 10
0.859485
 20
2.933953
 30
0.0
 10
0.859485
 20
3.028353
 30
0.0
 10
0.670685
 20
3.028353
 30
0.0
 10
0.670685
 20
2.933953
 30
0.0
 10
0.481885
 20
2.933953
 30
0.0
 10
0.481885
 20
3.028353
 30
0.0
 10
0.313816
 20
3.028353
 30
0.0
 10
0.313816
 20
3.452352
 30
0.0
 10
0.243016
 20
3.452352
 30
0.0
  0
LWPOLYLINE
  5
314
100
AcDbEntity
  8
Your_Design
 62
5
100
AcDbPolyline
 90
4
 70
0
 10
0.243016
 20
3.641152
 30
0.0
 10
0.313816
 20
3.641152
 30
0.0
 10
0.313816
 20
3.829952
 30
0.0
 10
0.243016
 20
3.829952
 30
0.0
  0
LWPOLYLINE
  5
315
100
AcDbEntity
  8
Your_Design
 62
5
100
AcDbPolyline
 90
24
 70
0
 10
0.243016
 20
4.018752
 30
0.0
 10
0.313816
 20
4.018752
 30
0.0
 10
0.313816
 20
4.207552
 30
0.0
 10
0.219416
 20
4.207552
 30
0.0
 10
0.219416
 20
4.396352
 30
0.0
 10
0.313816
 20
4.396352
 30
0.0
 10
0.313816
 20
4.585152
 30
0.0
 10
0.219416
 20
4.585152
 30
0.0
 10
0.219416
 20
4.773952
 30
0.0
 10
0.313816
 20
4.773952
 30
0.0
 10
0.313816
 20
4.962753
 30
0.0
 10
0.219416
 20
4.962753
 30
0.0
 10
0.219416
 20
5.151553
 30
0.0
 10
0.313816
 20
5.151553
 30
0.0
 10
0.313816
 20
5.340353
 30
0.0
 10
0.219416
 20
5.340353
 30
0.0
 10
0.219416
 20
5.529153
 30
0.0
 10
0.313816
 20
5.529153
 30
0.0
 10
0.313816
 20
5.717953
 30
0.0
 10
0.219416
 20
5.717953
 30
0.0
 10
0.219416
 20
5.906753
 30
0.0
 10
0.313816
 20
5.906753
 30
0.0
 10
0.313816
 20
6.095553
 30
0.0
 10
0.219416
 20
6.095553
 30
0.0
  0
LWPOLYLINE
  5
316
100
AcDbEntity
  8
Your_Design
 62
5
100
AcDbPolyline
 90
14
 70
0
 10
1.593816
 20
3.028353
 30
0.0
 10
1.593816
 20
3.452352
 30
0.0
 10
1.688216
 20
3.452352
 30
0.0
 10
1.688216
 20
3.641152
 30
0.0
 10
1.593816
 20
3.641152
 30
0.0
 10
1.593816
 20
3.829952
 30
0.0
 10
1.688216
 20
3.829952
 30
0.0
 10
1.688216
 20
4.018752
 30
0.0
 10
1.593816
 20
4.018752
 30
0.0
 10
1.593816
 20
4.207552
 30
0.0
 10
1.688216
 20
4.207552
 30
0.0
 10
1.688216
 20
4.396352
 30
0.0
 10
1.593816
 20
4.396352
 30
0.0
 10
1.593816
 20
4.585152
 30
0.0
  0
LWPOLYLINE
  5
317
100
AcDbEntity
  8
Your_Design
 62
5
100
AcDbPolyline
 90
8
 70
0
 10
1.688216
 20
4.585152
 30
0.0
 10
1.688216
 20
4.773952
 30
0.0
 10
1.593816
 20
4.773952
 30
0.0
 10
1.593816
 20
4.962753
 30
0.0
 10
1.688216
 20
4.962753
 30
0.0
 10
1.688216
 20
5.151553
 30
0.0
 10
1.593816
 20
5.151553
 30
0.0
 10
1.593816
 20
5.340353
 30
0.0
  0
LWPOLYLINE
  5
318
100
AcDbEntity
  8
Your_Design
 62
5
100
AcDbPolyline
 90
14
 70
0
 10
1.856285
 20
7.228353
 30
0.0
 10
1.425816
 20
7.228353
 30
0.0
 10
1.425816
 20
7.322753
 30
0.0
 10
1.237016
 20
7.322753
 30
0.0
 10
1.237016
 20
7.228353
 30
0.0
 10
1.048216
 20
7.228353
 30
0.0
 10
1.048216
 20
7.322753
 30
0.0
 10
0.859416
 20
7.322753
 30
0.0
 10
0.859416
 20
7.228353
 30
0.0
 10
0.670616
 20
7.228353
 30
0.0
 10
0.670616
 20
7.322753
 30
0.0
 10
0.481816
 20
7.322753
 30
0.0
 10
0.481816
 20
7.228353
 30
0.0
 10
0.313816
 20
7.228353
 30
0.0
  0
LWPOLYLINE
  5
319
100
AcDbEntity
  8
Your_Design
 62
5
100
AcDbPolyline
 90
9
 70
0
 10
1.593816
 20
5.340353
 30
0.0
 10
1.688216
 20
5.340353
 30
0.0
 10
1.688216
 20
5.529153
 30
0.0
 10
1.593816
 20
5.529153
 30
0.0
 10
1.593816
 20
5.717953
 30
0.0
 10
1.688216
 20
5.717953
 30
0.0
 10
1.688216
 20
5.906753
 30
0.0
 10
1.593816
 20
5.906753
 30
0.0
 10
1.593816
 20
6.095553
 30
0.0
  0
LWPOLYLINE
  5
31a
100
AcDbEntity
  8
Your_Design
 62
5
100
AcDbPolyline
 90
2
 70
0
 10
1.688216
 20
6.095553
 30
0.0
 10
1.593816
 20
6.095553
 30
0.0
  0
LWPOLYLINE
  5
31b
100
AcDbEntity
  8
Your_Design
 62
5
100
AcDbPolyline
 90
3
 70
0
 10
4.006754
 20
7.228353
 30
0.0
 10
4.109954
 20
7.228353
 30
0.0
 10
4.109954
 20
5.504353
 30
0.0
  0
LWPOLYLINE
  5
31c
100
AcDbEntity
  8
Your_Design
 62
5
100
AcDbPolyline
 90
2
 70
0
 10
3.629154
 20
7.228353
 30
0.0
 10
3.817954
 20
7.228353
 30
0.0
  0
LWPOLYLINE
  5
31d
100
AcDbEntity
  8
Your_Design
 62
5
100
AcDbPolyline
 90
4
 70
0
 10
3.757154
 20
7.039553
 30
0.0
 10
3.662754
 20
7.039553
 30
0.0
 10
3.662754
 20
6.850753
 30
0.0
 10
3.757154
 20
6.850753
 30
0.0
  0
LWPOLYLINE
  5
31e
100
AcDbEntity
  8
Your_Design
 62
5
100
AcDbPolyline
 90
2
 70
0
 10
3.757154
 20
7.039553
 30
0.0
 10
3.757154
 20
6.850753
 30
0.0
  0
LWPOLYLINE
  5
31f
100
AcDbEntity
  8
Your_Design
 62
5
100
AcDbPolyline
 90
4
 70
0
 10
3.757154
 20
6.661953
 30
0.0
 10
3.662754
 20
6.661953
 30
0.0
 10
3.662754
 20
6.473153
 30
0.0
 10
3.757154
 20
6.473153
 30
0.0
  0
LWPOLYLINE
  5
320
100
AcDbEntity
  8
Your_Design
 62
5
100
AcDbPolyline
 90
2
 70
0
 10
3.757154
 20
6.661953
 30
0.0
 10
3.757154
 20
6.473153
 30
0.0
  0
LWPOLYLINE
  5
321
100
AcDbEntity
  8
Your_Design
 62
5
100
AcDbPolyline
 90
4
 70
0
 10
3.757154
 20
6.284353
 30
0.0
 10
3.662754
 20
6.284353
 30
0.0
 10
3.662754
 20
6.095553
 30
0.0
 10
3.757154
 20
6.095553
 30
0.0
  0
LWPOLYLINE
  5
322
100
AcDbEntity
  8
Your_Design
 62
5
100
AcDbPolyline
 90
2
 70
0
 10
3.757154
 20
6.284353
 30
0.0
 10
3.757154
 20
6.095553
 30
0.0
  0
LWPOLYLINE
  5
323
100
AcDbEntity
  8
Your_Design
 62
5
100
AcDbPolyline
 90
4
 70
0
 10
3.757154
 20
5.906753
 30
0.0
 10
3.662754
 20
5.906753
 30
0.0
 10
3.662754
 20
5.717953
 30
0.0
 10
3.757154
 20
5.717953
 30
0.0
  0
LWPOLYLINE
  5
324
100
AcDbEntity
  8
Your_Design
 62
5
100
AcDbPolyline
 90
2
 70
0
 10
3.757154
 20
5.906753
 30
0.0
 10
3.757154
 20
5.717953
 30
0.0
  0
LWPOLYLINE
  5
325
100
AcDbEntity
  8
Your_Design
 62
5
100
AcDbPolyline
 90
4
 70
0
 10
4.006754
 20
7.228353
 30
0.0
 10
4.006754
 20
7.322753
 30
0.0
 10
3.817954
 20
7.322753
 30
0.0
 10
3.817954
 20
7.228353
 30
0.0
  0
LWPOLYLINE
  5
326
100
AcDbEntity
  8
Your_Design
 62
5
100
AcDbPolyline
 90
4
 70
0
 10
3.629154
 20
7.228353
 30
0.0
 10
3.629154
 20
7.322753
 30
0.0
 10
3.440354
 20
7.322753
 30
0.0
 10
3.440354
 20
7.228353
 30
0.0
  0
LWPOLYLINE
  5
327
100
AcDbEntity
  8
Your_Design
 62
5
100
AcDbPolyline
 90
4
 70
0
 10
3.757154
 20
5.529153
 30
0.0
 10
3.662754
 20
5.529153
 30
0.0
 10
3.662754
 20
5.340353
 30
0.0
 10
3.757154
 20
5.340353
 30
0.0
  0
LWPOLYLINE
  5
328
100
AcDbEntity
  8
Your_Design
 62
5
100
AcDbPolyline
 90
2
 70
0
 10
3.757154
 20
5.529153
 30
0.0
 10
3.757154
 20
5.340353
 30
0.0
  0
LWPOLYLINE
  5
329
100
AcDbEntity
  8
Your_Design
 62
5
100
AcDbPolyline
 90
2
 70
0
 10
3.251554
 20
7.228353
 30
0.0
 10
3.440354
 20
7.228353
 30
0.0
  0
LWPOLYLINE
  5
32a
100
AcDbEntity
  8
Your_Design
 62
5
100
AcDbPolyline
 90
3
 70
0
 10
3.251554
 20
7.228353
 30
0.0
 10
3.251554
 20
7.322753
 30
0.0
 10
3.062754
 20
7.322753
 30
0.0
  0
LWPOLYLINE
  5
32b
100
AcDbEntity
  8
Your_Design
 62
5
100
AcDbPolyline
 90
2
 70
0
 10
4.109954
 20
5.504353
 30
0.0
 10
3.757154
 20
5.151553
 30
0.0
  0
LWPOLYLINE
  5
32c
100
AcDbEntity
  8
Your_Design
 62
5
100
AcDbPolyline
 90
2
 70
0
 10
3.757154
 20
4.773952
 30
0.0
 10
3.757154
 20
4.962753
 30
0.0
  0
LWPOLYLINE
  5
32d
100
AcDbEntity
  8
Your_Design
 62
5
100
AcDbPolyline
 90
4
 70
0
 10
3.757154
 20
5.151553
 30
0.0
 10
3.662754
 20
5.151553
 30
0.0
 10
3.662754
 20
4.962753
 30
0.0
 10
3.757154
 20
4.962753
 30
0.0
  0
LWPOLYLINE
  5
32e
100
AcDbEntity
  8
Your_Design
 62
5
100
AcDbPolyline
 90
4
 70
0
 10
3.757154
 20
4.773952
 30
0.0
 10
3.662754
 20
4.773952
 30
0.0
 10
3.662754
 20
4.585152
 30
0.0
 10
3.757154
 20
4.585152
 30
0.0
  0
LWPOLYLINE
  5
32f
100
AcDbEntity
  8
Your_Design
 62
5
100
AcDbPolyline
 90
4
 70
0
 10
3.757154
 20
4.396352
 30
0.0
 10
3.662754
 20
4.396352
 30
0.0
 10
3.662754
 20
4.207552
 30
0.0
 10
3.757154
 20
4.207552
 30
0.0
  0
LWPOLYLINE
  5
330
100
AcDbEntity
  8
Your_Design
 62
5
100
AcDbPolyline
 90
4
 70
0
 10
3.757154
 20
4.018752
 30
0.0
 10
3.662754
 20
4.018752
 30
0.0
 10
3.662754
 20
3.829952
 30
0.0
 10
3.757154
 20
3.829952
 30
0.0
  0
LWPOLYLINE
  5
331
100
AcDbEntity
  8
Your_Design
 62
5
100
AcDbPolyline
 90
4
 70
0
 10
3.757154
 20
3.641152
 30
0.0
 10
3.662754
 20
3.641152
 30
0.0
 10
3.662754
 20
3.452352
 30
0.0
 10
3.757154
 20
3.452352
 30
0.0
  0
LWPOLYLINE
  5
332
100
AcDbEntity
  8
Your_Design
 62
5
100
AcDbPolyline
 90
2
 70
0
 10
3.645954
 20
3.028353
 30
0.0
 10
3.645954
 20
2.933953
 30
0.0
  0
LWPOLYLINE
  5
333
100
AcDbEntity
  8
Your_Design
 62
5
100
AcDbPolyline
 90
4
 70
0
 10
3.457154
 20
2.933953
 30
0.0
 10
3.457154
 20
3.028353
 30
0.0
 10
3.268354
 20
3.028353
 30
0.0
 10
3.268354
 20
2.933953
 30
0.0
  0
LWPOLYLINE
  5
334
100
AcDbEntity
  8
Your_Design
 62
5
100
AcDbPolyline
 90
2
 70
0
 10
3.079554
 20
2.933953
 30
0.0
 10
3.079554
 20
3.028353
 30
0.0
  0
SPLINE
  5
335
100
AcDbEntity
  8
Your_Design
 62
5
100
AcDbSpline
 70
8
 71
3
 72
8
 73
4
 74
0
 40
0
 40
0
 40
0
 40
0
 40
1
 40
1
 40
1
 40
1
 10
3.462754
 20
3.353449
 30
0.0
 10
3.462754
 20
3.389175
 30
0.0
 10
3.443694
 20
3.422188
 30
0.0
 10
3.412754
 20
3.440051
 30
0.0
  0
SPLINE
  5
336
100
AcDbEntity
  8
Your_Design
 62
5
100
AcDbSpline
 70
8
 71
3
 72
8
 73
4
 74
0
 40
0
 40
0
 40
0
 40
0
 40
1
 40
1
 40
1
 40
1
 10
3.412754
 20
3.440051
 30
0.0
 10
3.381814
 20
3.457915
 30
0.0
 10
3.343694
 20
3.457915
 30
0.0
 10
3.312754
 20
3.440051
 30
0.0
  0
SPLINE
  5
337
100
AcDbEntity
  8
Your_Design
 62
5
100
AcDbSpline
 70
8
 71
3
 72
8
 73
4
 74
0
 40
0
 40
0
 40
0
 40
0
 40
1
 40
1
 40
1
 40
1
 10
3.312754
 20
3.440051
 30
0.0
 10
3.281814
 20
3.422188
 30
0.0
 10
3.262754
 20
3.389175
 30
0.0
 10
3.262754
 20
3.353449
 30
0.0
  0
SPLINE
  5
338
100
AcDbEntity
  8
Your_Design
 62
5
100
AcDbSpline
 70
8
 71
3
 72
8
 73
4
 74
0
 40
0
 40
0
 40
0
 40
0
 40
1
 40
1
 40
1
 40
1
 10
3.262754
 20
3.353449
 30
0.0
 10
3.262754
 20
3.317722
 30
0.0
 10
3.281814
 20
3.284709
 30
0.0
 10
3.312754
 20
3.266846
 30
0.0
  0
SPLINE
  5
339
100
AcDbEntity
  8
Your_Design
 62
5
100
AcDbSpline
 70
8
 71
3
 72
8
 73
4
 74
0
 40
0
 40
0
 40
0
 40
0
 40
1
 40
1
 40
1
 40
1
 10
3.312754
 20
3.266846
 30
0.0
 10
3.343694
 20
3.248983
 30
0.0
 10
3.381814
 20
3.248983
 30
0.0
 10
3.412754
 20
3.266846
 30
0.0
  0
SPLINE
  5
33a
100
AcDbEntity
  8
Your_Design
 62
5
100
AcDbSpline
 70
8
 71
3
 72
8
 73
4
 74
0
 40
0
 40
0
 40
0
 40
0
 40
1
 40
1
 40
1
 40
1
 10
3.412754
 20
3.266846
 30
0.0
 10
3.443694
 20
3.284709
 30
0.0
 10
3.462754
 20
3.317722
 30
0.0
 10
3.462754
 20
3.353449
 30
0.0
  0
LWPOLYLINE
  5
33b
100
AcDbEntity
  8
Your_Design
 62
5
100
AcDbPolyline
 90
2
 70
0
 10
3.645954
 20
3.028353
 30
0.0
 10
3.757154
 20
3.028353
 30
0.0
  0
LWPOLYLINE
  5
33c
100
AcDbEntity
  8
Your_Design
 62
5
100
AcDbPolyline
 90
2
 70
1
 10
3.462754
 20
3.353449
 30
0.0
 10
3.462754
 20
3.353449
 30
0.0
  0
LWPOLYLINE
  5
33d
100
AcDbEntity
  8
Your_Design
 62
5
100
AcDbPolyline
 90
2
 70
0
 10
0.185202
 20
1.740665
 30
0.0
 10
1.654141
 20
1.740665
 30
0.0
  0
SPLINE
  5
33e
100
AcDbEntity
  8
Your_Design
 62
5
100
AcDbSpline
 70
8
 71
3
 72
8
 73
4
 74
0
 40
0
 40
0
 40
0
 40
0
 40
1
 40
1
 40
1
 40
1
 10
2.260236
 20
2.078399
 30
0.0
 10
2.260236
 20
2.114126
 30
0.0
 10
2.241176
 20
2.147138
 30
0.0
 10
2.210236
 20
2.165002
 30
0.0
  0
SPLINE
  5
33f
100
AcDbEntity
  8
Your_Design
 62
5
100
AcDbSpline
 70
8
 71
3
 72
8
 73
4
 74
0
 40
0
 40
0
 40
0
 40
0
 40
1
 40
1
 40
1
 40
1
 10
2.210236
 20
2.165002
 30
0.0
 10
2.179296
 20
2.182865
 30
0.0
 10
2.141176
 20
2.182865
 30
0.0
 10
2.110236
 20
2.165002
 30
0.0
  0
SPLINE
  5
340
100
AcDbEntity
  8
Your_Design
 62
5
100
AcDbSpline
 70
8
 71
3
 72
8
 73
4
 74
0
 40
0
 40
0
 40
0
 40
0
 40
1
 40
1
 40
1
 40
1
 10
2.110236
 20
2.165002
 30
0.0
 10
2.079296
 20
2.147138
 30
0.0
 10
2.060236
 20
2.114126
 30
0.0
 10
2.060236
 20
2.078399
 30
0.0
  0
SPLINE
  5
341
100
AcDbEntity
  8
Your_Design
 62
5
100
AcDbSpline
 70
8
 71
3
 72
8
 73
4
 74
0
 40
0
 40
0
 40
0
 40
0
 40
1
 40
1
 40
1
 40
1
 10
2.060236
 20
2.078399
 30
0.0
 10
2.060236
 20
2.042672
 30
0.0
 10
2.079296
 20
2.009660
 30
0.0
 10
2.110236
 20
1.991797
 30
0.0
  0
SPLINE
  5
342
100
AcDbEntity
  8
Your_Design
 62
5
100
AcDbSpline
 70
8
 71
3
 72
8
 73
4
 74
0
 40
0
 40
0
 40
0
 40
0
 40
1
 40
1
 40
1
 40
1
 10
2.110236
 20
1.991797
 30
0.0
 10
2.141176
 20
1.973933
 30
0.0
 10
2.179296
 20
1.973933
 30
0.0
 10
2.210236
 20
1.991797
 30
0.0
  0
SPLINE
  5
343
100
AcDbEntity
  8
Your_Design
 62
5
100
AcDbSpline
 70
8
 71
3
 72
8
 73
4
 74
0
 40
0
 40
0
 40
0
 40
0
 40
1
 40
1
 40
1
 40
1
 10
2.210236
 20
1.991797
 30
0.0
 10
2.241176
 20
2.009660
 30
0.0
 10
2.260236
 20
2.042672
 30
0.0
 10
2.260236
 20
2.078399
 30
0.0
  0
LWPOLYLINE
  5
344
100
AcDbEntity
  8
Your_Design
 62
5
100
AcDbPolyline
 90
2
 70
0
 10
2.555920
 20
2.342353
 30
0.0
 10
3.470036
 20
2.342353
 30
0.0
  0
LWPOLYLINE
  5
345
100
AcDbEntity
  8
Your_Design
 62
5
100
AcDbPolyline
 90
2
 70
1
 10
2.260236
 20
2.078399
 30
0.0
 10
2.260236
 20
2.078399
 30
0.0
  0
LWPOLYLINE
  5
346
100
AcDbEntity
  8
Your_Design
 62
5
100
AcDbPolyline
 90
2
 70
0
 10
1.856285
 20
2.933953
 30
0.0
 10
3.645954
 20
2.933953
 30
0.0
  0
LWPOLYLINE
  5
347
100
AcDbEntity
  8
Your_Design
 62
5
100
AcDbPolyline
 90
2
 70
0
 10
1.559741
 20
2.032665
 30
0.0
 10
1.559741
 20
1.843865
 30
0.0
  0
SPLINE
  5
348
100
AcDbEntity
  8
Your_Design
 62
5
100
AcDbSpline
 70
8
 71
3
 72
8
 73
4
 74
0
 40
0
 40
0
 40
0
 40
0
 40
1
 40
1
 40
1
 40
1
 10
1.764552
 20
2.078399
 30
0.0
 10
1.764553
 20
1.859869
 30
0.0
 10
1.941706
 20
1.682715
 30
0.0
 10
2.160236
 20
1.682715
 30
0.0
  0
SPLINE
  5
349
100
AcDbEntity
  8
Your_Design
 62
5
100
AcDbSpline
 70
8
 71
3
 72
8
 73
4
 74
0
 40
0
 40
0
 40
0
 40
0
 40
1
 40
1
 40
1
 40
1
 10
2.160236
 20
1.682715
 30
0.0
 10
2.378767
 20
1.682715
 30
0.0
 10
2.555920
 20
1.859869
 30
0.0
 10
2.555920
 20
2.078399
 30
0.0
  0
LWPOLYLINE
  5
34a
100
AcDbEntity
  8
Your_Design
 62
5
100
AcDbPolyline
 90
2
 70
0
 10
1.688216
 20
3.263552
 30
0.0
 10
1.593816
 20
3.263552
 30
0.0
  0
LWPOLYLINE
  5
34b
100
AcDbEntity
  8
Your_Design
 62
5
100
AcDbPolyline
 90
2
 70
0
 10
1.764552
 20
2.078399
 30
0.0
 10
1.764552
 20
2.842220
 30
0.0
  0
SPLINE
  5
34c
100
AcDbEntity
  8
Your_Design
 62
5
100
AcDbSpline
 70
8
 71
3
 72
8
 73
4
 74
0
 40
0
 40
0
 40
0
 40
0
 40
1
 40
1
 40
1
 40
1
 10
3.470036
 20
2.342353
 30
0.0
 10
3.575715
 20
2.342353
 30
0.0
 10
3.673367
 20
2.398732
 30
0.0
 10
3.726206
 20
2.490253
 30
0.0
  0
SPLINE
  5
34d
100
AcDbEntity
  8
Your_Design
 62
5
100
AcDbSpline
 70
8
 71
3
 72
8
 73
4
 74
0
 40
0
 40
0
 40
0
 40
0
 40
1
 40
1
 40
1
 40
1
 10
3.726206
 20
2.490253
 30
0.0
 10
3.779046
 20
2.581774
 30
0.0
 10
3.779046
 20
2.694532
 30
0.0
 10
3.726206
 20
2.786053
 30
0.0
  0
SPLINE
  5
34e
100
AcDbEntity
  8
Your_Design
 62
5
100
AcDbSpline
 70
8
 71
3
 72
8
 73
4
 74
0
 40
0
 40
0
 40
0
 40
0
 40
1
 40
1
 40
1
 40
1
 10
3.726206
 20
2.786053
 30
0.0
 10
3.673367
 20
2.877574
 30
0.0
 10
3.575715
 20
2.933953
 30
0.0
 10
3.470036
 20
2.933953
 30
0.0
  0
SPLINE
  5
34f
100
AcDbEntity
  8
Your_Design
 62
5
100
AcDbSpline
 70
8
 71
3
 72
8
 73
4
 74
0
 40
0
 40
0
 40
0
 40
0
 40
1
 40
1
 40
1
 40
1
 10
1.856285
 20
2.933953
 30
0.0
 10
1.831956
 20
2.933953
 30
0.0
 10
1.808623
 20
2.924288
 30
0.0
 10
1.791420
 20
2.907085
 30
0.0
  0
SPLINE
  5
350
100
AcDbEntity
  8
Your_Design
 62
5
100
AcDbSpline
 70
8
 71
3
 72
8
 73
4
 74
0
 40
0
 40
0
 40
0
 40
0
 40
1
 40
1
 40
1
 40
1
 10
1.791420
 20
2.907085
 30
0.0
 10
1.774217
 20
2.889882
 30
0.0
 10
1.764552
 20
2.866549
 30
0.0
 10
1.764552
 20
2.842220
 30
0.0
  0
LWPOLYLINE
  5
351
100
AcDbEntity
  8
Your_Design
 62
5
100
AcDbPolyline
 90
2
 70
0
 10
2.555920
 20
2.078399
 30
0.0
 10
2.555920
 20
2.342353
 30
0.0
  0
SPLINE
  5
352
100
AcDbEntity
  8
Your_Design
 62
5
100
AcDbSpline
 70
8
 71
3
 72
8
 73
4
 74
0
 40
0
 40
0
 40
0
 40
0
 40
1
 40
1
 40
1
 40
1
 10
5.524129
 20
2.078399
 30
0.0
 10
5.524129
 20
2.114126
 30
0.0
 10
5.505070
 20
2.147138
 30
0.0
 10
5.474129
 20
2.165002
 30
0.0
  0
SPLINE
  5
353
100
AcDbEntity
  8
Your_Design
 62
5
100
AcDbSpline
 70
8
 71
3
 72
8
 73
4
 74
0
 40
0
 40
0
 40
0
 40
0
 40
1
 40
1
 40
1
 40
1
 10
5.474129
 20
2.165002
 30
0.0
 10
5.443189
 20
2.182865
 30
0.0
 10
5.405070
 20
2.182865
 30
0.0
 10
5.374129
 20
2.165002
 30
0.0
  0
SPLINE
  5
354
100
AcDbEntity
  8
Your_Design
 62
5
100
AcDbSpline
 70
8
 71
3
 72
8
 73
4
 74
0
 40
0
 40
0
 40
0
 40
0
 40
1
 40
1
 40
1
 40
1
 10
5.374129
 20
2.165002
 30
0.0
 10
5.343189
 20
2.147138
 30
0.0
 10
5.324129
 20
2.114126
 30
0.0
 10
5.324129
 20
2.078399
 30
0.0
  0
SPLINE
  5
355
100
AcDbEntity
  8
Your_Design
 62
5
100
AcDbSpline
 70
8
 71
3
 72
8
 73
4
 74
0
 40
0
 40
0
 40
0
 40
0
 40
1
 40
1
 40
1
 40
1
 10
5.324129
 20
2.078399
 30
0.0
 10
5.324129
 20
2.042672
 30
0.0
 10
5.343189
 20
2.009660
 30
0.0
 10
5.374129
 20
1.991797
 30
0.0
  0
SPLINE
  5
356
100
AcDbEntity
  8
Your_Design
 62
5
100
AcDbSpline
 70
8
 71
3
 72
8
 73
4
 74
0
 40
0
 40
0
 40
0
 40
0
 40
1
 40
1
 40
1
 40
1
 10
5.374129
 20
1.991797
 30
0.0
 10
5.405070
 20
1.973933
 30
0.0
 10
5.443189
 20
1.973933
 30
0.0
 10
5.474129
 20
1.991797
 30
0.0
  0
SPLINE
  5
357
100
AcDbEntity
  8
Your_Design
 62
5
100
AcDbSpline
 70
8
 71
3
 72
8
 73
4
 74
0
 40
0
 40
0
 40
0
 40
0
 40
1
 40
1
 40
1
 40
1
 10
5.474129
 20
1.991797
 30
0.0
 10
5.505070
 20
2.009660
 30
0.0
 10
5.524129
 20
2.042672
 30
0.0
 10
5.524129
 20
2.078399
 30
0.0
  0
LWPOLYLINE
  5
358
100
AcDbEntity
  8
Your_Design
 62
5
100
AcDbPolyline
 90
2
 70
0
 10
5.028446
 20
2.342353
 30
0.0
 10
4.114329
 20
2.342353
 30
0.0
  0
LWPOLYLINE
  5
359
100
AcDbEntity
  8
Your_Design
 62
5
100
AcDbPolyline
 90
2
 70
1
 10
5.524129
 20
2.078399
 30
0.0
 10
5.524129
 20
2.078399
 30
0.0
  0
SPLINE
  5
35a
100
AcDbEntity
  8
Your_Design
 62
5
100
AcDbSpline
 70
8
 71
3
 72
8
 73
4
 74
0
 40
0
 40
0
 40
0
 40
0
 40
1
 40
1
 40
1
 40
1
 10
5.028446
 20
2.078399
 30
0.0
 10
5.028631
 20
1.860000
 30
0.0
 10
5.205730
 20
1.683051
 30
0.0
 10
5.424129
 20
1.683051
 30
0.0
  0
SPLINE
  5
35b
100
AcDbEntity
  8
Your_Design
 62
5
100
AcDbSpline
 70
8
 71
3
 72
8
 73
4
 74
0
 40
0
 40
0
 40
0
 40
0
 40
1
 40
1
 40
1
 40
1
 10
5.424129
 20
1.683051
 30
0.0
 10
5.642528
 20
1.683051
 30
0.0
 10
5.819628
 20
1.860000
 30
0.0
 10
5.819813
 20
2.078399
 30
0.0
  0
LWPOLYLINE
  5
35c
100
AcDbEntity
  8
Your_Design
 62
5
100
AcDbPolyline
 90
2
 70
0
 10
5.728081
 20
2.933953
 30
0.0
 10
4.114329
 20
2.933953
 30
0.0
  0
LWPOLYLINE
  5
35d
100
AcDbEntity
  8
Your_Design
 62
5
100
AcDbPolyline
 90
2
 70
0
 10
5.819813
 20
2.078399
 30
0.0
 10
5.819813
 20
2.842220
 30
0.0
  0
SPLINE
  5
35e
100
AcDbEntity
  8
Your_Design
 62
5
100
AcDbSpline
 70
8
 71
3
 72
8
 73
4
 74
0
 40
0
 40
0
 40
0
 40
0
 40
1
 40
1
 40
1
 40
1
 10
4.114329
 20
2.933953
 30
0.0
 10
4.008650
 20
2.933953
 30
0.0
 10
3.910999
 20
2.877574
 30
0.0
 10
3.858159
 20
2.786053
 30
0.0
  0
SPLINE
  5
35f
100
AcDbEntity
  8
Your_Design
 62
5
100
AcDbSpline
 70
8
 71
3
 72
8
 73
4
 74
0
 40
0
 40
0
 40
0
 40
0
 40
1
 40
1
 40
1
 40
1
 10
3.858159
 20
2.786053
 30
0.0
 10
3.805320
 20
2.694532
 30
0.0
 10
3.805320
 20
2.581774
 30
0.0
 10
3.858159
 20
2.490253
 30
0.0
  0
SPLINE
  5
360
100
AcDbEntity
  8
Your_Design
 62
5
100
AcDbSpline
 70
8
 71
3
 72
8
 73
4
 74
0
 40
0
 40
0
 40
0
 40
0
 40
1
 40
1
 40
1
 40
1
 10
3.858159
 20
2.490253
 30
0.0
 10
3.910999
 20
2.398732
 30
0.0
 10
4.008650
 20
2.342353
 30
0.0
 10
4.114329
 20
2.342353
 30
0.0
  0
SPLINE
  5
361
100
AcDbEntity
  8
Your_Design
 62
5
100
AcDbSpline
 70
8
 71
3
 72
8
 73
4
 74
0
 40
0
 40
0
 40
0
 40
0
 40
1
 40
1
 40
1
 40
1
 10
5.819813
 20
2.842220
 30
0.0
 10
5.819813
 20
2.866549
 30
0.0
 10
5.810149
 20
2.889882
 30
0.0
 10
5.792946
 20
2.907085
 30
0.0
  0
SPLINE
  5
362
100
AcDbEntity
  8
Your_Design
 62
5
100
AcDbSpline
 70
8
 71
3
 72
8
 73
4
 74
0
 40
0
 40
0
 40
0
 40
0
 40
1
 40
1
 40
1
 40
1
 10
5.792946
 20
2.907085
 30
0.0
 10
5.775743
 20
2.924288
 30
0.0
 10
5.752410
 20
2.933953
 30
0.0
 10
5.728081
 20
2.933953
 30
0.0
  0
LWPOLYLINE
  5
363
100
AcDbEntity
  8
Your_Design
 62
5
100
AcDbPolyline
 90
2
 70
0
 10
5.028446
 20
2.078399
 30
0.0
 10
5.028446
 20
2.342353
 30
0.0
  0
LWPOLYLINE
  5
364
100
AcDbEntity
  8
Your_Design
 62
5
100
AcDbPolyline
 90
4
 70
0
 10
4.661943
 20
3.071360
 30
0.0
 10
4.661943
 20
3.142160
 30
0.0
 10
4.473143
 20
3.142160
 30
0.0
 10
4.473143
 20
3.071360
 30
0.0
  0
LWPOLYLINE
  5
365
100
AcDbEntity
  8
Your_Design
 62
5
100
AcDbPolyline
 90
10
 70
0
 10
4.773143
 20
4.493098
 30
0.0
 10
4.773143
 20
4.254229
 30
0.0
 10
4.678743
 20
4.254229
 30
0.0
 10
4.678743
 20
4.065429
 30
0.0
 10
4.773143
 20
4.065429
 30
0.0
 10
4.773143
 20
3.499029
 30
0.0
 10
4.678743
 20
3.499029
 30
0.0
 10
4.678743
 20
3.310229
 30
0.0
 10
4.773143
 20
3.310229
 30
0.0
 10
4.773143
 20
3.071360
 30
0.0
  0
LWPOLYLINE
  5
366
100
AcDbEntity
  8
Your_Design
 62
5
100
AcDbPolyline
 90
4
 70
0
 10
4.473143
 20
4.493098
 30
0.0
 10
4.473143
 20
4.422298
 30
0.0
 10
4.661943
 20
4.422298
 30
0.0
 10
4.661943
 20
4.493098
 30
0.0
  0
LWPOLYLINE
  5
367
100
AcDbEntity
  8
Your_Design
 62
5
100
AcDbPolyline
 90
4
 70
0
 10
4.095543
 20
4.493098
 30
0.0
 10
4.095543
 20
4.422298
 30
0.0
 10
4.284343
 20
4.422298
 30
0.0
 10
4.284343
 20
4.493098
 30
0.0
  0
LWPOLYLINE
  5
368
100
AcDbEntity
  8
Your_Design
 62
5
100
AcDbPolyline
 90
14
 70
0
 10
3.984343
 20
3.071360
 30
0.0
 10
3.984343
 20
3.310229
 30
0.0
 10
4.078743
 20
3.310229
 30
0.0
 10
4.078743
 20
3.499029
 30
0.0
 10
3.984343
 20
3.499029
 30
0.0
 10
3.984343
 20
3.687829
 30
0.0
 10
4.078743
 20
3.687829
 30
0.0
 10
4.078743
 20
3.876629
 30
0.0
 10
3.984343
 20
3.876629
 30
0.0
 10
3.984343
 20
4.065429
 30
0.0
 10
4.078743
 20
4.065429
 30
0.0
 10
4.078743
 20
4.254229
 30
0.0
 10
3.984343
 20
4.254229
 30
0.0
 10
3.984343
 20
4.493098
 30
0.0
  0
LWPOLYLINE
  5
369
100
AcDbEntity
  8
Your_Design
 62
5
100
AcDbPolyline
 90
2
 70
0
 10
4.631057
 20
7.228353
 30
0.0
 10
4.734257
 20
7.228353
 30
0.0
  0
LWPOLYLINE
  5
36a
100
AcDbEntity
  8
Your_Design
 62
5
100
AcDbPolyline
 90
2
 70
0
 10
4.631057
 20
7.228353
 30
0.0
 10
4.631057
 20
5.504353
 30
0.0
  0
LWPOLYLINE
  5
36b
100
AcDbEntity
  8
Your_Design
 62
5
100
AcDbPolyline
 90
2
 70
0
 10
5.678257
 20
5.906753
 30
0.0
 10
5.678257
 20
6.095553
 30
0.0
  0
LWPOLYLINE
  5
36c
100
AcDbEntity
  8
Your_Design
 62
5
100
AcDbPolyline
 90
2
 70
0
 10
5.678257
 20
6.284353
 30
0.0
 10
5.678257
 20
6.473153
 30
0.0
  0
LWPOLYLINE
  5
36d
100
AcDbEntity
  8
Your_Design
 62
5
100
AcDbPolyline
 90
2
 70
0
 10
5.678257
 20
6.661953
 30
0.0
 10
5.678257
 20
6.850753
 30
0.0
  0
LWPOLYLINE
  5
36e
100
AcDbEntity
  8
Your_Design
 62
5
100
AcDbPolyline
 90
2
 70
0
 10
5.111857
 20
7.228353
 30
0.0
 10
4.923057
 20
7.228353
 30
0.0
  0
LWPOLYLINE
  5
36f
100
AcDbEntity
  8
Your_Design
 62
5
100
AcDbPolyline
 90
4
 70
0
 10
4.983857
 20
7.039553
 30
0.0
 10
5.078257
 20
7.039553
 30
0.0
 10
5.078257
 20
6.850753
 30
0.0
 10
4.983857
 20
6.850753
 30
0.0
  0
LWPOLYLINE
  5
370
100
AcDbEntity
  8
Your_Design
 62
5
100
AcDbPolyline
 90
2
 70
0
 10
4.983857
 20
7.039553
 30
0.0
 10
4.983857
 20
6.850753
 30
0.0
  0
LWPOLYLINE
  5
371
100
AcDbEntity
  8
Your_Design
 62
5
100
AcDbPolyline
 90
4
 70
0
 10
4.983857
 20
6.661953
 30
0.0
 10
5.078257
 20
6.661953
 30
0.0
 10
5.078257
 20
6.473153
 30
0.0
 10
4.983857
 20
6.473153
 30
0.0
  0
LWPOLYLINE
  5
372
100
AcDbEntity
  8
Your_Design
 62
5
100
AcDbPolyline
 90
2
 70
0
 10
4.983857
 20
6.661953
 30
0.0
 10
4.983857
 20
6.473153
 30
0.0
  0
LWPOLYLINE
  5
373
100
AcDbEntity
  8
Your_Design
 62
5
100
AcDbPolyline
 90
4
 70
0
 10
4.983857
 20
6.284353
 30
0.0
 10
5.078257
 20
6.284353
 30
0.0
 10
5.078257
 20
6.095553
 30
0.0
 10
4.983857
 20
6.095553
 30
0.0
  0
LWPOLYLINE
  5
374
100
AcDbEntity
  8
Your_Design
 62
5
100
AcDbPolyline
 90
2
 70
0
 10
4.983857
 20
6.284353
 30
0.0
 10
4.983857
 20
6.095553
 30
0.0
  0
LWPOLYLINE
  5
375
100
AcDbEntity
  8
Your_Design
 62
5
100
AcDbPolyline
 90
4
 70
0
 10
4.983857
 20
5.906753
 30
0.0
 10
5.078257
 20
5.906753
 30
0.0
 10
5.078257
 20
5.717953
 30
0.0
 10
4.983857
 20
5.717953
 30
0.0
  0
LWPOLYLINE
  5
376
100
AcDbEntity
  8
Your_Design
 62
5
100
AcDbPolyline
 90
2
 70
0
 10
4.983857
 20
5.906753
 30
0.0
 10
4.983857
 20
5.717953
 30
0.0
  0
LWPOLYLINE
  5
377
100
AcDbEntity
  8
Your_Design
 62
5
100
AcDbPolyline
 90
4
 70
0
 10
5.678257
 20
7.039553
 30
0.0
 10
5.772657
 20
7.039553
 30
0.0
 10
5.772657
 20
6.850753
 30
0.0
 10
5.678257
 20
6.850753
 30
0.0
  0
LWPOLYLINE
  5
378
100
AcDbEntity
  8
Your_Design
 62
5
100
AcDbPolyline
 90
4
 70
0
 10
5.678257
 20
6.661953
 30
0.0
 10
5.772657
 20
6.661953
 30
0.0
 10
5.772657
 20
6.473153
 30
0.0
 10
5.678257
 20
6.473153
 30
0.0
  0
LWPOLYLINE
  5
379
100
AcDbEntity
  8
Your_Design
 62
5
100
AcDbPolyline
 90
4
 70
0
 10
5.678257
 20
6.284353
 30
0.0
 10
5.772657
 20
6.284353
 30
0.0
 10
5.772657
 20
6.095553
 30
0.0
 10
5.678257
 20
6.095553
 30
0.0
  0
LWPOLYLINE
  5
37a
100
AcDbEntity
  8
Your_Design
 62
5
100
AcDbPolyline
 90
4
 70
0
 10
5.678257
 20
5.906753
 30
0.0
 10
5.772657
 20
5.906753
 30
0.0
 10
5.772657
 20
5.717953
 30
0.0
 10
5.678257
 20
5.717953
 30
0.0
  0
LWPOLYLINE
  5
37b
100
AcDbEntity
  8
Your_Design
 62
5
100
AcDbPolyline
 90
2
 70
0
 10
4.734257
 20
7.228353
 30
0.0
 10
4.734257
 20
7.322753
 30
0.0
  0
LWPOLYLINE
  5
37c
100
AcDbEntity
  8
Your_Design
 62
5
100
AcDbPolyline
 90
2
 70
0
 10
4.923057
 20
7.322753
 30
0.0
 10
4.923057
 20
7.228353
 30
0.0
  0
LWPOLYLINE
  5
37d
100
AcDbEntity
  8
Your_Design
 62
5
100
AcDbPolyline
 90
2
 70
0
 10
5.111857
 20
7.228353
 30
0.0
 10
5.111857
 20
7.322753
 30
0.0
  0
LWPOLYLINE
  5
37e
100
AcDbEntity
  8
Your_Design
 62
5
100
AcDbPolyline
 90
2
 70
0
 10
5.300657
 20
7.322753
 30
0.0
 10
5.300657
 20
7.228353
 30
0.0
  0
LWPOLYLINE
  5
37f
100
AcDbEntity
  8
Your_Design
 62
5
100
AcDbPolyline
 90
2
 70
0
 10
5.678257
 20
4.396352
 30
0.0
 10
5.678257
 20
4.585152
 30
0.0
  0
LWPOLYLINE
  5
380
100
AcDbEntity
  8
Your_Design
 62
5
100
AcDbPolyline
 90
2
 70
0
 10
5.678257
 20
4.773952
 30
0.0
 10
5.678257
 20
4.962753
 30
0.0
  0
LWPOLYLINE
  5
381
100
AcDbEntity
  8
Your_Design
 62
5
100
AcDbPolyline
 90
2
 70
0
 10
5.678257
 20
5.151553
 30
0.0
 10
5.678257
 20
5.340353
 30
0.0
  0
LWPOLYLINE
  5
382
100
AcDbEntity
  8
Your_Design
 62
5
100
AcDbPolyline
 90
5
 70
0
 10
5.678257
 20
5.717953
 30
0.0
 10
5.678257
 20
5.529153
 30
0.0
 10
5.772657
 20
5.529153
 30
0.0
 10
5.772657
 20
5.340353
 30
0.0
 10
5.678257
 20
5.340353
 30
0.0
  0
LWPOLYLINE
  5
383
100
AcDbEntity
  8
Your_Design
 62
5
100
AcDbPolyline
 90
4
 70
0
 10
5.678257
 20
5.151553
 30
0.0
 10
5.772657
 20
5.151553
 30
0.0
 10
5.772657
 20
4.962753
 30
0.0
 10
5.678257
 20
4.962753
 30
0.0
  0
LWPOLYLINE
  5
384
100
AcDbEntity
  8
Your_Design
 62
5
100
AcDbPolyline
 90
4
 70
0
 10
5.678257
 20
4.773952
 30
0.0
 10
5.772657
 20
4.773952
 30
0.0
 10
5.772657
 20
4.585152
 30
0.0
 10
5.678257
 20
4.585152
 30
0.0
  0
LWPOLYLINE
  5
385
100
AcDbEntity
  8
Your_Design
 62
5
100
AcDbPolyline
 90
4
 70
0
 10
5.678257
 20
4.396352
 30
0.0
 10
5.772657
 20
4.396352
 30
0.0
 10
5.772657
 20
4.207552
 30
0.0
 10
5.678257
 20
4.207552
 30
0.0
  0
LWPOLYLINE
  5
386
100
AcDbEntity
  8
Your_Design
 62
5
100
AcDbPolyline
 90
2
 70
0
 10
5.678257
 20
3.263552
 30
0.0
 10
5.678257
 20
3.452352
 30
0.0
  0
LWPOLYLINE
  5
387
100
AcDbEntity
  8
Your_Design
 62
5
100
AcDbPolyline
 90
2
 70
0
 10
5.678257
 20
3.641152
 30
0.0
 10
5.678257
 20
3.829952
 30
0.0
  0
LWPOLYLINE
  5
388
100
AcDbEntity
  8
Your_Design
 62
5
100
AcDbPolyline
 90
5
 70
0
 10
5.678257
 20
4.207552
 30
0.0
 10
5.678257
 20
4.018752
 30
0.0
 10
5.772657
 20
4.018752
 30
0.0
 10
5.772657
 20
3.829952
 30
0.0
 10
5.678257
 20
3.829952
 30
0.0
  0
LWPOLYLINE
  5
389
100
AcDbEntity
  8
Your_Design
 62
5
100
AcDbPolyline
 90
4
 70
0
 10
5.678257
 20
3.641152
 30
0.0
 10
5.772657
 20
3.641152
 30
0.0
 10
5.772657
 20
3.452352
 30
0.0
 10
5.678257
 20
3.452352
 30
0.0
  0
LWPOLYLINE
  5
38a
100
AcDbEntity
  8
Your_Design
 62
5
100
AcDbPolyline
 90
3
 70
0
 10
5.678257
 20
3.263552
 30
0.0
 10
5.772657
 20
3.263552
 30
0.0
 10
5.772657
 20
3.028353
 30
0.0
  0
LWPOLYLINE
  5
38b
100
AcDbEntity
  8
Your_Design
 62
5
100
AcDbPolyline
 90
4
 70
0
 10
4.983857
 20
5.529153
 30
0.0
 10
5.078257
 20
5.529153
 30
0.0
 10
5.078257
 20
5.340353
 30
0.0
 10
4.983857
 20
5.340353
 30
0.0
  0
LWPOLYLINE
  5
38c
100
AcDbEntity
  8
Your_Design
 62
5
100
AcDbPolyline
 90
2
 70
0
 10
4.983857
 20
5.529153
 30
0.0
 10
4.983857
 20
5.340353
 30
0.0
  0
LWPOLYLINE
  5
38d
100
AcDbEntity
  8
Your_Design
 62
5
100
AcDbPolyline
 90
2
 70
0
 10
5.489457
 20
7.228353
 30
0.0
 10
5.300657
 20
7.228353
 30
0.0
  0
LWPOLYLINE
  5
38e
100
AcDbEntity
  8
Your_Design
 62
5
100
AcDbPolyline
 90
2
 70
0
 10
5.489457
 20
7.228353
 30
0.0
 10
5.489457
 20
7.322753
 30
0.0
  0
LWPOLYLINE
  5
38f
100
AcDbEntity
  8
Your_Design
 62
5
100
AcDbPolyline
 90
2
 70
0
 10
5.678257
 20
7.322753
 30
0.0
 10
5.678257
 20
7.039553
 30
0.0
  0
LWPOLYLINE
  5
390
100
AcDbEntity
  8
Your_Design
 62
5
100
AcDbPolyline
 90
2
 70
0
 10
4.631057
 20
5.504353
 30
0.0
 10
4.983857
 20
5.151553
 30
0.0
  0
LWPOLYLINE
  5
391
100
AcDbEntity
  8
Your_Design
 62
5
100
AcDbPolyline
 90
2
 70
0
 10
4.983857
 20
4.773952
 30
0.0
 10
4.983857
 20
4.962753
 30
0.0
  0
LWPOLYLINE
  5
392
100
AcDbEntity
  8
Your_Design
 62
5
100
AcDbPolyline
 90
4
 70
0
 10
4.983857
 20
5.151553
 30
0.0
 10
5.078257
 20
5.151553
 30
0.0
 10
5.078257
 20
4.962753
 30
0.0
 10
4.983857
 20
4.962753
 30
0.0
  0
LWPOLYLINE
  5
393
100
AcDbEntity
  8
Your_Design
 62
5
100
AcDbPolyline
 90
4
 70
0
 10
4.983857
 20
4.773952
 30
0.0
 10
5.078257
 20
4.773952
 30
0.0
 10
5.078257
 20
4.585152
 30
0.0
 10
4.983857
 20
4.585152
 30
0.0
  0
LWPOLYLINE
  5
394
100
AcDbEntity
  8
Your_Design
 62
5
100
AcDbPolyline
 90
4
 70
0
 10
4.983857
 20
4.396352
 30
0.0
 10
5.078257
 20
4.396352
 30
0.0
 10
5.078257
 20
4.207552
 30
0.0
 10
4.983857
 20
4.207552
 30
0.0
  0
LWPOLYLINE
  5
395
100
AcDbEntity
  8
Your_Design
 62
5
100
AcDbPolyline
 90
4
 70
0
 10
4.983857
 20
4.018752
 30
0.0
 10
5.078257
 20
4.018752
 30
0.0
 10
5.078257
 20
3.829952
 30
0.0
 10
4.983857
 20
3.829952
 30
0.0
  0
LWPOLYLINE
  5
396
100
AcDbEntity
  8
Your_Design
 62
5
100
AcDbPolyline
 90
4
 70
0
 10
4.983857
 20
3.641152
 30
0.0
 10
5.078257
 20
3.641152
 30
0.0
 10
5.078257
 20
3.452352
 30
0.0
 10
4.983857
 20
3.452352
 30
0.0
  0
LWPOLYLINE
  5
397
100
AcDbEntity
  8
Your_Design
 62
5
100
AcDbPolyline
 90
2
 70
0
 10
5.095057
 20
3.028353
 30
0.0
 10
5.095057
 20
2.933953
 30
0.0
  0
LWPOLYLINE
  5
398
100
AcDbEntity
  8
Your_Design
 62
5
100
AcDbPolyline
 90
4
 70
0
 10
5.283857
 20
2.933953
 30
0.0
 10
5.283857
 20
3.028353
 30
0.0
 10
5.472657
 20
3.028353
 30
0.0
 10
5.472657
 20
2.933953
 30
0.0
  0
LWPOLYLINE
  5
399
100
AcDbEntity
  8
Your_Design
 62
5
100
AcDbPolyline
 90
2
 70
0
 10
5.661457
 20
2.933953
 30
0.0
 10
5.661457
 20
3.028353
 30
0.0
  0
SPLINE
  5
39a
100
AcDbEntity
  8
Your_Design
 62
5
100
AcDbSpline
 70
8
 71
3
 72
8
 73
4
 74
0
 40
0
 40
0
 40
0
 40
0
 40
1
 40
1
 40
1
 40
1
 10
5.478257
 20
3.353449
 30
0.0
 10
5.478257
 20
3.389175
 30
0.0
 10
5.459198
 20
3.422188
 30
0.0
 10
5.428257
 20
3.440051
 30
0.0
  0
SPLINE
  5
39b
100
AcDbEntity
  8
Your_Design
 62
5
100
AcDbSpline
 70
8
 71
3
 72
8
 73
4
 74
0
 40
0
 40
0
 40
0
 40
0
 40
1
 40
1
 40
1
 40
1
 10
5.428257
 20
3.440051
 30
0.0
 10
5.397317
 20
3.457915
 30
0.0
 10
5.359198
 20
3.457915
 30
0.0
 10
5.328257
 20
3.440051
 30
0.0
  0
SPLINE
  5
39c
100
AcDbEntity
  8
Your_Design
 62
5
100
AcDbSpline
 70
8
 71
3
 72
8
 73
4
 74
0
 40
0
 40
0
 40
0
 40
0
 40
1
 40
1
 40
1
 40
1
 10
5.328257
 20
3.440051
 30
0.0
 10
5.297317
 20
3.422188
 30
0.0
 10
5.278257
 20
3.389175
 30
0.0
 10
5.278257
 20
3.353449
 30
0.0
  0
SPLINE
  5
39d
100
AcDbEntity
  8
Your_Design
 62
5
100
AcDbSpline
 70
8
 71
3
 72
8
 73
4
 74
0
 40
0
 40
0
 40
0
 40
0
 40
1
 40
1
 40
1
 40
1
 10
5.278257
 20
3.353449
 30
0.0
 10
5.278257
 20
3.317722
 30
0.0
 10
5.297317
 20
3.284709
 30
0.0
 10
5.328257
 20
3.266846
 30
0.0
  0
SPLINE
  5
39e
100
AcDbEntity
  8
Your_Design
 62
5
100
AcDbSpline
 70
8
 71
3
 72
8
 73
4
 74
0
 40
0
 40
0
 40
0
 40
0
 40
1
 40
1
 40
1
 40
1
 10
5.328257
 20
3.266846
 30
0.0
 10
5.359198
 20
3.248983
 30
0.0
 10
5.397317
 20
3.248983
 30
0.0
 10
5.428257
 20
3.266846
 30
0.0
  0
SPLINE
  5
39f
100
AcDbEntity
  8
Your_Design
 62
5
100
AcDbSpline
 70
8
 71
3
 72
8
 73
4
 74
0
 40
0
 40
0
 40
0
 40
0
 40
1
 40
1
 40
1
 40
1
 10
5.428257
 20
3.266846
 30
0.0
 10
5.459198
 20
3.284709
 30
0.0
 10
5.478257
 20
3.317722
 30
0.0
 10
5.478257
 20
3.353449
 30
0.0
  0
LWPOLYLINE
  5
3a0
100
AcDbEntity
  8
Your_Design
 62
5
100
AcDbPolyline
 90
2
 70
0
 10
5.772657
 20
3.028353
 30
0.0
 10
5.661457
 20
3.028353
 30
0.0
  0
LWPOLYLINE
  5
3a1
100
AcDbEntity
  8
Your_Design
 62
5
100
AcDbPolyline
 90
2
 70
1
 10
5.478257
 20
3.353449
 30
0.0
 10
5.478257
 20
3.353449
 30
0.0
  0
LWPOLYLINE
  5
3a2
100
AcDbEntity
  8
Your_Design
 62
5
100
AcDbPolyline
 90
2
 70
0
 10
4.734257
 20
7.322753
 30
0.0
 10
4.923057
 20
7.322753
 30
0.0
  0
LWPOLYLINE
  5
3a3
100
AcDbEntity
  8
Your_Design
 62
5
100
AcDbPolyline
 90
2
 70
0
 10
5.111857
 20
7.322753
 30
0.0
 10
5.300657
 20
7.322753
 30
0.0
  0
LWPOLYLINE
  5
3a4
100
AcDbEntity
  8
Your_Design
 62
5
100
AcDbPolyline
 90
2
 70
0
 10
5.489457
 20
7.322753
 30
0.0
 10
5.678257
 20
7.322753
 30
0.0
  0
LWPOLYLINE
  5
3a5
100
AcDbEntity
  8
Your_Design
 62
5
100
AcDbPolyline
 90
3
 70
0
 10
5.095057
 20
3.028353
 30
0.0
 10
4.983857
 20
3.028353
 30
0.0
 10
4.983857
 20
3.452352
 30
0.0
  0
LWPOLYLINE
  5
3a6
100
AcDbEntity
  8
Your_Design
 62
5
100
AcDbPolyline
 90
2
 70
0
 10
4.983857
 20
3.641152
 30
0.0
 10
4.983857
 20
3.829952
 30
0.0
  0
LWPOLYLINE
  5
3a7
100
AcDbEntity
  8
Your_Design
 62
5
100
AcDbPolyline
 90
2
 70
0
 10
4.983857
 20
4.018752
 30
0.0
 10
4.983857
 20
4.207552
 30
0.0
  0
LWPOLYLINE
  5
3a8
100
AcDbEntity
  8
Your_Design
 62
5
100
AcDbPolyline
 90
2
 70
0
 10
4.983857
 20
4.396352
 30
0.0
 10
4.983857
 20
4.585152
 30
0.0
  0
LWPOLYLINE
  5
3a9
100
AcDbEntity
  8
Your_Design
 62
5
100
AcDbPolyline
 90
2
 70
0
 10
3.757154
 20
4.585152
 30
0.0
 10
3.757154
 20
4.396352
 30
0.0
  0
LWPOLYLINE
  5
3aa
100
AcDbEntity
  8
Your_Design
 62
5
100
AcDbPolyline
 90
2
 70
0
 10
3.757154
 20
4.207552
 30
0.0
 10
3.757154
 20
4.018752
 30
0.0
  0
LWPOLYLINE
  5
3ab
100
AcDbEntity
  8
Your_Design
 62
5
100
AcDbPolyline
 90
2
 70
0
 10
3.757154
 20
3.829952
 30
0.0
 10
3.757154
 20
3.641152
 30
0.0
  0
SPLINE
  5
3ac
100
AcDbEntity
  8
Your_Design
 62
5
100
AcDbSpline
 70
8
 71
3
 72
8
 73
4
 74
0
 40
0
 40
0
 40
0
 40
0
 40
1
 40
1
 40
1
 40
1
 10
1.063843
 20
5.631321
 30
0.0
 10
1.063843
 20
5.670620
 30
0.0
 10
1.042877
 20
5.706934
 30
0.0
 10
1.008843
 20
5.726583
 30
0.0
  0
SPLINE
  5
3ad
100
AcDbEntity
  8
Your_Design
 62
5
100
AcDbSpline
 70
8
 71
3
 72
8
 73
4
 74
0
 40
0
 40
0
 40
0
 40
0
 40
1
 40
1
 40
1
 40
1
 10
1.008843
 20
5.726583
 30
0.0
 10
0.974809
 20
5.746233
 30
0.0
 10
0.932877
 20
5.746233
 30
0.0
 10
0.898843
 20
5.726583
 30
0.0
  0
SPLINE
  5
3ae
100
AcDbEntity
  8
Your_Design
 62
5
100
AcDbSpline
 70
8
 71
3
 72
8
 73
4
 74
0
 40
0
 40
0
 40
0
 40
0
 40
1
 40
1
 40
1
 40
1
 10
0.898843
 20
5.726583
 30
0.0
 10
0.864809
 20
5.706934
 30
0.0
 10
0.843843
 20
5.670620
 30
0.0
 10
0.843843
 20
5.631321
 30
0.0
  0
SPLINE
  5
3af
100
AcDbEntity
  8
Your_Design
 62
5
100
AcDbSpline
 70
8
 71
3
 72
8
 73
4
 74
0
 40
0
 40
0
 40
0
 40
0
 40
1
 40
1
 40
1
 40
1
 10
0.843843
 20
5.631321
 30
0.0
 10
0.843843
 20
5.592021
 30
0.0
 10
0.864809
 20
5.555707
 30
0.0
 10
0.898843
 20
5.536058
 30
0.0
  0
SPLINE
  5
3b0
100
AcDbEntity
  8
Your_Design
 62
5
100
AcDbSpline
 70
8
 71
3
 72
8
 73
4
 74
0
 40
0
 40
0
 40
0
 40
0
 40
1
 40
1
 40
1
 40
1
 10
0.898843
 20
5.536058
 30
0.0
 10
0.932877
 20
5.516408
 30
0.0
 10
0.974809
 20
5.516408
 30
0.0
 10
1.008843
 20
5.536058
 30
0.0
  0
SPLINE
  5
3b1
100
AcDbEntity
  8
Your_Design
 62
5
100
AcDbSpline
 70
8
 71
3
 72
8
 73
4
 74
0
 40
0
 40
0
 40
0
 40
0
 40
1
 40
1
 40
1
 40
1
 10
1.008843
 20
5.536058
 30
0.0
 10
1.042877
 20
5.555707
 30
0.0
 10
1.063843
 20
5.592021
 30
0.0
 10
1.063843
 20
5.631321
 30
0.0
  0
LWPOLYLINE
  5
3b2
100
AcDbEntity
  8
Your_Design
 62
5
100
AcDbPolyline
 90
2
 70
0
 10
3.757154
 20
3.452352
 30
0.0
 10
3.757154
 20
3.028353
 30
0.0
  0
SPLINE
  5
3b3
100
AcDbEntity
  8
Your_Design
 62
5
100
AcDbSpline
 70
8
 71
3
 72
8
 73
4
 74
0
 40
0
 40
0
 40
0
 40
0
 40
1
 40
1
 40
1
 40
1
 10
3.445954
 20
7.039553
 30
0.0
 10
3.445954
 20
7.075279
 30
0.0
 10
3.426894
 20
7.108292
 30
0.0
 10
3.395954
 20
7.126155
 30
0.0
  0
SPLINE
  5
3b4
100
AcDbEntity
  8
Your_Design
 62
5
100
AcDbSpline
 70
8
 71
3
 72
8
 73
4
 74
0
 40
0
 40
0
 40
0
 40
0
 40
1
 40
1
 40
1
 40
1
 10
3.395954
 20
7.126155
 30
0.0
 10
3.365014
 20
7.144018
 30
0.0
 10
3.326894
 20
7.144018
 30
0.0
 10
3.295954
 20
7.126155
 30
0.0
  0
SPLINE
  5
3b5
100
AcDbEntity
  8
Your_Design
 62
5
100
AcDbSpline
 70
8
 71
3
 72
8
 73
4
 74
0
 40
0
 40
0
 40
0
 40
0
 40
1
 40
1
 40
1
 40
1
 10
3.295954
 20
7.126155
 30
0.0
 10
3.265014
 20
7.108292
 30
0.0
 10
3.245954
 20
7.075279
 30
0.0
 10
3.245954
 20
7.039553
 30
0.0
  0
SPLINE
  5
3b6
100
AcDbEntity
  8
Your_Design
 62
5
100
AcDbSpline
 70
8
 71
3
 72
8
 73
4
 74
0
 40
0
 40
0
 40
0
 40
0
 40
1
 40
1
 40
1
 40
1
 10
3.245954
 20
7.039553
 30
0.0
 10
3.245954
 20
7.003826
 30
0.0
 10
3.265014
 20
6.970813
 30
0.0
 10
3.295954
 20
6.952950
 30
0.0
  0
SPLINE
  5
3b7
100
AcDbEntity
  8
Your_Design
 62
5
100
AcDbSpline
 70
8
 71
3
 72
8
 73
4
 74
0
 40
0
 40
0
 40
0
 40
0
 40
1
 40
1
 40
1
 40
1
 10
3.295954
 20
6.952950
 30
0.0
 10
3.326894
 20
6.935087
 30
0.0
 10
3.365014
 20
6.935087
 30
0.0
 10
3.395954
 20
6.952950
 30
0.0
  0
SPLINE
  5
3b8
100
AcDbEntity
  8
Your_Design
 62
5
100
AcDbSpline
 70
8
 71
3
 72
8
 73
4
 74
0
 40
0
 40
0
 40
0
 40
0
 40
1
 40
1
 40
1
 40
1
 10
3.395954
 20
6.952950
 30
0.0
 10
3.426894
 20
6.970813
 30
0.0
 10
3.445954
 20
7.003826
 30
0.0
 10
3.445954
 20
7.039553
 30
0.0
  0
LWPOLYLINE
  5
3b9
100
AcDbEntity
  8
Your_Design
 62
5
100
AcDbPolyline
 90
2
 70
1
 10
1.063843
 20
5.631321
 30
0.0
 10
1.063843
 20
5.631321
 30
0.0
  0
SPLINE
  5
3ba
100
AcDbEntity
  8
Your_Design
 62
5
100
AcDbSpline
 70
8
 71
3
 72
8
 73
4
 74
0
 40
0
 40
0
 40
0
 40
0
 40
1
 40
1
 40
1
 40
1
 10
5.495057
 20
7.039553
 30
0.0
 10
5.495057
 20
7.075279
 30
0.0
 10
5.475998
 20
7.108292
 30
0.0
 10
5.445057
 20
7.126155
 30
0.0
  0
SPLINE
  5
3bb
100
AcDbEntity
  8
Your_Design
 62
5
100
AcDbSpline
 70
8
 71
3
 72
8
 73
4
 74
0
 40
0
 40
0
 40
0
 40
0
 40
1
 40
1
 40
1
 40
1
 10
5.445057
 20
7.126155
 30
0.0
 10
5.414117
 20
7.144018
 30
0.0
 10
5.375998
 20
7.144018
 30
0.0
 10
5.345057
 20
7.126155
 30
0.0
  0
SPLINE
  5
3bc
100
AcDbEntity
  8
Your_Design
 62
5
100
AcDbSpline
 70
8
 71
3
 72
8
 73
4
 74
0
 40
0
 40
0
 40
0
 40
0
 40
1
 40
1
 40
1
 40
1
 10
5.345057
 20
7.126155
 30
0.0
 10
5.314117
 20
7.108292
 30
0.0
 10
5.295057
 20
7.075279
 30
0.0
 10
5.295057
 20
7.039553
 30
0.0
  0
SPLINE
  5
3bd
100
AcDbEntity
  8
Your_Design
 62
5
100
AcDbSpline
 70
8
 71
3
 72
8
 73
4
 74
0
 40
0
 40
0
 40
0
 40
0
 40
1
 40
1
 40
1
 40
1
 10
5.295057
 20
7.039553
 30
0.0
 10
5.295057
 20
7.003826
 30
0.0
 10
5.314117
 20
6.970813
 30
0.0
 10
5.345057
 20
6.952950
 30
0.0
  0
SPLINE
  5
3be
100
AcDbEntity
  8
Your_Design
 62
5
100
AcDbSpline
 70
8
 71
3
 72
8
 73
4
 74
0
 40
0
 40
0
 40
0
 40
0
 40
1
 40
1
 40
1
 40
1
 10
5.345057
 20
6.952950
 30
0.0
 10
5.375998
 20
6.935087
 30
0.0
 10
5.414117
 20
6.935087
 30
0.0
 10
5.445057
 20
6.952950
 30
0.0
  0
SPLINE
  5
3bf
100
AcDbEntity
  8
Your_Design
 62
5
100
AcDbSpline
 70
8
 71
3
 72
8
 73
4
 74
0
 40
0
 40
0
 40
0
 40
0
 40
1
 40
1
 40
1
 40
1
 10
5.445057
 20
6.952950
 30
0.0
 10
5.475998
 20
6.970813
 30
0.0
 10
5.495057
 20
7.003826
 30
0.0
 10
5.495057
 20
7.039553
 30
0.0
  0
LWPOLYLINE
  5
3c0
100
AcDbEntity
  8
Your_Design
 62
5
100
AcDbPolyline
 90
2
 70
1
 10
3.445954
 20
7.039553
 30
0.0
 10
3.445954
 20
7.039553
 30
0.0
  0
LWPOLYLINE
  5
3c1
100
AcDbEntity
  8
Your_Design
 62
5
100
AcDbPolyline
 90
2
 70
1
 10
5.495057
 20
7.039553
 30
0.0
 10
5.495057
 20
7.039553
 30
0.0
  0
LWPOLYLINE
  5
3c2
100
AcDbEntity
  8
Your_Design
 62
5
100
AcDbPolyline
 90
2
 70
0
 10
1.664616
 20
3.641152
 30
0.0
 10
1.664616
 20
3.452352
 30
0.0
  0
LWPOLYLINE
  5
3c3
100
AcDbEntity
  8
Your_Design
 62
5
100
AcDbPolyline
 90
2
 70
0
 10
0.243016
 20
3.641152
 30
0.0
 10
0.243016
 20
3.452352
 30
0.0
  0
LWPOLYLINE
  5
3c4
100
AcDbEntity
  8
Your_Design
 62
5
100
AcDbPolyline
 90
2
 70
0
 10
0.243016
 20
4.018752
 30
0.0
 10
0.243016
 20
3.829952
 30
0.0
  0
LWPOLYLINE
  5
3c5
100
AcDbEntity
  8
Your_Design
 62
5
100
AcDbPolyline
 90
2
 70
0
 10
1.664616
 20
4.018752
 30
0.0
 10
1.664616
 20
3.829952
 30
0.0
  0
LWPOLYLINE
  5
3c6
100
AcDbEntity
  8
Your_Design
 62
5
100
AcDbPolyline
 90
2
 70
0
 10
1.617416
 20
3.452352
 30
0.0
 10
1.617416
 20
3.263552
 30
0.0
  0
LWPOLYLINE
  5
3c7
100
AcDbEntity
  8
Your_Design
 62
5
100
AcDbPolyline
 90
2
 70
0
 10
1.617416
 20
3.829952
 30
0.0
 10
1.617416
 20
3.641152
 30
0.0
  0
LWPOLYLINE
  5
3c8
100
AcDbEntity
  8
Your_Design
 62
5
100
AcDbPolyline
 90
2
 70
0
 10
3.039154
 20
3.829952
 30
0.0
 10
3.039154
 20
3.641152
 30
0.0
  0
LWPOLYLINE
  5
3c9
100
AcDbEntity
  8
Your_Design
 62
5
100
AcDbPolyline
 90
2
 70
0
 10
3.039154
 20
3.452352
 30
0.0
 10
3.039154
 20
3.263552
 30
0.0
  0
LWPOLYLINE
  5
3ca
100
AcDbEntity
  8
Your_Design
 62
5
100
AcDbPolyline
 90
2
 70
0
 10
3.984343
 20
4.493098
 30
0.0
 10
4.095543
 20
4.493098
 30
0.0
  0
LWPOLYLINE
  5
3cb
100
AcDbEntity
  8
Your_Design
 62
5
100
AcDbPolyline
 90
2
 70
0
 10
4.284343
 20
4.493098
 30
0.0
 10
4.473143
 20
4.493098
 30
0.0
  0
LWPOLYLINE
  5
3cc
100
AcDbEntity
  8
Your_Design
 62
5
100
AcDbPolyline
 90
2
 70
0
 10
4.661943
 20
4.493098
 30
0.0
 10
4.773143
 20
4.493098
 30
0.0
  0
LWPOLYLINE
  5
3cd
100
AcDbEntity
  8
Your_Design
 62
5
100
AcDbPolyline
 90
2
 70
0
 10
3.984343
 20
3.071360
 30
0.0
 10
4.095543
 20
3.071360
 30
0.0
  0
LWPOLYLINE
  5
3ce
100
AcDbEntity
  8
Your_Design
 62
5
100
AcDbPolyline
 90
2
 70
0
 10
4.284343
 20
3.071360
 30
0.0
 10
4.473143
 20
3.071360
 30
0.0
  0
LWPOLYLINE
  5
3cf
100
AcDbEntity
  8
Your_Design
 62
5
100
AcDbPolyline
 90
2
 70
0
 10
4.661943
 20
3.071360
 30
0.0
 10
4.773143
 20
3.071360
 30
0.0
  0
LWPOLYLINE
  5
3d0
100
AcDbEntity
  8
Your_Design
 62
5
100
AcDbPolyline
 90
4
 70
0
 10
4.284343
 20
3.071360
 30
0.0
 10
4.284343
 20
3.142160
 30
0.0
 10
4.095543
 20
3.142160
 30
0.0
 10
4.095543
 20
3.071360
 30
0.0
  0
ENDSEC
  0
SECTION
  2
OBJECTS
  0
DICTIONARY
  5
C
330
0
100
AcDbDictionary
  3
ACAD_GROUP
350
D
  3
ACAD_MLINESTYLE
350
17
  0
DICTIONARY
  5
D
330
C
100
AcDbDictionary
  0
DICTIONARY
  5
1A
330
C
100
AcDbDictionary
  0
DICTIONARY
  5
17
330
C
100
AcDbDictionary
  3
STANDARD
350
18
  0
DICTIONARY
  5
19
330
C
100
AcDbDictionary
  0
ENDSEC
  0
EOF
