G04 MADE WITH FRITZING*
G04 WWW.FRITZING.ORG*
G04 DOUBLE SIDED*
G04 HOLES PLATED*
G04 CONTOUR ON CENTER OF CONTOUR VECTOR*
%ASAXBY*%
%FSLAX23Y23*%
%MOIN*%
%OFA0B0*%
%SFA1.0B1.0*%
%ADD10C,0.085000*%
%ADD11C,0.155669*%
%ADD12C,0.049370*%
%ADD13C,0.072992*%
%ADD14C,0.180000*%
%ADD15C,0.088000*%
%ADD16R,0.072992X0.072992*%
%ADD17C,0.030000*%
%ADD18R,0.001000X0.001000*%
%LNMASK0*%
G90*
G70*
G54D10*
X919Y1157D03*
X1319Y1157D03*
X1750Y277D03*
X1350Y277D03*
X829Y757D03*
X429Y757D03*
G54D11*
X1399Y767D03*
X1889Y757D03*
G54D10*
X1050Y307D03*
X1050Y407D03*
G54D12*
X779Y217D03*
G54D13*
X650Y458D03*
X650Y557D03*
X650Y458D03*
X650Y557D03*
X150Y458D03*
X150Y557D03*
X150Y458D03*
X150Y557D03*
X651Y1056D03*
X651Y958D03*
X651Y1056D03*
X651Y958D03*
X150Y1055D03*
X150Y957D03*
X150Y1055D03*
X150Y957D03*
G54D14*
X110Y1317D03*
X109Y187D03*
G54D10*
X1239Y557D03*
X939Y557D03*
X1239Y657D03*
X939Y657D03*
X1239Y757D03*
X939Y757D03*
X1239Y857D03*
X939Y857D03*
G54D15*
X1550Y1257D03*
X1550Y1357D03*
G54D16*
X650Y458D03*
X650Y458D03*
X150Y458D03*
X150Y458D03*
X651Y1056D03*
X651Y1056D03*
X150Y1055D03*
X150Y1055D03*
G54D17*
G36*
X1022Y334D02*
X1077Y334D01*
X1077Y279D01*
X1022Y279D01*
X1022Y334D01*
G37*
D02*
G36*
X1211Y530D02*
X1211Y585D01*
X1266Y585D01*
X1266Y530D01*
X1211Y530D01*
G37*
D02*
G36*
X1521Y1228D02*
X1521Y1286D01*
X1579Y1286D01*
X1579Y1228D01*
X1521Y1228D01*
G37*
D02*
G54D18*
X1533Y1097D02*
X1543Y1097D01*
X1633Y1097D02*
X1643Y1097D01*
X1733Y1097D02*
X1743Y1097D01*
X1529Y1096D02*
X1547Y1096D01*
X1629Y1096D02*
X1647Y1096D01*
X1728Y1096D02*
X1747Y1096D01*
X1526Y1095D02*
X1550Y1095D01*
X1626Y1095D02*
X1650Y1095D01*
X1726Y1095D02*
X1750Y1095D01*
X1523Y1094D02*
X1552Y1094D01*
X1623Y1094D02*
X1652Y1094D01*
X1723Y1094D02*
X1752Y1094D01*
X1521Y1093D02*
X1554Y1093D01*
X1621Y1093D02*
X1654Y1093D01*
X1721Y1093D02*
X1754Y1093D01*
X1520Y1092D02*
X1556Y1092D01*
X1620Y1092D02*
X1656Y1092D01*
X1720Y1092D02*
X1756Y1092D01*
X1518Y1091D02*
X1557Y1091D01*
X1618Y1091D02*
X1657Y1091D01*
X1718Y1091D02*
X1757Y1091D01*
X1517Y1090D02*
X1559Y1090D01*
X1617Y1090D02*
X1659Y1090D01*
X1717Y1090D02*
X1759Y1090D01*
X1515Y1089D02*
X1560Y1089D01*
X1615Y1089D02*
X1660Y1089D01*
X1715Y1089D02*
X1760Y1089D01*
X1514Y1088D02*
X1561Y1088D01*
X1614Y1088D02*
X1661Y1088D01*
X1714Y1088D02*
X1761Y1088D01*
X1513Y1087D02*
X1563Y1087D01*
X1613Y1087D02*
X1663Y1087D01*
X1713Y1087D02*
X1762Y1087D01*
X1512Y1086D02*
X1564Y1086D01*
X1612Y1086D02*
X1664Y1086D01*
X1712Y1086D02*
X1764Y1086D01*
X1511Y1085D02*
X1565Y1085D01*
X1611Y1085D02*
X1665Y1085D01*
X1711Y1085D02*
X1765Y1085D01*
X1510Y1084D02*
X1566Y1084D01*
X1610Y1084D02*
X1666Y1084D01*
X1710Y1084D02*
X1766Y1084D01*
X1509Y1083D02*
X1567Y1083D01*
X1609Y1083D02*
X1667Y1083D01*
X1709Y1083D02*
X1766Y1083D01*
X1508Y1082D02*
X1567Y1082D01*
X1608Y1082D02*
X1667Y1082D01*
X1708Y1082D02*
X1767Y1082D01*
X1507Y1081D02*
X1568Y1081D01*
X1607Y1081D02*
X1668Y1081D01*
X1707Y1081D02*
X1768Y1081D01*
X1506Y1080D02*
X1569Y1080D01*
X1606Y1080D02*
X1669Y1080D01*
X1706Y1080D02*
X1769Y1080D01*
X1506Y1079D02*
X1570Y1079D01*
X1606Y1079D02*
X1670Y1079D01*
X1706Y1079D02*
X1770Y1079D01*
X1505Y1078D02*
X1570Y1078D01*
X1605Y1078D02*
X1670Y1078D01*
X1705Y1078D02*
X1770Y1078D01*
X1504Y1077D02*
X1571Y1077D01*
X1604Y1077D02*
X1671Y1077D01*
X1704Y1077D02*
X1771Y1077D01*
X1504Y1076D02*
X1572Y1076D01*
X1604Y1076D02*
X1672Y1076D01*
X1704Y1076D02*
X1772Y1076D01*
X1503Y1075D02*
X1572Y1075D01*
X1603Y1075D02*
X1672Y1075D01*
X1703Y1075D02*
X1772Y1075D01*
X1503Y1074D02*
X1573Y1074D01*
X1603Y1074D02*
X1673Y1074D01*
X1702Y1074D02*
X1773Y1074D01*
X1502Y1073D02*
X1573Y1073D01*
X1602Y1073D02*
X1673Y1073D01*
X1702Y1073D02*
X1773Y1073D01*
X1502Y1072D02*
X1574Y1072D01*
X1602Y1072D02*
X1674Y1072D01*
X1701Y1072D02*
X1774Y1072D01*
X1501Y1071D02*
X1574Y1071D01*
X1601Y1071D02*
X1674Y1071D01*
X1701Y1071D02*
X1774Y1071D01*
X1501Y1070D02*
X1575Y1070D01*
X1601Y1070D02*
X1675Y1070D01*
X1701Y1070D02*
X1775Y1070D01*
X1500Y1069D02*
X1575Y1069D01*
X1600Y1069D02*
X1675Y1069D01*
X1700Y1069D02*
X1775Y1069D01*
X1500Y1068D02*
X1575Y1068D01*
X1600Y1068D02*
X1675Y1068D01*
X1700Y1068D02*
X1775Y1068D01*
X1500Y1067D02*
X1576Y1067D01*
X1600Y1067D02*
X1676Y1067D01*
X1700Y1067D02*
X1776Y1067D01*
X1499Y1066D02*
X1576Y1066D01*
X1599Y1066D02*
X1676Y1066D01*
X1699Y1066D02*
X1776Y1066D01*
X1499Y1065D02*
X1576Y1065D01*
X1599Y1065D02*
X1676Y1065D01*
X1699Y1065D02*
X1776Y1065D01*
X1499Y1064D02*
X1577Y1064D01*
X1599Y1064D02*
X1676Y1064D01*
X1699Y1064D02*
X1776Y1064D01*
X1499Y1063D02*
X1577Y1063D01*
X1599Y1063D02*
X1677Y1063D01*
X1699Y1063D02*
X1777Y1063D01*
X1499Y1062D02*
X1577Y1062D01*
X1599Y1062D02*
X1677Y1062D01*
X1698Y1062D02*
X1777Y1062D01*
X1498Y1061D02*
X1577Y1061D01*
X1598Y1061D02*
X1677Y1061D01*
X1698Y1061D02*
X1777Y1061D01*
X1498Y1060D02*
X1577Y1060D01*
X1598Y1060D02*
X1677Y1060D01*
X1698Y1060D02*
X1777Y1060D01*
X1498Y1059D02*
X1577Y1059D01*
X1598Y1059D02*
X1677Y1059D01*
X1698Y1059D02*
X1777Y1059D01*
X1498Y1058D02*
X1577Y1058D01*
X1598Y1058D02*
X1677Y1058D01*
X1698Y1058D02*
X1777Y1058D01*
X1498Y1057D02*
X1577Y1057D01*
X1598Y1057D02*
X1677Y1057D01*
X1698Y1057D02*
X1777Y1057D01*
X1498Y1056D02*
X1577Y1056D01*
X1598Y1056D02*
X1677Y1056D01*
X1698Y1056D02*
X1777Y1056D01*
X1498Y1055D02*
X1577Y1055D01*
X1598Y1055D02*
X1677Y1055D01*
X1698Y1055D02*
X1777Y1055D01*
X1498Y1054D02*
X1577Y1054D01*
X1598Y1054D02*
X1677Y1054D01*
X1698Y1054D02*
X1777Y1054D01*
X1499Y1053D02*
X1577Y1053D01*
X1599Y1053D02*
X1677Y1053D01*
X1698Y1053D02*
X1777Y1053D01*
X1499Y1052D02*
X1577Y1052D01*
X1599Y1052D02*
X1677Y1052D01*
X1699Y1052D02*
X1777Y1052D01*
X1499Y1051D02*
X1577Y1051D01*
X1599Y1051D02*
X1676Y1051D01*
X1699Y1051D02*
X1776Y1051D01*
X1499Y1050D02*
X1576Y1050D01*
X1599Y1050D02*
X1676Y1050D01*
X1699Y1050D02*
X1776Y1050D01*
X1499Y1049D02*
X1576Y1049D01*
X1599Y1049D02*
X1676Y1049D01*
X1699Y1049D02*
X1776Y1049D01*
X1500Y1048D02*
X1576Y1048D01*
X1600Y1048D02*
X1676Y1048D01*
X1700Y1048D02*
X1776Y1048D01*
X1500Y1047D02*
X1575Y1047D01*
X1600Y1047D02*
X1675Y1047D01*
X1700Y1047D02*
X1775Y1047D01*
X1500Y1046D02*
X1575Y1046D01*
X1600Y1046D02*
X1675Y1046D01*
X1700Y1046D02*
X1775Y1046D01*
X1501Y1045D02*
X1575Y1045D01*
X1601Y1045D02*
X1675Y1045D01*
X1701Y1045D02*
X1775Y1045D01*
X1501Y1044D02*
X1574Y1044D01*
X1601Y1044D02*
X1674Y1044D01*
X1701Y1044D02*
X1774Y1044D01*
X1502Y1043D02*
X1574Y1043D01*
X1602Y1043D02*
X1674Y1043D01*
X1701Y1043D02*
X1774Y1043D01*
X1502Y1042D02*
X1573Y1042D01*
X1602Y1042D02*
X1673Y1042D01*
X1702Y1042D02*
X1773Y1042D01*
X1503Y1041D02*
X1573Y1041D01*
X1603Y1041D02*
X1673Y1041D01*
X1702Y1041D02*
X1773Y1041D01*
X1503Y1040D02*
X1572Y1040D01*
X1603Y1040D02*
X1672Y1040D01*
X1703Y1040D02*
X1772Y1040D01*
X1504Y1039D02*
X1572Y1039D01*
X1604Y1039D02*
X1672Y1039D01*
X1704Y1039D02*
X1772Y1039D01*
X1504Y1038D02*
X1571Y1038D01*
X1604Y1038D02*
X1671Y1038D01*
X1704Y1038D02*
X1771Y1038D01*
X1505Y1037D02*
X1570Y1037D01*
X1605Y1037D02*
X1670Y1037D01*
X1705Y1037D02*
X1770Y1037D01*
X1506Y1036D02*
X1570Y1036D01*
X1606Y1036D02*
X1670Y1036D01*
X1706Y1036D02*
X1770Y1036D01*
X1506Y1035D02*
X1569Y1035D01*
X1606Y1035D02*
X1669Y1035D01*
X1706Y1035D02*
X1769Y1035D01*
X1507Y1034D02*
X1568Y1034D01*
X1607Y1034D02*
X1668Y1034D01*
X1707Y1034D02*
X1768Y1034D01*
X1508Y1033D02*
X1567Y1033D01*
X1608Y1033D02*
X1667Y1033D01*
X1708Y1033D02*
X1767Y1033D01*
X1509Y1032D02*
X1567Y1032D01*
X1609Y1032D02*
X1667Y1032D01*
X1709Y1032D02*
X1766Y1032D01*
X1510Y1031D02*
X1566Y1031D01*
X1610Y1031D02*
X1666Y1031D01*
X1710Y1031D02*
X1766Y1031D01*
X1511Y1030D02*
X1565Y1030D01*
X1611Y1030D02*
X1665Y1030D01*
X1711Y1030D02*
X1765Y1030D01*
X1512Y1029D02*
X1564Y1029D01*
X1612Y1029D02*
X1664Y1029D01*
X1712Y1029D02*
X1764Y1029D01*
X1513Y1028D02*
X1563Y1028D01*
X1613Y1028D02*
X1663Y1028D01*
X1713Y1028D02*
X1762Y1028D01*
X1514Y1027D02*
X1561Y1027D01*
X1614Y1027D02*
X1661Y1027D01*
X1714Y1027D02*
X1761Y1027D01*
X1515Y1026D02*
X1560Y1026D01*
X1615Y1026D02*
X1660Y1026D01*
X1715Y1026D02*
X1760Y1026D01*
X1517Y1025D02*
X1559Y1025D01*
X1617Y1025D02*
X1659Y1025D01*
X1717Y1025D02*
X1759Y1025D01*
X1518Y1024D02*
X1557Y1024D01*
X1618Y1024D02*
X1657Y1024D01*
X1718Y1024D02*
X1757Y1024D01*
X1520Y1023D02*
X1556Y1023D01*
X1620Y1023D02*
X1656Y1023D01*
X1720Y1023D02*
X1756Y1023D01*
X1521Y1022D02*
X1554Y1022D01*
X1621Y1022D02*
X1654Y1022D01*
X1721Y1022D02*
X1754Y1022D01*
X1523Y1021D02*
X1552Y1021D01*
X1623Y1021D02*
X1652Y1021D01*
X1723Y1021D02*
X1752Y1021D01*
X1526Y1020D02*
X1550Y1020D01*
X1626Y1020D02*
X1650Y1020D01*
X1726Y1020D02*
X1750Y1020D01*
X1529Y1019D02*
X1547Y1019D01*
X1629Y1019D02*
X1647Y1019D01*
X1728Y1019D02*
X1747Y1019D01*
X1533Y1018D02*
X1543Y1018D01*
X1633Y1018D02*
X1643Y1018D01*
X1733Y1018D02*
X1743Y1018D01*
X1532Y497D02*
X1544Y497D01*
X1731Y497D02*
X1744Y497D01*
X1528Y496D02*
X1548Y496D01*
X1728Y496D02*
X1747Y496D01*
X1525Y495D02*
X1550Y495D01*
X1725Y495D02*
X1750Y495D01*
X1523Y494D02*
X1552Y494D01*
X1723Y494D02*
X1752Y494D01*
X1521Y493D02*
X1554Y493D01*
X1721Y493D02*
X1754Y493D01*
X1519Y492D02*
X1556Y492D01*
X1719Y492D02*
X1756Y492D01*
X1518Y491D02*
X1558Y491D01*
X1718Y491D02*
X1758Y491D01*
X1516Y490D02*
X1559Y490D01*
X1716Y490D02*
X1759Y490D01*
X1515Y489D02*
X1560Y489D01*
X1715Y489D02*
X1760Y489D01*
X1514Y488D02*
X1562Y488D01*
X1714Y488D02*
X1762Y488D01*
X1513Y487D02*
X1563Y487D01*
X1713Y487D02*
X1763Y487D01*
X1512Y486D02*
X1564Y486D01*
X1711Y486D02*
X1764Y486D01*
X1511Y485D02*
X1565Y485D01*
X1710Y485D02*
X1765Y485D01*
X1510Y484D02*
X1566Y484D01*
X1709Y484D02*
X1766Y484D01*
X1509Y483D02*
X1567Y483D01*
X1709Y483D02*
X1767Y483D01*
X1508Y482D02*
X1568Y482D01*
X1708Y482D02*
X1768Y482D01*
X1507Y481D02*
X1568Y481D01*
X1707Y481D02*
X1768Y481D01*
X1506Y480D02*
X1569Y480D01*
X1706Y480D02*
X1769Y480D01*
X1505Y479D02*
X1570Y479D01*
X1705Y479D02*
X1770Y479D01*
X1505Y478D02*
X1571Y478D01*
X1705Y478D02*
X1771Y478D01*
X1504Y477D02*
X1571Y477D01*
X1704Y477D02*
X1771Y477D01*
X1504Y476D02*
X1572Y476D01*
X1703Y476D02*
X1772Y476D01*
X1503Y475D02*
X1572Y475D01*
X1703Y475D02*
X1772Y475D01*
X1502Y474D02*
X1573Y474D01*
X1702Y474D02*
X1773Y474D01*
X1502Y473D02*
X1573Y473D01*
X1702Y473D02*
X1773Y473D01*
X1501Y472D02*
X1574Y472D01*
X1701Y472D02*
X1774Y472D01*
X1501Y471D02*
X1574Y471D01*
X1701Y471D02*
X1774Y471D01*
X1501Y470D02*
X1575Y470D01*
X1701Y470D02*
X1775Y470D01*
X1500Y469D02*
X1575Y469D01*
X1700Y469D02*
X1775Y469D01*
X1500Y468D02*
X1576Y468D01*
X1700Y468D02*
X1775Y468D01*
X1500Y467D02*
X1576Y467D01*
X1700Y467D02*
X1776Y467D01*
X1499Y466D02*
X1576Y466D01*
X1699Y466D02*
X1776Y466D01*
X1499Y465D02*
X1576Y465D01*
X1699Y465D02*
X1776Y465D01*
X1499Y464D02*
X1577Y464D01*
X1699Y464D02*
X1776Y464D01*
X1499Y463D02*
X1577Y463D01*
X1699Y463D02*
X1777Y463D01*
X1499Y462D02*
X1577Y462D01*
X1698Y462D02*
X1777Y462D01*
X1498Y461D02*
X1577Y461D01*
X1698Y461D02*
X1777Y461D01*
X1498Y460D02*
X1577Y460D01*
X1698Y460D02*
X1777Y460D01*
X1498Y459D02*
X1577Y459D01*
X1698Y459D02*
X1777Y459D01*
X1498Y458D02*
X1577Y458D01*
X1698Y458D02*
X1777Y458D01*
X1498Y457D02*
X1577Y457D01*
X1698Y457D02*
X1777Y457D01*
X1498Y456D02*
X1577Y456D01*
X1698Y456D02*
X1777Y456D01*
X1498Y455D02*
X1577Y455D01*
X1698Y455D02*
X1777Y455D01*
X1498Y454D02*
X1577Y454D01*
X1698Y454D02*
X1777Y454D01*
X1499Y453D02*
X1577Y453D01*
X1698Y453D02*
X1777Y453D01*
X1499Y452D02*
X1577Y452D01*
X1699Y452D02*
X1777Y452D01*
X1499Y451D02*
X1576Y451D01*
X1699Y451D02*
X1776Y451D01*
X1499Y450D02*
X1576Y450D01*
X1699Y450D02*
X1776Y450D01*
X1499Y449D02*
X1576Y449D01*
X1699Y449D02*
X1776Y449D01*
X1500Y448D02*
X1576Y448D01*
X1700Y448D02*
X1776Y448D01*
X1500Y447D02*
X1575Y447D01*
X1700Y447D02*
X1775Y447D01*
X1500Y446D02*
X1575Y446D01*
X1700Y446D02*
X1775Y446D01*
X1501Y445D02*
X1575Y445D01*
X1701Y445D02*
X1775Y445D01*
X1501Y444D02*
X1574Y444D01*
X1701Y444D02*
X1774Y444D01*
X1502Y443D02*
X1574Y443D01*
X1702Y443D02*
X1774Y443D01*
X1502Y442D02*
X1573Y442D01*
X1702Y442D02*
X1773Y442D01*
X1503Y441D02*
X1573Y441D01*
X1703Y441D02*
X1773Y441D01*
X1503Y440D02*
X1572Y440D01*
X1703Y440D02*
X1772Y440D01*
X1504Y439D02*
X1572Y439D01*
X1704Y439D02*
X1772Y439D01*
X1504Y438D02*
X1571Y438D01*
X1704Y438D02*
X1771Y438D01*
X1505Y437D02*
X1570Y437D01*
X1705Y437D02*
X1770Y437D01*
X1506Y436D02*
X1570Y436D01*
X1706Y436D02*
X1770Y436D01*
X1507Y435D02*
X1569Y435D01*
X1706Y435D02*
X1769Y435D01*
X1507Y434D02*
X1568Y434D01*
X1707Y434D02*
X1768Y434D01*
X1508Y433D02*
X1567Y433D01*
X1708Y433D02*
X1767Y433D01*
X1509Y432D02*
X1566Y432D01*
X1709Y432D02*
X1766Y432D01*
X1510Y431D02*
X1565Y431D01*
X1710Y431D02*
X1765Y431D01*
X1511Y430D02*
X1564Y430D01*
X1711Y430D02*
X1764Y430D01*
X1512Y429D02*
X1563Y429D01*
X1712Y429D02*
X1763Y429D01*
X1513Y428D02*
X1562Y428D01*
X1713Y428D02*
X1762Y428D01*
X1514Y427D02*
X1561Y427D01*
X1714Y427D02*
X1761Y427D01*
X1516Y426D02*
X1560Y426D01*
X1715Y426D02*
X1760Y426D01*
X1517Y425D02*
X1559Y425D01*
X1717Y425D02*
X1758Y425D01*
X1518Y424D02*
X1557Y424D01*
X1718Y424D02*
X1757Y424D01*
X1520Y423D02*
X1555Y423D01*
X1720Y423D02*
X1755Y423D01*
X1522Y422D02*
X1554Y422D01*
X1722Y422D02*
X1753Y422D01*
X1524Y421D02*
X1552Y421D01*
X1724Y421D02*
X1751Y421D01*
X1526Y420D02*
X1549Y420D01*
X1726Y420D02*
X1749Y420D01*
X1529Y419D02*
X1546Y419D01*
X1729Y419D02*
X1746Y419D01*
X1534Y418D02*
X1541Y418D01*
X1734Y418D02*
X1741Y418D01*
D02*
G04 End of Mask0*
M02*