; NON-PLATED HOLES START AT T1
; THROUGH (PLATED) HOLES START AT T100
M48
INCH
T1C0.170000
T100C0.030000
T101C0.035000
T102C0.031497
T103C0.015748
T104C0.038000
T105C0.125984
%
T1
X001095Y013168
X001089Y001872
T100
X017389Y010572
X015389Y010572
X016389Y010572
X015389Y004573
X017389Y004573
T101
X010495Y003069
X009389Y006572
X008289Y007572
X012389Y005572
X013495Y002769
X012389Y008572
X009189Y011572
X017495Y002769
X009389Y005572
X009389Y008572
X013189Y011572
X012389Y007572
X010495Y004069
X009389Y007572
X012389Y006572
X004289Y007572
T102
X001495Y004584
X001495Y005568
X006509Y009578
X001495Y009568
X006509Y010562
X006495Y004584
X001495Y010553
X006495Y005568
T103
X007789Y002172
T104
X015495Y012568
X015495Y013568
T105
X018889Y007572
X013989Y007672
T00
M30
